G04 #@! TF.GenerationSoftware,KiCad,Pcbnew,8.0.8-8.0.8-0~ubuntu24.04.1*
G04 #@! TF.CreationDate,2025-01-15T11:24:39+01:00*
G04 #@! TF.ProjectId,PicoGUS chipdown,5069636f-4755-4532-9063-686970646f77,rev?*
G04 #@! TF.SameCoordinates,Original*
G04 #@! TF.FileFunction,Paste,Top*
G04 #@! TF.FilePolarity,Positive*
%FSLAX46Y46*%
G04 Gerber Fmt 4.6, Leading zero omitted, Abs format (unit mm)*
G04 Created by KiCad (PCBNEW 8.0.8-8.0.8-0~ubuntu24.04.1) date 2025-01-15 11:24:39*
%MOMM*%
%LPD*%
G01*
G04 APERTURE LIST*
G04 Aperture macros list*
%AMRoundRect*
0 Rectangle with rounded corners*
0 $1 Rounding radius*
0 $2 $3 $4 $5 $6 $7 $8 $9 X,Y pos of 4 corners*
0 Add a 4 corners polygon primitive as box body*
4,1,4,$2,$3,$4,$5,$6,$7,$8,$9,$2,$3,0*
0 Add four circle primitives for the rounded corners*
1,1,$1+$1,$2,$3*
1,1,$1+$1,$4,$5*
1,1,$1+$1,$6,$7*
1,1,$1+$1,$8,$9*
0 Add four rect primitives between the rounded corners*
20,1,$1+$1,$2,$3,$4,$5,0*
20,1,$1+$1,$4,$5,$6,$7,0*
20,1,$1+$1,$6,$7,$8,$9,0*
20,1,$1+$1,$8,$9,$2,$3,0*%
%AMFreePoly0*
4,1,25,0.461430,0.600348,0.483254,0.582430,0.585569,0.476315,0.617346,0.415509,0.619677,0.391800,0.619677,-0.395600,0.600348,-0.461430,0.584014,-0.481699,0.481699,-0.584014,0.421482,-0.616894,0.395600,-0.619677,-0.391800,-0.619677,-0.457630,-0.600348,-0.476315,-0.585569,-0.582430,-0.483254,-0.616403,-0.423647,-0.619677,-0.395600,-0.619677,0.397045,-0.600348,0.462875,-0.584014,0.483144,
-0.483144,0.584014,-0.422927,0.616894,-0.397045,0.619677,0.395600,0.619677,0.461430,0.600348,0.461430,0.600348,$1*%
G04 Aperture macros list end*
%ADD10C,0.000000*%
%ADD11C,0.243524*%
%ADD12RoundRect,0.262500X-0.262500X0.487500X-0.262500X-0.487500X0.262500X-0.487500X0.262500X0.487500X0*%
%ADD13RoundRect,0.250000X0.475000X-0.337500X0.475000X0.337500X-0.475000X0.337500X-0.475000X-0.337500X0*%
%ADD14RoundRect,0.250000X0.337500X0.475000X-0.337500X0.475000X-0.337500X-0.475000X0.337500X-0.475000X0*%
%ADD15RoundRect,0.250000X0.350000X0.450000X-0.350000X0.450000X-0.350000X-0.450000X0.350000X-0.450000X0*%
%ADD16RoundRect,0.250000X0.450000X-0.350000X0.450000X0.350000X-0.450000X0.350000X-0.450000X-0.350000X0*%
%ADD17RoundRect,0.250000X0.450000X-0.325000X0.450000X0.325000X-0.450000X0.325000X-0.450000X-0.325000X0*%
%ADD18RoundRect,0.100000X-0.100000X0.637500X-0.100000X-0.637500X0.100000X-0.637500X0.100000X0.637500X0*%
%ADD19RoundRect,0.250000X-1.050000X-0.550000X1.050000X-0.550000X1.050000X0.550000X-1.050000X0.550000X0*%
%ADD20RoundRect,0.250001X-0.462499X-0.624999X0.462499X-0.624999X0.462499X0.624999X-0.462499X0.624999X0*%
%ADD21R,0.400000X2.000000*%
%ADD22R,1.660800X1.600000*%
%ADD23O,1.500000X2.000000*%
%ADD24R,1.660800X1.593200*%
%ADD25R,0.400000X0.650000*%
%ADD26RoundRect,0.150000X-0.150000X0.825000X-0.150000X-0.825000X0.150000X-0.825000X0.150000X0.825000X0*%
%ADD27RoundRect,0.250000X-0.475000X0.337500X-0.475000X-0.337500X0.475000X-0.337500X0.475000X0.337500X0*%
%ADD28RoundRect,0.250000X0.325000X0.650000X-0.325000X0.650000X-0.325000X-0.650000X0.325000X-0.650000X0*%
%ADD29RoundRect,0.250000X-0.450000X0.350000X-0.450000X-0.350000X0.450000X-0.350000X0.450000X0.350000X0*%
%ADD30RoundRect,0.250000X-0.250000X0.250000X-0.250000X-0.250000X0.250000X-0.250000X0.250000X0.250000X0*%
%ADD31RoundRect,0.150000X-0.150000X0.650000X-0.150000X-0.650000X0.150000X-0.650000X0.150000X0.650000X0*%
%ADD32RoundRect,0.250000X-0.325000X-0.450000X0.325000X-0.450000X0.325000X0.450000X-0.325000X0.450000X0*%
%ADD33RoundRect,0.250000X-0.337500X-0.475000X0.337500X-0.475000X0.337500X0.475000X-0.337500X0.475000X0*%
%ADD34FreePoly0,270.000000*%
%ADD35RoundRect,0.050000X-0.050000X0.387500X-0.050000X-0.387500X0.050000X-0.387500X0.050000X0.387500X0*%
%ADD36RoundRect,0.050000X-0.387500X0.050000X-0.387500X-0.050000X0.387500X-0.050000X0.387500X0.050000X0*%
%ADD37RoundRect,0.150000X0.587500X0.150000X-0.587500X0.150000X-0.587500X-0.150000X0.587500X-0.150000X0*%
%ADD38RoundRect,0.250000X-0.350000X-0.450000X0.350000X-0.450000X0.350000X0.450000X-0.350000X0.450000X0*%
%ADD39R,1.800000X2.100000*%
%ADD40RoundRect,0.250000X-0.325000X-0.650000X0.325000X-0.650000X0.325000X0.650000X-0.325000X0.650000X0*%
%ADD41R,2.000000X1.500000*%
%ADD42R,2.000000X3.800000*%
%ADD43RoundRect,0.150000X0.150000X0.625000X-0.150000X0.625000X-0.150000X-0.625000X0.150000X-0.625000X0*%
%ADD44RoundRect,0.250000X0.350000X0.650000X-0.350000X0.650000X-0.350000X-0.650000X0.350000X-0.650000X0*%
G04 APERTURE END LIST*
D10*
G36*
X203003200Y-124569000D02*
G01*
X201335000Y-124569000D01*
X201335000Y-122969000D01*
X203003200Y-122969000D01*
X203003200Y-124569000D01*
G37*
G36*
X204385000Y-124669000D02*
G01*
X203985000Y-124669000D01*
X203985000Y-122669000D01*
X204385000Y-122669000D01*
X204385000Y-124669000D01*
G37*
G36*
X205035000Y-124669000D02*
G01*
X204635000Y-124669000D01*
X204635000Y-122669000D01*
X205035000Y-122669000D01*
X205035000Y-124669000D01*
G37*
G36*
X205685000Y-124669000D02*
G01*
X205285000Y-124669000D01*
X205285000Y-122669000D01*
X205685000Y-122669000D01*
X205685000Y-124669000D01*
G37*
G36*
X206335000Y-124669000D02*
G01*
X205935000Y-124669000D01*
X205935000Y-122669000D01*
X206335000Y-122669000D01*
X206335000Y-124669000D01*
G37*
G36*
X206985000Y-124669000D02*
G01*
X206585000Y-124669000D01*
X206585000Y-122669000D01*
X206985000Y-122669000D01*
X206985000Y-124669000D01*
G37*
G36*
X209635000Y-124569000D02*
G01*
X207966800Y-124569000D01*
X207966800Y-122969000D01*
X209635000Y-122969000D01*
X209635000Y-124569000D01*
G37*
D11*
X191889215Y-107227240D02*
X191889215Y-108019885D01*
X191783100Y-108122200D01*
X190995700Y-108122200D01*
X190893385Y-108019885D01*
X190893385Y-107232485D01*
X190995700Y-107126370D01*
X191788345Y-107126370D01*
X191889215Y-107227240D01*
G36*
X191889215Y-107227240D02*
G01*
X191889215Y-108019885D01*
X191783100Y-108122200D01*
X190995700Y-108122200D01*
X190893385Y-108019885D01*
X190893385Y-107232485D01*
X190995700Y-107126370D01*
X191788345Y-107126370D01*
X191889215Y-107227240D01*
G37*
X191889215Y-108573440D02*
X191889215Y-109366085D01*
X191783100Y-109468400D01*
X190995700Y-109468400D01*
X190893385Y-109366085D01*
X190893385Y-108578685D01*
X190995700Y-108472570D01*
X191788345Y-108472570D01*
X191889215Y-108573440D01*
G36*
X191889215Y-108573440D02*
G01*
X191889215Y-109366085D01*
X191783100Y-109468400D01*
X190995700Y-109468400D01*
X190893385Y-109366085D01*
X190893385Y-108578685D01*
X190995700Y-108472570D01*
X191788345Y-108472570D01*
X191889215Y-108573440D01*
G37*
X193235415Y-108573440D02*
X193235415Y-109366085D01*
X193129300Y-109468400D01*
X192341900Y-109468400D01*
X192239585Y-109366085D01*
X192239585Y-108578685D01*
X192341900Y-108472570D01*
X193134545Y-108472570D01*
X193235415Y-108573440D01*
G36*
X193235415Y-108573440D02*
G01*
X193235415Y-109366085D01*
X193129300Y-109468400D01*
X192341900Y-109468400D01*
X192239585Y-109366085D01*
X192239585Y-108578685D01*
X192341900Y-108472570D01*
X193134545Y-108472570D01*
X193235415Y-108573440D01*
G37*
D12*
X196841800Y-126382600D03*
X196841800Y-122232600D03*
X198991800Y-126382600D03*
X198991800Y-122232600D03*
D13*
X197104000Y-87702300D03*
X197104000Y-85627300D03*
D14*
X185289100Y-65100200D03*
X183214100Y-65100200D03*
D13*
X183134000Y-63115100D03*
X183134000Y-61040100D03*
D15*
X207575000Y-81690000D03*
X205575000Y-81690000D03*
D14*
X184755700Y-109397800D03*
X182680700Y-109397800D03*
D16*
X179044600Y-63052200D03*
X179044600Y-61052200D03*
D14*
X184730300Y-105232200D03*
X182655300Y-105232200D03*
D17*
X173634400Y-72018000D03*
X173634400Y-69968000D03*
D15*
X203615800Y-56388000D03*
X201615800Y-56388000D03*
D18*
X166364200Y-95333900D03*
X165714200Y-95333900D03*
X165064200Y-95333900D03*
X164414200Y-95333900D03*
X163764200Y-95333900D03*
X163114200Y-95333900D03*
X162464200Y-95333900D03*
X162464200Y-101058900D03*
X163114200Y-101058900D03*
X163764200Y-101058900D03*
X164414200Y-101058900D03*
X165064200Y-101058900D03*
X165714200Y-101058900D03*
X166364200Y-101058900D03*
D19*
X188400000Y-56300000D03*
X192000000Y-56300000D03*
D20*
X206612500Y-121200000D03*
X209587500Y-121200000D03*
D21*
X204185000Y-123669000D03*
X204835000Y-123669000D03*
X205485000Y-123669000D03*
X206135000Y-123669000D03*
X206785000Y-123669000D03*
D22*
X202165400Y-123769000D03*
D23*
X202655000Y-126319000D03*
X208315000Y-126319000D03*
D24*
X208804600Y-123765600D03*
D25*
X193232800Y-115864600D03*
X192582800Y-115864600D03*
X191932800Y-115864600D03*
X191932800Y-117764600D03*
X192582800Y-117764600D03*
X193232800Y-117764600D03*
D26*
X195148200Y-85993200D03*
X193878200Y-85993200D03*
X192608200Y-85993200D03*
X191338200Y-85993200D03*
X191338200Y-90943200D03*
X192608200Y-90943200D03*
X193878200Y-90943200D03*
X195148200Y-90943200D03*
D13*
X205700000Y-100537500D03*
X205700000Y-98462500D03*
X186461400Y-69947700D03*
X186461400Y-67872700D03*
D27*
X179019200Y-92459900D03*
X179019200Y-94534900D03*
D28*
X192975000Y-122300000D03*
X190025000Y-122300000D03*
D27*
X179019200Y-101121300D03*
X179019200Y-103196300D03*
D29*
X158200000Y-124200000D03*
X158200000Y-126200000D03*
D13*
X176603600Y-70122300D03*
X176603600Y-68047300D03*
X186209800Y-77113700D03*
X186209800Y-75038700D03*
D30*
X203530200Y-115386800D03*
X203530200Y-117886800D03*
D27*
X197383400Y-115802500D03*
X197383400Y-117877500D03*
D31*
X201701400Y-90278400D03*
X200431400Y-90278400D03*
X199161400Y-90278400D03*
X197891400Y-90278400D03*
X197891400Y-97478400D03*
X199161400Y-97478400D03*
X200431400Y-97478400D03*
X201701400Y-97478400D03*
D18*
X184128600Y-69197300D03*
X183478600Y-69197300D03*
X182828600Y-69197300D03*
X182178600Y-69197300D03*
X181528600Y-69197300D03*
X180878600Y-69197300D03*
X180228600Y-69197300D03*
X179578600Y-69197300D03*
X178928600Y-69197300D03*
X178278600Y-69197300D03*
X178278600Y-74922300D03*
X178928600Y-74922300D03*
X179578600Y-74922300D03*
X180228600Y-74922300D03*
X180878600Y-74922300D03*
X181528600Y-74922300D03*
X182178600Y-74922300D03*
X182828600Y-74922300D03*
X183478600Y-74922300D03*
X184128600Y-74922300D03*
D32*
X209550000Y-81690000D03*
X211600000Y-81690000D03*
D19*
X195300000Y-56300000D03*
X198900000Y-56300000D03*
X175095000Y-51900000D03*
X178695000Y-51900000D03*
D16*
X179019200Y-90611200D03*
X179019200Y-88611200D03*
D14*
X166264500Y-92786200D03*
X164189500Y-92786200D03*
D33*
X182604500Y-97256600D03*
X184679500Y-97256600D03*
D18*
X166338800Y-84564300D03*
X165688800Y-84564300D03*
X165038800Y-84564300D03*
X164388800Y-84564300D03*
X163738800Y-84564300D03*
X163088800Y-84564300D03*
X162438800Y-84564300D03*
X162438800Y-90289300D03*
X163088800Y-90289300D03*
X163738800Y-90289300D03*
X164388800Y-90289300D03*
X165038800Y-90289300D03*
X165688800Y-90289300D03*
X166338800Y-90289300D03*
X177100000Y-105875000D03*
X176450000Y-105875000D03*
X175800000Y-105875000D03*
X175150000Y-105875000D03*
X174500000Y-105875000D03*
X173850000Y-105875000D03*
X173200000Y-105875000D03*
X172550000Y-105875000D03*
X171900000Y-105875000D03*
X171250000Y-105875000D03*
X171250000Y-111600000D03*
X171900000Y-111600000D03*
X172550000Y-111600000D03*
X173200000Y-111600000D03*
X173850000Y-111600000D03*
X174500000Y-111600000D03*
X175150000Y-111600000D03*
X175800000Y-111600000D03*
X176450000Y-111600000D03*
X177100000Y-111600000D03*
D29*
X201479500Y-119008000D03*
X201479500Y-121008000D03*
D18*
X166350000Y-105900000D03*
X165700000Y-105900000D03*
X165050000Y-105900000D03*
X164400000Y-105900000D03*
X163750000Y-105900000D03*
X163100000Y-105900000D03*
X162450000Y-105900000D03*
X162450000Y-111625000D03*
X163100000Y-111625000D03*
X163750000Y-111625000D03*
X164400000Y-111625000D03*
X165050000Y-111625000D03*
X165700000Y-111625000D03*
X166350000Y-111625000D03*
D28*
X215475000Y-92900000D03*
X212525000Y-92900000D03*
D18*
X177075000Y-87137500D03*
X176425000Y-87137500D03*
X175775000Y-87137500D03*
X175125000Y-87137500D03*
X174475000Y-87137500D03*
X173825000Y-87137500D03*
X173175000Y-87137500D03*
X172525000Y-87137500D03*
X172525000Y-92862500D03*
X173175000Y-92862500D03*
X173825000Y-92862500D03*
X174475000Y-92862500D03*
X175125000Y-92862500D03*
X175775000Y-92862500D03*
X176425000Y-92862500D03*
X177075000Y-92862500D03*
D34*
X192737500Y-107625000D03*
D35*
X194662500Y-104862500D03*
X194262500Y-104862500D03*
X193862500Y-104862500D03*
X193462500Y-104862500D03*
X193062500Y-104862500D03*
X192662500Y-104862500D03*
X192262500Y-104862500D03*
X191862500Y-104862500D03*
X191462500Y-104862500D03*
X191062500Y-104862500D03*
X190662500Y-104862500D03*
X190262500Y-104862500D03*
X189862500Y-104862500D03*
X189462500Y-104862500D03*
D36*
X188625000Y-105700000D03*
X188625000Y-106100000D03*
X188625000Y-106500000D03*
X188625000Y-106900000D03*
X188625000Y-107300000D03*
X188625000Y-107700000D03*
X188625000Y-108100000D03*
X188625000Y-108500000D03*
X188625000Y-108900000D03*
X188625000Y-109300000D03*
X188625000Y-109700000D03*
X188625000Y-110100000D03*
X188625000Y-110500000D03*
X188625000Y-110900000D03*
D35*
X189462500Y-111737500D03*
X189862500Y-111737500D03*
X190262500Y-111737500D03*
X190662500Y-111737500D03*
X191062500Y-111737500D03*
X191462500Y-111737500D03*
X191862500Y-111737500D03*
X192262500Y-111737500D03*
X192662500Y-111737500D03*
X193062500Y-111737500D03*
X193462500Y-111737500D03*
X193862500Y-111737500D03*
X194262500Y-111737500D03*
X194662500Y-111737500D03*
D36*
X195500000Y-110900000D03*
X195500000Y-110500000D03*
X195500000Y-110100000D03*
X195500000Y-109700000D03*
X195500000Y-109300000D03*
X195500000Y-108900000D03*
X195500000Y-108500000D03*
X195500000Y-108100000D03*
X195500000Y-107700000D03*
X195500000Y-107300000D03*
X195500000Y-106900000D03*
X195500000Y-106500000D03*
X195500000Y-106100000D03*
X195500000Y-105700000D03*
D13*
X190373000Y-98903700D03*
X190373000Y-96828700D03*
D14*
X178126300Y-113995200D03*
X176051300Y-113995200D03*
D37*
X201422000Y-117246400D03*
X201422000Y-115346400D03*
X199547000Y-116296400D03*
D38*
X201615800Y-54381400D03*
X203615800Y-54381400D03*
D14*
X193696500Y-119811800D03*
X191621500Y-119811800D03*
D16*
X177038000Y-63052200D03*
X177038000Y-61052200D03*
D14*
X166264500Y-103479600D03*
X164189500Y-103479600D03*
D39*
X182923800Y-99769000D03*
X182923800Y-102669000D03*
X185223800Y-102669000D03*
X185223800Y-99769000D03*
D13*
X195402200Y-100935700D03*
X195402200Y-98860700D03*
D29*
X157632400Y-99457000D03*
X157632400Y-101457000D03*
D13*
X205700000Y-96937500D03*
X205700000Y-94862500D03*
D40*
X188491600Y-51079400D03*
X191441600Y-51079400D03*
D13*
X181076600Y-63115100D03*
X181076600Y-61040100D03*
D27*
X182933200Y-77350100D03*
X182933200Y-79425100D03*
D15*
X203768200Y-111480600D03*
X201768200Y-111480600D03*
D26*
X185537400Y-51160310D03*
X184267400Y-51160310D03*
X182997400Y-51160310D03*
X181727400Y-51160310D03*
X181727400Y-56110310D03*
X182997400Y-56110310D03*
X184267400Y-56110310D03*
X185537400Y-56110310D03*
D38*
X205575000Y-83590000D03*
X207575000Y-83590000D03*
D32*
X209550000Y-83590000D03*
X211600000Y-83590000D03*
D19*
X188400000Y-61400000D03*
X192000000Y-61400000D03*
D27*
X195300600Y-115827900D03*
X195300600Y-117902900D03*
D29*
X187604400Y-100904800D03*
X187604400Y-102904800D03*
D27*
X190195200Y-114253100D03*
X190195200Y-116328100D03*
D19*
X178695000Y-57000000D03*
X175095000Y-57000000D03*
D14*
X183841300Y-58394600D03*
X181766300Y-58394600D03*
D27*
X187807600Y-114329300D03*
X187807600Y-116404300D03*
D38*
X201641200Y-63271400D03*
X203641200Y-63271400D03*
D41*
X208750000Y-95600000D03*
X208750000Y-97900000D03*
D42*
X215050000Y-97900000D03*
D41*
X208750000Y-100200000D03*
D32*
X173803200Y-44500000D03*
X175853200Y-44500000D03*
D33*
X199571700Y-106019600D03*
X201646700Y-106019600D03*
X198454100Y-107975400D03*
X200529100Y-107975400D03*
D38*
X173828200Y-46990000D03*
X175828200Y-46990000D03*
D32*
X170912500Y-60900000D03*
X172962500Y-60900000D03*
D19*
X195300000Y-61400000D03*
X198900000Y-61400000D03*
D14*
X166137500Y-113919000D03*
X164062500Y-113919000D03*
X203018300Y-104063800D03*
X200943300Y-104063800D03*
D18*
X177075000Y-96437500D03*
X176425000Y-96437500D03*
X175775000Y-96437500D03*
X175125000Y-96437500D03*
X174475000Y-96437500D03*
X173825000Y-96437500D03*
X173175000Y-96437500D03*
X172525000Y-96437500D03*
X172525000Y-102162500D03*
X173175000Y-102162500D03*
X173825000Y-102162500D03*
X174475000Y-102162500D03*
X175125000Y-102162500D03*
X175775000Y-102162500D03*
X176425000Y-102162500D03*
X177075000Y-102162500D03*
D43*
X183499000Y-111832000D03*
X182499000Y-111832000D03*
X181499000Y-111832000D03*
D44*
X184799000Y-114357000D03*
X180199000Y-114357000D03*
D13*
X185191400Y-63115100D03*
X185191400Y-61040100D03*
D33*
X176991100Y-65074800D03*
X179066100Y-65074800D03*
X197260300Y-111582200D03*
X199335300Y-111582200D03*
D29*
X202996800Y-99888800D03*
X202996800Y-101888800D03*
D15*
X203641200Y-61264800D03*
X201641200Y-61264800D03*
D14*
X184806500Y-107289600D03*
X182731500Y-107289600D03*
D15*
X203742800Y-109474000D03*
X201742800Y-109474000D03*
D27*
X200812400Y-99851300D03*
X200812400Y-101926300D03*
D29*
X177850800Y-116830600D03*
X177850800Y-118830600D03*
D33*
X197234900Y-113588800D03*
X199309900Y-113588800D03*
M02*
