G04 #@! TF.GenerationSoftware,KiCad,Pcbnew,8.0.8-8.0.8-0~ubuntu24.04.1*
G04 #@! TF.CreationDate,2025-01-15T11:24:40+01:00*
G04 #@! TF.ProjectId,PicoGUS chipdown,5069636f-4755-4532-9063-686970646f77,rev?*
G04 #@! TF.SameCoordinates,Original*
G04 #@! TF.FileFunction,Soldermask,Bot*
G04 #@! TF.FilePolarity,Negative*
%FSLAX46Y46*%
G04 Gerber Fmt 4.6, Leading zero omitted, Abs format (unit mm)*
G04 Created by KiCad (PCBNEW 8.0.8-8.0.8-0~ubuntu24.04.1) date 2025-01-15 11:24:40*
%MOMM*%
%LPD*%
G01*
G04 APERTURE LIST*
G04 Aperture macros list*
%AMRoundRect*
0 Rectangle with rounded corners*
0 $1 Rounding radius*
0 $2 $3 $4 $5 $6 $7 $8 $9 X,Y pos of 4 corners*
0 Add a 4 corners polygon primitive as box body*
4,1,4,$2,$3,$4,$5,$6,$7,$8,$9,$2,$3,0*
0 Add four circle primitives for the rounded corners*
1,1,$1+$1,$2,$3*
1,1,$1+$1,$4,$5*
1,1,$1+$1,$6,$7*
1,1,$1+$1,$8,$9*
0 Add four rect primitives between the rounded corners*
20,1,$1+$1,$2,$3,$4,$5,0*
20,1,$1+$1,$4,$5,$6,$7,0*
20,1,$1+$1,$6,$7,$8,$9,0*
20,1,$1+$1,$8,$9,$2,$3,0*%
G04 Aperture macros list end*
%ADD10C,0.100000*%
%ADD11R,1.700000X1.700000*%
%ADD12O,1.700000X1.700000*%
%ADD13C,0.500000*%
%ADD14O,1.500000X2.000000*%
%ADD15O,1.800000X2.800000*%
%ADD16C,1.500000*%
%ADD17C,3.100000*%
%ADD18C,3.200000*%
%ADD19RoundRect,0.425000X-0.425000X0.425000X-0.425000X-0.425000X0.425000X-0.425000X0.425000X0.425000X0*%
%ADD20C,6.400000*%
%ADD21R,1.524000X6.478000*%
%ADD22R,1.524000X6.458000*%
G04 APERTURE END LIST*
D10*
X197740000Y-136414300D02*
X116460000Y-136414300D01*
X116460000Y-129111800D01*
X197740000Y-129111800D01*
X197740000Y-136414300D01*
G36*
X197740000Y-136414300D02*
G01*
X116460000Y-136414300D01*
X116460000Y-129111800D01*
X197740000Y-129111800D01*
X197740000Y-136414300D01*
G37*
D11*
X135509000Y-124079000D03*
D12*
X135509000Y-121539000D03*
X138049000Y-124079000D03*
X138049000Y-121539000D03*
X140589000Y-124079000D03*
X140589000Y-121539000D03*
X143129000Y-124079000D03*
X143129000Y-121539000D03*
X145669000Y-124079000D03*
X145669000Y-121539000D03*
X148209000Y-124079000D03*
X148209000Y-121539000D03*
X150749000Y-124079000D03*
X150749000Y-121539000D03*
X153289000Y-124079000D03*
X153289000Y-121539000D03*
X155829000Y-124079000D03*
X155829000Y-121539000D03*
D13*
X203485000Y-123969000D03*
X207485000Y-123969000D03*
D14*
X202655000Y-126319000D03*
X208315000Y-126319000D03*
D11*
X184900000Y-117625000D03*
D12*
X184900000Y-120165000D03*
D15*
X210200000Y-77790000D03*
X212000000Y-75790000D03*
X218100000Y-75790000D03*
X215700000Y-77790000D03*
X206500000Y-75790000D03*
D16*
X208612200Y-114785000D03*
X208612200Y-112285000D03*
X208612200Y-110285000D03*
X208612200Y-107785000D03*
D17*
X211322200Y-118285000D03*
X211322200Y-104285000D03*
D18*
X162000000Y-44260000D03*
X162000000Y-123000000D03*
D19*
X155650000Y-44260000D03*
D12*
X155650000Y-46800000D03*
X153110000Y-44260000D03*
X153110000Y-46800000D03*
X150570000Y-44260000D03*
X150570000Y-46800000D03*
X148030000Y-44260000D03*
X148030000Y-46800000D03*
X145490000Y-44260000D03*
X145490000Y-46800000D03*
X142950000Y-44260000D03*
X142950000Y-46800000D03*
X140410000Y-44260000D03*
X140410000Y-46800000D03*
X137870000Y-44260000D03*
X137870000Y-46800000D03*
X135330000Y-44260000D03*
X135330000Y-46800000D03*
X132790000Y-44260000D03*
X132790000Y-46800000D03*
X130250000Y-44260000D03*
X130250000Y-46800000D03*
X127710000Y-44260000D03*
X127710000Y-46800000D03*
X125170000Y-44260000D03*
X125170000Y-46800000D03*
D15*
X210200000Y-60940000D03*
X212000000Y-58940000D03*
X218100000Y-58940000D03*
X215700000Y-60940000D03*
X206500000Y-58940000D03*
D20*
X215658700Y-124008000D03*
D21*
X195200000Y-132300000D03*
X192660000Y-132300000D03*
X190120000Y-132300000D03*
X187580000Y-132300000D03*
X185040000Y-132300000D03*
X182500000Y-132300000D03*
X179960000Y-132300000D03*
X177420000Y-132300000D03*
X174880000Y-132300000D03*
X172340000Y-132300000D03*
X169800000Y-132300000D03*
X167260000Y-132300000D03*
X164720000Y-132300000D03*
X162180000Y-132300000D03*
X159640000Y-132300000D03*
X157100000Y-132300000D03*
X154560000Y-132300000D03*
X152020000Y-132300000D03*
X149480000Y-132300000D03*
X146940000Y-132300000D03*
X144400000Y-132300000D03*
X141860000Y-132300000D03*
X139320000Y-132300000D03*
X136780000Y-132300000D03*
X134240000Y-132300000D03*
X131700000Y-132300000D03*
X129160000Y-132300000D03*
X126620000Y-132300000D03*
X124080000Y-132300000D03*
D22*
X121540000Y-132290000D03*
D21*
X119000000Y-132300000D03*
D11*
X181200000Y-117625000D03*
D12*
X181200000Y-120165000D03*
D20*
X215658700Y-67493000D03*
M02*
