G04 #@! TF.GenerationSoftware,KiCad,Pcbnew,8.0.8-8.0.8-0~ubuntu24.04.1*
G04 #@! TF.CreationDate,2025-01-15T11:24:40+01:00*
G04 #@! TF.ProjectId,PicoGUS chipdown,5069636f-4755-4532-9063-686970646f77,rev?*
G04 #@! TF.SameCoordinates,Original*
G04 #@! TF.FileFunction,Soldermask,Top*
G04 #@! TF.FilePolarity,Negative*
%FSLAX46Y46*%
G04 Gerber Fmt 4.6, Leading zero omitted, Abs format (unit mm)*
G04 Created by KiCad (PCBNEW 8.0.8-8.0.8-0~ubuntu24.04.1) date 2025-01-15 11:24:40*
%MOMM*%
%LPD*%
G01*
G04 APERTURE LIST*
G04 Aperture macros list*
%AMRoundRect*
0 Rectangle with rounded corners*
0 $1 Rounding radius*
0 $2 $3 $4 $5 $6 $7 $8 $9 X,Y pos of 4 corners*
0 Add a 4 corners polygon primitive as box body*
4,1,4,$2,$3,$4,$5,$6,$7,$8,$9,$2,$3,0*
0 Add four circle primitives for the rounded corners*
1,1,$1+$1,$2,$3*
1,1,$1+$1,$4,$5*
1,1,$1+$1,$6,$7*
1,1,$1+$1,$8,$9*
0 Add four rect primitives between the rounded corners*
20,1,$1+$1,$2,$3,$4,$5,0*
20,1,$1+$1,$4,$5,$6,$7,0*
20,1,$1+$1,$6,$7,$8,$9,0*
20,1,$1+$1,$8,$9,$2,$3,0*%
G04 Aperture macros list end*
%ADD10C,0.000000*%
%ADD11C,0.100000*%
%ADD12RoundRect,0.262500X-0.262500X0.487500X-0.262500X-0.487500X0.262500X-0.487500X0.262500X0.487500X0*%
%ADD13R,1.700000X1.700000*%
%ADD14O,1.700000X1.700000*%
%ADD15RoundRect,0.250000X0.475000X-0.337500X0.475000X0.337500X-0.475000X0.337500X-0.475000X-0.337500X0*%
%ADD16RoundRect,0.250000X0.337500X0.475000X-0.337500X0.475000X-0.337500X-0.475000X0.337500X-0.475000X0*%
%ADD17RoundRect,0.250000X0.350000X0.450000X-0.350000X0.450000X-0.350000X-0.450000X0.350000X-0.450000X0*%
%ADD18RoundRect,0.250000X0.450000X-0.350000X0.450000X0.350000X-0.450000X0.350000X-0.450000X-0.350000X0*%
%ADD19RoundRect,0.250000X0.450000X-0.325000X0.450000X0.325000X-0.450000X0.325000X-0.450000X-0.325000X0*%
%ADD20RoundRect,0.100000X-0.100000X0.637500X-0.100000X-0.637500X0.100000X-0.637500X0.100000X0.637500X0*%
%ADD21RoundRect,0.250000X-1.050000X-0.550000X1.050000X-0.550000X1.050000X0.550000X-1.050000X0.550000X0*%
%ADD22RoundRect,0.250001X-0.462499X-0.624999X0.462499X-0.624999X0.462499X0.624999X-0.462499X0.624999X0*%
%ADD23C,0.500000*%
%ADD24R,0.400000X2.000000*%
%ADD25R,1.660800X1.600000*%
%ADD26O,1.500000X2.000000*%
%ADD27R,1.660800X1.593200*%
%ADD28R,0.400000X0.650000*%
%ADD29RoundRect,0.150000X-0.150000X0.825000X-0.150000X-0.825000X0.150000X-0.825000X0.150000X0.825000X0*%
%ADD30RoundRect,0.250000X-0.475000X0.337500X-0.475000X-0.337500X0.475000X-0.337500X0.475000X0.337500X0*%
%ADD31RoundRect,0.250000X0.325000X0.650000X-0.325000X0.650000X-0.325000X-0.650000X0.325000X-0.650000X0*%
%ADD32RoundRect,0.250000X-0.450000X0.350000X-0.450000X-0.350000X0.450000X-0.350000X0.450000X0.350000X0*%
%ADD33O,1.800000X2.800000*%
%ADD34RoundRect,0.250000X-0.250000X0.250000X-0.250000X-0.250000X0.250000X-0.250000X0.250000X0.250000X0*%
%ADD35C,1.500000*%
%ADD36C,3.100000*%
%ADD37RoundRect,0.150000X-0.150000X0.650000X-0.150000X-0.650000X0.150000X-0.650000X0.150000X0.650000X0*%
%ADD38RoundRect,0.250000X-0.325000X-0.450000X0.325000X-0.450000X0.325000X0.450000X-0.325000X0.450000X0*%
%ADD39RoundRect,0.250000X-0.337500X-0.475000X0.337500X-0.475000X0.337500X0.475000X-0.337500X0.475000X0*%
%ADD40C,3.200000*%
%ADD41RoundRect,0.425000X-0.425000X0.425000X-0.425000X-0.425000X0.425000X-0.425000X0.425000X0.425000X0*%
%ADD42RoundRect,0.050000X-0.050000X0.387500X-0.050000X-0.387500X0.050000X-0.387500X0.050000X0.387500X0*%
%ADD43RoundRect,0.050000X-0.387500X0.050000X-0.387500X-0.050000X0.387500X-0.050000X0.387500X0.050000X0*%
%ADD44R,3.200000X3.200000*%
%ADD45RoundRect,0.150000X0.587500X0.150000X-0.587500X0.150000X-0.587500X-0.150000X0.587500X-0.150000X0*%
%ADD46RoundRect,0.250000X-0.350000X-0.450000X0.350000X-0.450000X0.350000X0.450000X-0.350000X0.450000X0*%
%ADD47R,1.800000X2.100000*%
%ADD48C,6.400000*%
%ADD49RoundRect,0.250000X-0.325000X-0.650000X0.325000X-0.650000X0.325000X0.650000X-0.325000X0.650000X0*%
%ADD50R,1.524000X6.478000*%
%ADD51R,2.000000X1.500000*%
%ADD52R,2.000000X3.800000*%
%ADD53RoundRect,0.150000X0.150000X0.625000X-0.150000X0.625000X-0.150000X-0.625000X0.150000X-0.625000X0*%
%ADD54RoundRect,0.250000X0.350000X0.650000X-0.350000X0.650000X-0.350000X-0.650000X0.350000X-0.650000X0*%
G04 APERTURE END LIST*
D10*
G36*
X206290415Y-41875928D02*
G01*
X204338991Y-41875928D01*
X204140704Y-41880694D01*
X203967199Y-41893563D01*
X203816579Y-41916921D01*
X203748891Y-41932650D01*
X203685974Y-41951716D01*
X203627823Y-41974118D01*
X203573483Y-41999858D01*
X203522958Y-42029410D01*
X203476246Y-42063253D01*
X203432394Y-42100909D01*
X203391401Y-42142378D01*
X203353270Y-42189090D01*
X203317043Y-42240092D01*
X203250313Y-42357349D01*
X203189299Y-42495578D01*
X203130671Y-42656211D01*
X203072519Y-42841630D01*
X202793201Y-43857381D01*
X202779855Y-43911719D01*
X202770321Y-43963198D01*
X202764601Y-44012770D01*
X202762694Y-44059482D01*
X202764125Y-44103812D01*
X202768891Y-44146233D01*
X202776518Y-44185796D01*
X202787005Y-44223928D01*
X202800351Y-44259201D01*
X202815605Y-44293043D01*
X202833717Y-44324503D01*
X202853258Y-44354055D01*
X202874709Y-44381224D01*
X202898064Y-44406964D01*
X202922852Y-44430796D01*
X202948591Y-44453199D01*
X202975282Y-44473219D01*
X203002928Y-44492285D01*
X203031053Y-44508968D01*
X203059650Y-44524697D01*
X203117801Y-44550913D01*
X203174525Y-44571886D01*
X203229340Y-44587616D01*
X203280342Y-44598579D01*
X203325624Y-44604776D01*
X203363755Y-44607159D01*
X204005809Y-44607635D01*
X204387133Y-43258226D01*
X205931019Y-43257750D01*
X205427195Y-45120992D01*
X205059693Y-45115749D01*
X204254146Y-45114796D01*
X203088727Y-45120516D01*
X202929524Y-45120992D01*
X202762218Y-45119086D01*
X202589193Y-45112890D01*
X202413783Y-45100496D01*
X202238850Y-45080000D01*
X202152577Y-45066176D01*
X202067734Y-45049972D01*
X201984794Y-45030905D01*
X201903763Y-45008979D01*
X201825115Y-44983716D01*
X201749805Y-44955116D01*
X201677353Y-44922705D01*
X201608713Y-44886478D01*
X201544364Y-44846439D01*
X201484305Y-44801633D01*
X201429017Y-44752538D01*
X201378966Y-44699154D01*
X201334636Y-44640524D01*
X201296505Y-44576653D01*
X201264569Y-44507538D01*
X201239306Y-44433179D01*
X201221671Y-44352625D01*
X201211184Y-44266350D01*
X201208800Y-44173879D01*
X201214995Y-44075213D01*
X201229773Y-43969872D01*
X201253605Y-43857381D01*
X201602995Y-42524178D01*
X201642080Y-42390238D01*
X201689268Y-42263924D01*
X201744083Y-42144761D01*
X201807002Y-42033224D01*
X201878500Y-41929790D01*
X201959531Y-41834458D01*
X202003860Y-41789653D01*
X202050096Y-41747230D01*
X202099191Y-41706716D01*
X202151147Y-41668582D01*
X202205484Y-41632833D01*
X202262206Y-41598991D01*
X202321788Y-41567531D01*
X202384230Y-41538456D01*
X202449533Y-41511764D01*
X202518172Y-41487930D01*
X202589193Y-41466004D01*
X202663552Y-41446461D01*
X202820847Y-41415003D01*
X202991490Y-41394030D01*
X203175001Y-41383067D01*
X206431982Y-41383067D01*
X206290415Y-41875928D01*
G37*
G36*
X188873203Y-45111460D02*
G01*
X187333609Y-45111460D01*
X188101023Y-42294431D01*
X189643001Y-42294431D01*
X188873203Y-45111460D01*
G37*
G36*
X199164253Y-42289902D02*
G01*
X199337306Y-42296305D01*
X199512805Y-42308878D01*
X199687663Y-42329251D01*
X199773812Y-42342872D01*
X199858678Y-42359112D01*
X199941742Y-42378146D01*
X200022769Y-42400207D01*
X200101234Y-42425469D01*
X200176788Y-42454166D01*
X200249026Y-42486472D01*
X200317652Y-42522677D01*
X200382147Y-42562899D01*
X200442219Y-42607428D01*
X200497400Y-42656440D01*
X200547400Y-42710166D01*
X200591697Y-42768724D01*
X200629998Y-42832462D01*
X200661897Y-42901497D01*
X200686983Y-42976120D01*
X200704854Y-43056448D01*
X200715158Y-43142712D01*
X200717484Y-43235205D01*
X200711489Y-43334043D01*
X200696705Y-43439458D01*
X200672723Y-43551684D01*
X200563524Y-43968979D01*
X200524058Y-44102451D01*
X200477200Y-44228880D01*
X200422485Y-44347974D01*
X200359447Y-44459501D01*
X200287617Y-44563112D01*
X200206650Y-44658632D01*
X200162526Y-44703219D01*
X200116019Y-44745770D01*
X200066948Y-44786108D01*
X200015318Y-44824235D01*
X199961011Y-44860149D01*
X199904081Y-44893794D01*
X199844359Y-44925168D01*
X199781902Y-44954214D01*
X199716593Y-44980931D01*
X199648314Y-45005204D01*
X199577127Y-45027091D01*
X199502909Y-45046532D01*
X199345282Y-45077906D01*
X199174847Y-45099036D01*
X198991317Y-45109746D01*
X198794164Y-45109688D01*
X197706135Y-45109746D01*
X197706135Y-45109805D01*
X197242098Y-45111376D01*
X196930044Y-45113937D01*
X196791216Y-45117255D01*
X196632425Y-45118070D01*
X196464901Y-45116149D01*
X196291963Y-45109746D01*
X196116292Y-45097173D01*
X195941491Y-45076801D01*
X195855285Y-45063179D01*
X195770475Y-45046939D01*
X195687354Y-45027906D01*
X195606386Y-45005844D01*
X195527922Y-44980582D01*
X195452367Y-44951885D01*
X195380072Y-44919580D01*
X195311503Y-44883374D01*
X195246950Y-44843152D01*
X195186937Y-44798623D01*
X195131697Y-44749612D01*
X195081754Y-44695885D01*
X195037459Y-44637328D01*
X194999157Y-44573589D01*
X194967259Y-44504554D01*
X194942171Y-44429931D01*
X194924243Y-44349604D01*
X194913940Y-44263339D01*
X194911612Y-44170846D01*
X194917665Y-44072008D01*
X194919877Y-44056292D01*
X196465424Y-44056292D01*
X196466880Y-44100763D01*
X196471537Y-44142964D01*
X196479220Y-44182895D01*
X196489755Y-44220614D01*
X196502853Y-44256238D01*
X196518393Y-44289766D01*
X196536148Y-44321256D01*
X196555880Y-44350710D01*
X196577477Y-44378301D01*
X196600643Y-44403970D01*
X196625265Y-44427836D01*
X196651051Y-44449897D01*
X196677885Y-44470270D01*
X196705534Y-44488955D01*
X196733823Y-44506010D01*
X196762521Y-44521551D01*
X196820264Y-44548036D01*
X196877365Y-44568874D01*
X196932082Y-44584474D01*
X196982839Y-44595301D01*
X197028125Y-44601704D01*
X197066252Y-44604149D01*
X197661956Y-44616955D01*
X197708055Y-44616955D01*
X197708640Y-44616431D01*
X197787919Y-44616955D01*
X197827208Y-44616955D01*
X198025408Y-44614626D01*
X198197297Y-44608514D01*
X198345262Y-44597630D01*
X198410979Y-44590062D01*
X198471575Y-44580924D01*
X198527339Y-44570039D01*
X198578503Y-44557349D01*
X198625420Y-44542681D01*
X198668379Y-44525975D01*
X198707668Y-44506941D01*
X198743523Y-44485637D01*
X198776238Y-44461829D01*
X198806098Y-44435345D01*
X198833457Y-44406182D01*
X198858545Y-44374110D01*
X198881710Y-44339068D01*
X198903132Y-44300883D01*
X198923155Y-44259439D01*
X198942130Y-44214619D01*
X198977755Y-44114326D01*
X199012446Y-43998898D01*
X199048420Y-43867290D01*
X199133462Y-43551684D01*
X199146851Y-43497492D01*
X199156222Y-43445803D01*
X199161809Y-43396617D01*
X199163729Y-43349759D01*
X199162274Y-43305288D01*
X199157620Y-43263087D01*
X199149934Y-43223156D01*
X199139398Y-43185437D01*
X199126301Y-43149814D01*
X199110760Y-43116286D01*
X199093007Y-43084795D01*
X199073275Y-43055341D01*
X199051680Y-43027751D01*
X199028512Y-43002081D01*
X199003889Y-42978216D01*
X198978046Y-42956155D01*
X198951212Y-42935782D01*
X198923564Y-42917097D01*
X198895332Y-42900042D01*
X198866634Y-42884558D01*
X198808834Y-42858015D01*
X198751790Y-42837177D01*
X198697074Y-42821577D01*
X198646258Y-42810750D01*
X198601030Y-42804347D01*
X198562904Y-42801902D01*
X197920459Y-42801670D01*
X197858000Y-42802077D01*
X197858235Y-42801087D01*
X197799851Y-42801087D01*
X197601710Y-42803299D01*
X197429878Y-42809062D01*
X197282029Y-42819307D01*
X197216370Y-42826525D01*
X197155833Y-42835256D01*
X197100128Y-42845675D01*
X197049022Y-42857899D01*
X197002222Y-42872043D01*
X196959322Y-42888284D01*
X196920148Y-42906736D01*
X196884408Y-42927516D01*
X196851813Y-42950799D01*
X196822010Y-42976702D01*
X196794709Y-43005282D01*
X196769739Y-43036773D01*
X196746688Y-43071291D01*
X196725325Y-43108951D01*
X196705417Y-43149872D01*
X196686559Y-43194227D01*
X196651051Y-43293647D01*
X196616476Y-43408259D01*
X196580619Y-43539227D01*
X196495692Y-43854367D01*
X196482305Y-43908559D01*
X196472934Y-43960248D01*
X196467345Y-44009492D01*
X196465424Y-44056292D01*
X194919877Y-44056292D01*
X194932450Y-43966593D01*
X194956374Y-43854367D01*
X195065631Y-43437072D01*
X195105038Y-43303542D01*
X195151954Y-43177172D01*
X195206670Y-43058077D01*
X195269709Y-42946550D01*
X195341539Y-42842939D01*
X195422506Y-42747420D01*
X195466570Y-42702832D01*
X195513137Y-42660282D01*
X195562206Y-42619943D01*
X195613837Y-42581817D01*
X195668087Y-42545902D01*
X195725015Y-42512258D01*
X195784737Y-42480884D01*
X195847195Y-42451838D01*
X195912563Y-42425120D01*
X195980782Y-42400847D01*
X196051971Y-42378961D01*
X196126186Y-42359519D01*
X196283873Y-42328145D01*
X196454249Y-42307015D01*
X196637838Y-42296363D01*
X197976921Y-42296363D01*
X197976921Y-42296188D01*
X198419304Y-42294151D01*
X198709472Y-42291939D01*
X198803653Y-42290484D01*
X198837880Y-42288796D01*
X198996730Y-42287981D01*
X199164253Y-42289902D01*
G37*
G36*
X208611725Y-41378776D02*
G01*
X208707532Y-41378776D01*
X208197033Y-43253936D01*
X208197511Y-43253936D01*
X208032588Y-43853091D01*
X208019243Y-43907430D01*
X208010186Y-43958908D01*
X208004464Y-44008003D01*
X208002561Y-44055192D01*
X208003989Y-44099522D01*
X208008754Y-44141944D01*
X208016383Y-44181506D01*
X208026868Y-44219638D01*
X208040214Y-44254911D01*
X208055468Y-44288754D01*
X208073103Y-44320213D01*
X208093124Y-44349288D01*
X208114571Y-44376935D01*
X208137927Y-44402674D01*
X208162238Y-44426507D01*
X208188454Y-44448909D01*
X208215149Y-44468928D01*
X208242793Y-44487519D01*
X208270916Y-44504678D01*
X208299513Y-44520408D01*
X208357190Y-44546623D01*
X208414389Y-44567596D01*
X208469205Y-44583326D01*
X208519730Y-44594289D01*
X208565012Y-44600486D01*
X208603145Y-44602869D01*
X209245673Y-44603346D01*
X209549781Y-43526106D01*
X210133683Y-41382590D01*
X211676137Y-41382590D01*
X211165161Y-43253936D01*
X211170405Y-43253936D01*
X210666583Y-45116703D01*
X210664676Y-45116226D01*
X210658003Y-45115749D01*
X210633692Y-45114796D01*
X210594127Y-45113843D01*
X210541695Y-45113366D01*
X209117454Y-45113366D01*
X209117930Y-45111460D01*
X208559293Y-45113366D01*
X208389602Y-45114796D01*
X208328114Y-45116226D01*
X208169388Y-45116703D01*
X208002082Y-45114796D01*
X207829056Y-45108599D01*
X207653171Y-45095729D01*
X207478716Y-45075710D01*
X207392440Y-45061887D01*
X207307596Y-45045681D01*
X207224660Y-45026615D01*
X207143627Y-45004689D01*
X207064979Y-44979426D01*
X206989668Y-44950827D01*
X206917217Y-44918414D01*
X206848578Y-44882188D01*
X206784229Y-44841673D01*
X206724172Y-44797344D01*
X206668879Y-44748248D01*
X206618831Y-44694863D01*
X206574503Y-44636235D01*
X206536371Y-44572363D01*
X206504433Y-44503248D01*
X206479169Y-44428890D01*
X206461535Y-44348335D01*
X206451050Y-44262060D01*
X206448665Y-44169590D01*
X206454862Y-44070922D01*
X206469637Y-43965105D01*
X206493471Y-43853091D01*
X206842381Y-42519412D01*
X206849531Y-42493672D01*
X206856680Y-42467932D01*
X206864307Y-42442670D01*
X206871934Y-42417407D01*
X206879559Y-42392621D01*
X206888141Y-42368311D01*
X206896720Y-42344003D01*
X206905300Y-42319693D01*
X207160311Y-41382590D01*
X208324778Y-41382590D01*
X208393892Y-41379730D01*
X208464438Y-41377824D01*
X208537365Y-41377824D01*
X208611725Y-41378776D01*
G37*
G36*
X186490940Y-41377824D02*
G01*
X186642992Y-41384021D01*
X186779792Y-41395937D01*
X186902770Y-41413573D01*
X187010970Y-41437881D01*
X187105348Y-41468865D01*
X187147769Y-41486978D01*
X187186379Y-41506997D01*
X187221651Y-41528446D01*
X187253587Y-41552279D01*
X187282186Y-41577541D01*
X187307926Y-41605188D01*
X187329852Y-41634740D01*
X187348918Y-41666199D01*
X187365124Y-41700042D01*
X187377994Y-41735790D01*
X187387526Y-41773447D01*
X187394200Y-41813486D01*
X187398014Y-41855908D01*
X187398490Y-41900714D01*
X187391340Y-41996522D01*
X187372274Y-42102339D01*
X187136331Y-42964130D01*
X187122984Y-43017038D01*
X187105824Y-43066611D01*
X187085805Y-43112846D01*
X187062449Y-43156699D01*
X187036233Y-43197690D01*
X187007634Y-43235823D01*
X186976174Y-43271573D01*
X186942331Y-43304938D01*
X186906583Y-43335444D01*
X186868450Y-43364044D01*
X186827935Y-43390260D01*
X186785989Y-43414092D01*
X186742613Y-43436018D01*
X186697332Y-43456037D01*
X186651096Y-43474628D01*
X186603431Y-43490833D01*
X186554812Y-43505609D01*
X186505240Y-43518479D01*
X186404189Y-43540405D01*
X186301232Y-43557089D01*
X186197797Y-43569482D01*
X186094840Y-43577585D01*
X185993789Y-43582828D01*
X185802651Y-43587118D01*
X185804080Y-43590454D01*
X184407006Y-43590454D01*
X184285459Y-43256796D01*
X185044293Y-43258226D01*
X185125324Y-43254890D01*
X185164887Y-43252506D01*
X185203972Y-43248216D01*
X185242105Y-43242496D01*
X185279284Y-43234394D01*
X185315986Y-43223430D01*
X185333623Y-43216757D01*
X185351258Y-43209130D01*
X185368418Y-43200550D01*
X185385578Y-43191017D01*
X185402737Y-43180532D01*
X185418943Y-43169092D01*
X185435150Y-43156699D01*
X185451356Y-43142399D01*
X185466609Y-43127146D01*
X185481862Y-43110940D01*
X185497115Y-43092826D01*
X185511414Y-43073760D01*
X185525715Y-43052788D01*
X185539537Y-43030385D01*
X185553360Y-43006076D01*
X185566230Y-42980336D01*
X185579099Y-42953168D01*
X185591492Y-42924091D01*
X185796454Y-42217689D01*
X185812660Y-42169546D01*
X185819333Y-42147144D01*
X185825053Y-42125695D01*
X185829343Y-42105198D01*
X185832203Y-42085655D01*
X185834110Y-42067066D01*
X185834586Y-42049906D01*
X185833633Y-42032748D01*
X185831726Y-42017018D01*
X185827913Y-42002241D01*
X185823146Y-41988418D01*
X185816473Y-41975072D01*
X185808370Y-41962678D01*
X185798360Y-41951238D01*
X185786921Y-41940752D01*
X185773575Y-41930743D01*
X185758799Y-41921686D01*
X185742115Y-41913584D01*
X185723526Y-41905957D01*
X185702553Y-41899284D01*
X185680151Y-41893087D01*
X185655841Y-41887844D01*
X185629148Y-41883077D01*
X185600549Y-41879264D01*
X185569567Y-41875928D01*
X185536677Y-41873544D01*
X185501405Y-41871637D01*
X185423710Y-41869731D01*
X185336482Y-41870207D01*
X184602434Y-41871637D01*
X183725389Y-45114796D01*
X182180552Y-45114796D01*
X183193443Y-41381637D01*
X186141075Y-41381637D01*
X186323635Y-41377347D01*
X186490940Y-41377824D01*
G37*
G36*
X189756921Y-41876880D02*
G01*
X188214466Y-41876880D01*
X188349836Y-41381160D01*
X189892291Y-41381160D01*
X189756921Y-41876880D01*
G37*
G36*
X216619520Y-41374963D02*
G01*
X216473188Y-41870685D01*
X214290587Y-41871637D01*
X214247689Y-41871637D01*
X214206698Y-41873067D01*
X214168563Y-41874974D01*
X214132338Y-41877358D01*
X214098020Y-41881171D01*
X214065606Y-41885461D01*
X214035578Y-41890227D01*
X214007454Y-41895947D01*
X213981239Y-41902620D01*
X213956452Y-41909770D01*
X213933574Y-41917397D01*
X213912123Y-41925500D01*
X213892103Y-41934556D01*
X213873992Y-41943612D01*
X213857308Y-41953622D01*
X213841581Y-41964108D01*
X213827280Y-41975072D01*
X213813933Y-41986512D01*
X213802016Y-41998428D01*
X213791052Y-42010344D01*
X213781045Y-42022737D01*
X213771985Y-42035607D01*
X213763884Y-42048952D01*
X213756258Y-42062299D01*
X213749584Y-42076123D01*
X213743390Y-42089945D01*
X213732427Y-42118545D01*
X213722893Y-42147620D01*
X213714789Y-42177173D01*
X213608015Y-42559926D01*
X213600392Y-42589956D01*
X213594672Y-42619032D01*
X213589905Y-42646202D01*
X213587041Y-42671941D01*
X213585138Y-42696727D01*
X213585138Y-42719607D01*
X213586568Y-42741533D01*
X213588955Y-42762505D01*
X213592761Y-42781571D01*
X213598005Y-42800160D01*
X213604682Y-42817321D01*
X213612782Y-42833050D01*
X213621843Y-42847827D01*
X213632326Y-42862126D01*
X213644243Y-42874995D01*
X213657114Y-42886912D01*
X213671414Y-42897875D01*
X213686665Y-42907884D01*
X213703349Y-42916941D01*
X213721460Y-42925521D01*
X213740050Y-42933148D01*
X213760068Y-42940298D01*
X213803446Y-42951738D01*
X213851111Y-42960794D01*
X213903066Y-42967944D01*
X213959315Y-42972710D01*
X214018894Y-42976046D01*
X214219088Y-42973187D01*
X214659041Y-42973663D01*
X215297758Y-42976046D01*
X215348757Y-42974139D01*
X215398332Y-42974616D01*
X215446474Y-42976046D01*
X215492709Y-42979859D01*
X215537990Y-42985103D01*
X215581372Y-42991776D01*
X215623790Y-43000355D01*
X215663832Y-43010842D01*
X215702436Y-43022759D01*
X215739614Y-43036105D01*
X215774412Y-43051835D01*
X215807780Y-43068994D01*
X215839242Y-43087583D01*
X215868313Y-43108079D01*
X215895960Y-43130483D01*
X215921225Y-43154315D01*
X215944575Y-43180054D01*
X215966026Y-43207700D01*
X215984617Y-43236777D01*
X216001774Y-43267760D01*
X216016075Y-43300171D01*
X216027995Y-43334491D01*
X216038006Y-43370717D01*
X216045156Y-43408372D01*
X216049919Y-43448411D01*
X216052303Y-43489403D01*
X216052303Y-43532779D01*
X216049443Y-43577585D01*
X216043722Y-43624296D01*
X216035619Y-43672439D01*
X216024658Y-43722964D01*
X216010831Y-43774920D01*
X215818264Y-44477032D01*
X215803964Y-44521837D01*
X215787286Y-44564259D01*
X215768692Y-44605252D01*
X215748198Y-44643860D01*
X215725794Y-44681040D01*
X215701486Y-44716313D01*
X215675269Y-44749678D01*
X215647628Y-44781137D01*
X215618547Y-44811167D01*
X215588042Y-44839766D01*
X215556108Y-44866459D01*
X215522740Y-44891722D01*
X215452674Y-44937480D01*
X215379264Y-44977042D01*
X215302522Y-45011362D01*
X215222922Y-45039961D01*
X215142369Y-45063794D01*
X215060859Y-45082859D01*
X214978876Y-45097160D01*
X214897843Y-45107646D01*
X214818244Y-45113843D01*
X214740551Y-45116703D01*
X211352488Y-45116703D01*
X211483570Y-44604776D01*
X213764361Y-44606683D01*
X213816793Y-44604299D01*
X213866845Y-44599532D01*
X213914030Y-44591906D01*
X213936908Y-44587139D01*
X213958835Y-44581896D01*
X213980286Y-44575699D01*
X214001260Y-44569026D01*
X214021754Y-44561399D01*
X214041298Y-44552820D01*
X214060842Y-44543764D01*
X214079430Y-44533754D01*
X214097540Y-44523267D01*
X214115654Y-44511828D01*
X214132818Y-44499435D01*
X214149495Y-44486089D01*
X214166179Y-44471788D01*
X214181910Y-44456536D01*
X214197641Y-44440805D01*
X214212418Y-44423646D01*
X214227192Y-44406010D01*
X214241492Y-44386944D01*
X214255789Y-44366925D01*
X214269137Y-44346428D01*
X214295351Y-44301623D01*
X214320615Y-44252528D01*
X214344449Y-44199142D01*
X214439303Y-43864054D01*
X214454553Y-43817818D01*
X214460274Y-43795416D01*
X214465040Y-43773490D01*
X214468857Y-43752040D01*
X214471717Y-43731068D01*
X214473147Y-43710571D01*
X214473147Y-43691028D01*
X214472671Y-43671486D01*
X214470287Y-43653373D01*
X214467427Y-43635260D01*
X214462660Y-43618100D01*
X214456940Y-43601417D01*
X214450267Y-43585688D01*
X214442163Y-43570912D01*
X214432629Y-43556612D01*
X214421666Y-43543265D01*
X214409752Y-43530395D01*
X214396408Y-43518479D01*
X214381627Y-43507516D01*
X214365423Y-43497507D01*
X214347783Y-43488450D01*
X214329195Y-43480347D01*
X214308698Y-43472721D01*
X214287251Y-43466525D01*
X214263896Y-43461281D01*
X214239585Y-43456991D01*
X214213368Y-43453654D01*
X214186200Y-43451272D01*
X214157122Y-43450318D01*
X214126618Y-43450318D01*
X214094680Y-43451748D01*
X213572744Y-43453654D01*
X213214777Y-43453178D01*
X213053191Y-43451272D01*
X212698082Y-43451748D01*
X212595604Y-43446505D01*
X212493597Y-43434589D01*
X212443552Y-43426008D01*
X212393977Y-43415045D01*
X212346315Y-43401222D01*
X212300080Y-43384540D01*
X212256225Y-43364520D01*
X212214757Y-43341640D01*
X212175669Y-43314471D01*
X212139921Y-43283965D01*
X212107510Y-43248693D01*
X212078912Y-43209607D01*
X212054124Y-43165279D01*
X212034107Y-43116183D01*
X212018850Y-43062322D01*
X212008366Y-43002262D01*
X212003599Y-42936961D01*
X212004549Y-42865463D01*
X212011703Y-42787768D01*
X212025047Y-42703400D01*
X212045541Y-42612359D01*
X212072712Y-42514168D01*
X212239068Y-41878787D01*
X212262895Y-41828262D01*
X212289116Y-41781550D01*
X212317237Y-41737697D01*
X212347265Y-41697182D01*
X212379203Y-41660002D01*
X212413044Y-41625684D01*
X212448792Y-41593748D01*
X212486450Y-41565149D01*
X212526489Y-41538932D01*
X212568433Y-41515100D01*
X212657567Y-41474584D01*
X212755284Y-41442648D01*
X212861101Y-41417862D01*
X212975022Y-41399750D01*
X213097043Y-41387357D01*
X213227171Y-41379254D01*
X213365876Y-41374963D01*
X214005550Y-41374487D01*
X216619520Y-41374963D01*
G37*
G36*
X194671594Y-42788721D02*
G01*
X192720170Y-42788721D01*
X192521881Y-42791104D01*
X192350285Y-42797300D01*
X192202046Y-42808264D01*
X192136267Y-42815891D01*
X192075733Y-42824947D01*
X192019965Y-42835910D01*
X191968962Y-42848303D01*
X191921774Y-42863079D01*
X191878875Y-42879761D01*
X191839788Y-42898828D01*
X191804039Y-42920278D01*
X191771151Y-42944111D01*
X191741120Y-42970327D01*
X191713952Y-42999879D01*
X191688690Y-43031815D01*
X191665810Y-43066611D01*
X191644360Y-43105220D01*
X191624341Y-43146212D01*
X191605274Y-43191494D01*
X191569526Y-43291591D01*
X191534730Y-43406942D01*
X191498980Y-43538499D01*
X191414136Y-43854044D01*
X191400789Y-43908383D01*
X191391256Y-43959862D01*
X191385537Y-44009434D01*
X191383630Y-44056146D01*
X191385060Y-44100475D01*
X191389826Y-44142896D01*
X191397453Y-44182936D01*
X191407940Y-44220591D01*
X191421286Y-44255864D01*
X191436538Y-44289707D01*
X191454651Y-44321166D01*
X191474194Y-44350718D01*
X191495644Y-44378365D01*
X191519000Y-44403627D01*
X191543786Y-44427459D01*
X191569526Y-44449862D01*
X191596218Y-44470358D01*
X191623864Y-44488949D01*
X191651987Y-44506108D01*
X191680586Y-44521360D01*
X191738738Y-44548053D01*
X191795460Y-44568550D01*
X191850274Y-44584279D01*
X191901277Y-44595243D01*
X191946560Y-44601439D01*
X191984692Y-44603822D01*
X192626745Y-44604299D01*
X194171107Y-44603822D01*
X194048129Y-45117656D01*
X193680629Y-45112412D01*
X192875559Y-45111936D01*
X191709662Y-45117179D01*
X191550459Y-45118133D01*
X191383154Y-45115749D01*
X191210128Y-45109553D01*
X191034719Y-45097160D01*
X190859787Y-45076664D01*
X190773513Y-45062840D01*
X190688668Y-45046634D01*
X190605730Y-45027568D01*
X190524698Y-45005642D01*
X190446051Y-44980379D01*
X190370739Y-44951780D01*
X190298288Y-44919368D01*
X190229649Y-44883142D01*
X190165301Y-44843103D01*
X190105242Y-44798297D01*
X190049951Y-44749678D01*
X189999901Y-44695817D01*
X189955573Y-44637187D01*
X189917441Y-44573317D01*
X189885505Y-44504202D01*
X189860241Y-44429843D01*
X189842606Y-44349288D01*
X189832119Y-44263014D01*
X189829737Y-44170543D01*
X189835932Y-44071876D01*
X189850708Y-43966535D01*
X189874543Y-43854044D01*
X189984173Y-43436971D01*
X190023257Y-43303508D01*
X190070447Y-43176718D01*
X190124785Y-43058031D01*
X190188180Y-42946494D01*
X190259678Y-42842584D01*
X190340710Y-42747252D01*
X190385038Y-42702446D01*
X190431274Y-42660024D01*
X190480369Y-42619509D01*
X190532325Y-42581376D01*
X190586663Y-42545627D01*
X190643385Y-42511785D01*
X190702968Y-42480802D01*
X190765409Y-42451726D01*
X190830711Y-42425034D01*
X190899350Y-42400724D01*
X190970371Y-42378798D01*
X191044729Y-42359255D01*
X191202024Y-42327797D01*
X191372667Y-42306823D01*
X191556179Y-42296337D01*
X194813161Y-42296337D01*
X194671594Y-42788721D01*
G37*
D11*
X197740000Y-136414300D02*
X116460000Y-136414300D01*
X116460000Y-129111800D01*
X197740000Y-129111800D01*
X197740000Y-136414300D01*
G36*
X197740000Y-136414300D02*
G01*
X116460000Y-136414300D01*
X116460000Y-129111800D01*
X197740000Y-129111800D01*
X197740000Y-136414300D01*
G37*
D12*
X196841800Y-126382600D03*
X196841800Y-122232600D03*
X198991800Y-126382600D03*
X198991800Y-122232600D03*
D13*
X135509000Y-124079000D03*
D14*
X135509000Y-121539000D03*
X138049000Y-124079000D03*
X138049000Y-121539000D03*
X140589000Y-124079000D03*
X140589000Y-121539000D03*
X143129000Y-124079000D03*
X143129000Y-121539000D03*
X145669000Y-124079000D03*
X145669000Y-121539000D03*
X148209000Y-124079000D03*
X148209000Y-121539000D03*
X150749000Y-124079000D03*
X150749000Y-121539000D03*
X153289000Y-124079000D03*
X153289000Y-121539000D03*
X155829000Y-124079000D03*
X155829000Y-121539000D03*
D15*
X197104000Y-87702300D03*
X197104000Y-85627300D03*
D16*
X185289100Y-65100200D03*
X183214100Y-65100200D03*
D15*
X183134000Y-63115100D03*
X183134000Y-61040100D03*
D17*
X207575000Y-81690000D03*
X205575000Y-81690000D03*
D16*
X184755700Y-109397800D03*
X182680700Y-109397800D03*
D18*
X179044600Y-63052200D03*
X179044600Y-61052200D03*
D16*
X184730300Y-105232200D03*
X182655300Y-105232200D03*
D19*
X173634400Y-72018000D03*
X173634400Y-69968000D03*
D17*
X203615800Y-56388000D03*
X201615800Y-56388000D03*
D20*
X166364200Y-95333900D03*
X165714200Y-95333900D03*
X165064200Y-95333900D03*
X164414200Y-95333900D03*
X163764200Y-95333900D03*
X163114200Y-95333900D03*
X162464200Y-95333900D03*
X162464200Y-101058900D03*
X163114200Y-101058900D03*
X163764200Y-101058900D03*
X164414200Y-101058900D03*
X165064200Y-101058900D03*
X165714200Y-101058900D03*
X166364200Y-101058900D03*
D21*
X188400000Y-56300000D03*
X192000000Y-56300000D03*
D22*
X206612500Y-121200000D03*
X209587500Y-121200000D03*
D23*
X203485000Y-123969000D03*
X207485000Y-123969000D03*
D24*
X204185000Y-123669000D03*
X204835000Y-123669000D03*
X205485000Y-123669000D03*
X206135000Y-123669000D03*
X206785000Y-123669000D03*
D25*
X202165400Y-123769000D03*
D26*
X202655000Y-126319000D03*
X208315000Y-126319000D03*
D27*
X208804600Y-123765600D03*
D28*
X193232800Y-115864600D03*
X192582800Y-115864600D03*
X191932800Y-115864600D03*
X191932800Y-117764600D03*
X192582800Y-117764600D03*
X193232800Y-117764600D03*
D29*
X195148200Y-85993200D03*
X193878200Y-85993200D03*
X192608200Y-85993200D03*
X191338200Y-85993200D03*
X191338200Y-90943200D03*
X192608200Y-90943200D03*
X193878200Y-90943200D03*
X195148200Y-90943200D03*
D15*
X205700000Y-100537500D03*
X205700000Y-98462500D03*
X186461400Y-69947700D03*
X186461400Y-67872700D03*
D30*
X179019200Y-92459900D03*
X179019200Y-94534900D03*
D31*
X192975000Y-122300000D03*
X190025000Y-122300000D03*
D30*
X179019200Y-101121300D03*
X179019200Y-103196300D03*
D32*
X158200000Y-124200000D03*
X158200000Y-126200000D03*
D15*
X176603600Y-70122300D03*
X176603600Y-68047300D03*
X186209800Y-77113700D03*
X186209800Y-75038700D03*
D13*
X184900000Y-117625000D03*
D14*
X184900000Y-120165000D03*
D33*
X210200000Y-77790000D03*
X212000000Y-75790000D03*
X218100000Y-75790000D03*
X215700000Y-77790000D03*
X206500000Y-75790000D03*
D34*
X203530200Y-115386800D03*
X203530200Y-117886800D03*
D30*
X197383400Y-115802500D03*
X197383400Y-117877500D03*
D35*
X208612200Y-114785000D03*
X208612200Y-112285000D03*
X208612200Y-110285000D03*
X208612200Y-107785000D03*
D36*
X211322200Y-118285000D03*
X211322200Y-104285000D03*
D37*
X201701400Y-90278400D03*
X200431400Y-90278400D03*
X199161400Y-90278400D03*
X197891400Y-90278400D03*
X197891400Y-97478400D03*
X199161400Y-97478400D03*
X200431400Y-97478400D03*
X201701400Y-97478400D03*
D20*
X184128600Y-69197300D03*
X183478600Y-69197300D03*
X182828600Y-69197300D03*
X182178600Y-69197300D03*
X181528600Y-69197300D03*
X180878600Y-69197300D03*
X180228600Y-69197300D03*
X179578600Y-69197300D03*
X178928600Y-69197300D03*
X178278600Y-69197300D03*
X178278600Y-74922300D03*
X178928600Y-74922300D03*
X179578600Y-74922300D03*
X180228600Y-74922300D03*
X180878600Y-74922300D03*
X181528600Y-74922300D03*
X182178600Y-74922300D03*
X182828600Y-74922300D03*
X183478600Y-74922300D03*
X184128600Y-74922300D03*
D38*
X209550000Y-81690000D03*
X211600000Y-81690000D03*
D21*
X195300000Y-56300000D03*
X198900000Y-56300000D03*
X175095000Y-51900000D03*
X178695000Y-51900000D03*
D18*
X179019200Y-90611200D03*
X179019200Y-88611200D03*
D16*
X166264500Y-92786200D03*
X164189500Y-92786200D03*
D39*
X182604500Y-97256600D03*
X184679500Y-97256600D03*
D20*
X166338800Y-84564300D03*
X165688800Y-84564300D03*
X165038800Y-84564300D03*
X164388800Y-84564300D03*
X163738800Y-84564300D03*
X163088800Y-84564300D03*
X162438800Y-84564300D03*
X162438800Y-90289300D03*
X163088800Y-90289300D03*
X163738800Y-90289300D03*
X164388800Y-90289300D03*
X165038800Y-90289300D03*
X165688800Y-90289300D03*
X166338800Y-90289300D03*
X177100000Y-105875000D03*
X176450000Y-105875000D03*
X175800000Y-105875000D03*
X175150000Y-105875000D03*
X174500000Y-105875000D03*
X173850000Y-105875000D03*
X173200000Y-105875000D03*
X172550000Y-105875000D03*
X171900000Y-105875000D03*
X171250000Y-105875000D03*
X171250000Y-111600000D03*
X171900000Y-111600000D03*
X172550000Y-111600000D03*
X173200000Y-111600000D03*
X173850000Y-111600000D03*
X174500000Y-111600000D03*
X175150000Y-111600000D03*
X175800000Y-111600000D03*
X176450000Y-111600000D03*
X177100000Y-111600000D03*
D32*
X201479500Y-119008000D03*
X201479500Y-121008000D03*
D20*
X166350000Y-105900000D03*
X165700000Y-105900000D03*
X165050000Y-105900000D03*
X164400000Y-105900000D03*
X163750000Y-105900000D03*
X163100000Y-105900000D03*
X162450000Y-105900000D03*
X162450000Y-111625000D03*
X163100000Y-111625000D03*
X163750000Y-111625000D03*
X164400000Y-111625000D03*
X165050000Y-111625000D03*
X165700000Y-111625000D03*
X166350000Y-111625000D03*
D31*
X215475000Y-92900000D03*
X212525000Y-92900000D03*
D40*
X162000000Y-44260000D03*
X162000000Y-123000000D03*
D41*
X155650000Y-44260000D03*
D14*
X155650000Y-46800000D03*
X153110000Y-44260000D03*
X153110000Y-46800000D03*
X150570000Y-44260000D03*
X150570000Y-46800000D03*
X148030000Y-44260000D03*
X148030000Y-46800000D03*
X145490000Y-44260000D03*
X145490000Y-46800000D03*
X142950000Y-44260000D03*
X142950000Y-46800000D03*
X140410000Y-44260000D03*
X140410000Y-46800000D03*
X137870000Y-44260000D03*
X137870000Y-46800000D03*
X135330000Y-44260000D03*
X135330000Y-46800000D03*
X132790000Y-44260000D03*
X132790000Y-46800000D03*
X130250000Y-44260000D03*
X130250000Y-46800000D03*
X127710000Y-44260000D03*
X127710000Y-46800000D03*
X125170000Y-44260000D03*
X125170000Y-46800000D03*
D20*
X177075000Y-87137500D03*
X176425000Y-87137500D03*
X175775000Y-87137500D03*
X175125000Y-87137500D03*
X174475000Y-87137500D03*
X173825000Y-87137500D03*
X173175000Y-87137500D03*
X172525000Y-87137500D03*
X172525000Y-92862500D03*
X173175000Y-92862500D03*
X173825000Y-92862500D03*
X174475000Y-92862500D03*
X175125000Y-92862500D03*
X175775000Y-92862500D03*
X176425000Y-92862500D03*
X177075000Y-92862500D03*
D42*
X194662500Y-104862500D03*
X194262500Y-104862500D03*
X193862500Y-104862500D03*
X193462500Y-104862500D03*
X193062500Y-104862500D03*
X192662500Y-104862500D03*
X192262500Y-104862500D03*
X191862500Y-104862500D03*
X191462500Y-104862500D03*
X191062500Y-104862500D03*
X190662500Y-104862500D03*
X190262500Y-104862500D03*
X189862500Y-104862500D03*
X189462500Y-104862500D03*
D43*
X188625000Y-105700000D03*
X188625000Y-106100000D03*
X188625000Y-106500000D03*
X188625000Y-106900000D03*
X188625000Y-107300000D03*
X188625000Y-107700000D03*
X188625000Y-108100000D03*
X188625000Y-108500000D03*
X188625000Y-108900000D03*
X188625000Y-109300000D03*
X188625000Y-109700000D03*
X188625000Y-110100000D03*
X188625000Y-110500000D03*
X188625000Y-110900000D03*
D42*
X189462500Y-111737500D03*
X189862500Y-111737500D03*
X190262500Y-111737500D03*
X190662500Y-111737500D03*
X191062500Y-111737500D03*
X191462500Y-111737500D03*
X191862500Y-111737500D03*
X192262500Y-111737500D03*
X192662500Y-111737500D03*
X193062500Y-111737500D03*
X193462500Y-111737500D03*
X193862500Y-111737500D03*
X194262500Y-111737500D03*
X194662500Y-111737500D03*
D43*
X195500000Y-110900000D03*
X195500000Y-110500000D03*
X195500000Y-110100000D03*
X195500000Y-109700000D03*
X195500000Y-109300000D03*
X195500000Y-108900000D03*
X195500000Y-108500000D03*
X195500000Y-108100000D03*
X195500000Y-107700000D03*
X195500000Y-107300000D03*
X195500000Y-106900000D03*
X195500000Y-106500000D03*
X195500000Y-106100000D03*
X195500000Y-105700000D03*
D44*
X192062500Y-108300000D03*
D15*
X190373000Y-98903700D03*
X190373000Y-96828700D03*
D16*
X178126300Y-113995200D03*
X176051300Y-113995200D03*
D45*
X201422000Y-117246400D03*
X201422000Y-115346400D03*
X199547000Y-116296400D03*
D46*
X201615800Y-54381400D03*
X203615800Y-54381400D03*
D16*
X193696500Y-119811800D03*
X191621500Y-119811800D03*
D18*
X177038000Y-63052200D03*
X177038000Y-61052200D03*
D16*
X166264500Y-103479600D03*
X164189500Y-103479600D03*
D47*
X182923800Y-99769000D03*
X182923800Y-102669000D03*
X185223800Y-102669000D03*
X185223800Y-99769000D03*
D15*
X195402200Y-100935700D03*
X195402200Y-98860700D03*
D32*
X157632400Y-99457000D03*
X157632400Y-101457000D03*
D33*
X210200000Y-60940000D03*
X212000000Y-58940000D03*
X218100000Y-58940000D03*
X215700000Y-60940000D03*
X206500000Y-58940000D03*
D15*
X205700000Y-96937500D03*
X205700000Y-94862500D03*
D48*
X215658700Y-124008000D03*
D49*
X188491600Y-51079400D03*
X191441600Y-51079400D03*
D15*
X181076600Y-63115100D03*
X181076600Y-61040100D03*
D30*
X182933200Y-77350100D03*
X182933200Y-79425100D03*
D17*
X203768200Y-111480600D03*
X201768200Y-111480600D03*
D29*
X185537400Y-51160310D03*
X184267400Y-51160310D03*
X182997400Y-51160310D03*
X181727400Y-51160310D03*
X181727400Y-56110310D03*
X182997400Y-56110310D03*
X184267400Y-56110310D03*
X185537400Y-56110310D03*
D46*
X205575000Y-83590000D03*
X207575000Y-83590000D03*
D38*
X209550000Y-83590000D03*
X211600000Y-83590000D03*
D21*
X188400000Y-61400000D03*
X192000000Y-61400000D03*
D50*
X195200000Y-132300000D03*
X192660000Y-132300000D03*
X190120000Y-132300000D03*
X187580000Y-132300000D03*
X185040000Y-132300000D03*
X182500000Y-132300000D03*
X179960000Y-132300000D03*
X177420000Y-132300000D03*
X174880000Y-132300000D03*
X172340000Y-132300000D03*
X169800000Y-132300000D03*
X167260000Y-132300000D03*
X164720000Y-132300000D03*
X162180000Y-132300000D03*
X159640000Y-132300000D03*
X157100000Y-132300000D03*
X154560000Y-132300000D03*
X152020000Y-132300000D03*
X149480000Y-132300000D03*
X146940000Y-132300000D03*
X144400000Y-132300000D03*
X141860000Y-132300000D03*
X139320000Y-132300000D03*
X136780000Y-132300000D03*
X134240000Y-132300000D03*
X131700000Y-132300000D03*
X129160000Y-132300000D03*
X126620000Y-132300000D03*
X124080000Y-132300000D03*
X121540000Y-132300000D03*
X119000000Y-132300000D03*
D30*
X195300600Y-115827900D03*
X195300600Y-117902900D03*
D32*
X187604400Y-100904800D03*
X187604400Y-102904800D03*
D30*
X190195200Y-114253100D03*
X190195200Y-116328100D03*
D21*
X178695000Y-57000000D03*
X175095000Y-57000000D03*
D16*
X183841300Y-58394600D03*
X181766300Y-58394600D03*
D30*
X187807600Y-114329300D03*
X187807600Y-116404300D03*
D46*
X201641200Y-63271400D03*
X203641200Y-63271400D03*
D51*
X208750000Y-95600000D03*
X208750000Y-97900000D03*
D52*
X215050000Y-97900000D03*
D51*
X208750000Y-100200000D03*
D38*
X173803200Y-44500000D03*
X175853200Y-44500000D03*
D39*
X199571700Y-106019600D03*
X201646700Y-106019600D03*
X198454100Y-107975400D03*
X200529100Y-107975400D03*
D46*
X173828200Y-46990000D03*
X175828200Y-46990000D03*
D38*
X170912500Y-60900000D03*
X172962500Y-60900000D03*
D21*
X195300000Y-61400000D03*
X198900000Y-61400000D03*
D16*
X166137500Y-113919000D03*
X164062500Y-113919000D03*
X203018300Y-104063800D03*
X200943300Y-104063800D03*
D20*
X177075000Y-96437500D03*
X176425000Y-96437500D03*
X175775000Y-96437500D03*
X175125000Y-96437500D03*
X174475000Y-96437500D03*
X173825000Y-96437500D03*
X173175000Y-96437500D03*
X172525000Y-96437500D03*
X172525000Y-102162500D03*
X173175000Y-102162500D03*
X173825000Y-102162500D03*
X174475000Y-102162500D03*
X175125000Y-102162500D03*
X175775000Y-102162500D03*
X176425000Y-102162500D03*
X177075000Y-102162500D03*
D53*
X183499000Y-111832000D03*
X182499000Y-111832000D03*
X181499000Y-111832000D03*
D54*
X184799000Y-114357000D03*
X180199000Y-114357000D03*
D13*
X181200000Y-117625000D03*
D14*
X181200000Y-120165000D03*
D15*
X185191400Y-63115100D03*
X185191400Y-61040100D03*
D39*
X176991100Y-65074800D03*
X179066100Y-65074800D03*
X197260300Y-111582200D03*
X199335300Y-111582200D03*
D48*
X215658700Y-67493000D03*
D32*
X202996800Y-99888800D03*
X202996800Y-101888800D03*
D17*
X203641200Y-61264800D03*
X201641200Y-61264800D03*
D16*
X184806500Y-107289600D03*
X182731500Y-107289600D03*
D17*
X203742800Y-109474000D03*
X201742800Y-109474000D03*
D30*
X200812400Y-99851300D03*
X200812400Y-101926300D03*
D32*
X177850800Y-116830600D03*
X177850800Y-118830600D03*
D39*
X197234900Y-113588800D03*
X199309900Y-113588800D03*
M02*
