%TF.GenerationSoftware,KiCad,Pcbnew,8.0.8-8.0.8-0~ubuntu24.04.1*%
%TF.CreationDate,2025-01-15T11:24:36+01:00*%
%TF.ProjectId,PicoGUS chipdown,5069636f-4755-4532-9063-686970646f77,rev?*%
%TF.SameCoordinates,Original*%
%TF.FileFunction,Drillmap*%
%TF.FilePolarity,Positive*%
%FSLAX45Y45*%
G04 Gerber Fmt 4.5, Leading zero omitted, Abs format (unit mm)*
G04 Created by KiCad (PCBNEW 8.0.8-8.0.8-0~ubuntu24.04.1) date 2025-01-15 11:24:36*
%MOMM*%
%LPD*%
G01*
G04 APERTURE LIST*
%ADD10C,0.050000*%
%ADD11C,0.200000*%
%ADD12C,0.100000*%
%ADD13C,0.320000*%
G04 APERTURE END LIST*
D10*
X21939250Y-12827000D02*
X19780250Y-12827000D01*
X19780250Y-13430250D01*
X19780250Y-13462000D01*
X19637375Y-13602750D01*
X11795125Y-13604875D01*
X11652250Y-13462000D01*
X11652250Y-12827000D01*
X11652250Y-3931250D01*
X21939250Y-3931250D01*
X21939250Y-12827000D01*
D11*
D12*
X20323500Y-12371900D02*
X20373500Y-12421900D01*
X20373500Y-12371900D02*
X20323500Y-12421900D01*
X20723500Y-12371900D02*
X20773500Y-12421900D01*
X20773500Y-12371900D02*
X20723500Y-12421900D01*
D13*
X16360000Y-4426000D02*
G75*
G02*
X16040000Y-4426000I-160000J0D01*
G01*
X16040000Y-4426000D02*
G75*
G02*
X16360000Y-4426000I160000J0D01*
G01*
X16360000Y-12300000D02*
G75*
G02*
X16040000Y-12300000I-160000J0D01*
G01*
X16040000Y-12300000D02*
G75*
G02*
X16360000Y-12300000I160000J0D01*
G01*
D11*
X11910527Y-13918859D02*
X11910527Y-13718859D01*
X11910527Y-13718859D02*
X11958146Y-13718859D01*
X11958146Y-13718859D02*
X11986717Y-13728383D01*
X11986717Y-13728383D02*
X12005765Y-13747430D01*
X12005765Y-13747430D02*
X12015289Y-13766478D01*
X12015289Y-13766478D02*
X12024812Y-13804573D01*
X12024812Y-13804573D02*
X12024812Y-13833144D01*
X12024812Y-13833144D02*
X12015289Y-13871240D01*
X12015289Y-13871240D02*
X12005765Y-13890287D01*
X12005765Y-13890287D02*
X11986717Y-13909335D01*
X11986717Y-13909335D02*
X11958146Y-13918859D01*
X11958146Y-13918859D02*
X11910527Y-13918859D01*
X12110527Y-13918859D02*
X12110527Y-13785525D01*
X12110527Y-13823621D02*
X12120051Y-13804573D01*
X12120051Y-13804573D02*
X12129574Y-13795049D01*
X12129574Y-13795049D02*
X12148622Y-13785525D01*
X12148622Y-13785525D02*
X12167670Y-13785525D01*
X12234336Y-13918859D02*
X12234336Y-13785525D01*
X12234336Y-13718859D02*
X12224812Y-13728383D01*
X12224812Y-13728383D02*
X12234336Y-13737906D01*
X12234336Y-13737906D02*
X12243860Y-13728383D01*
X12243860Y-13728383D02*
X12234336Y-13718859D01*
X12234336Y-13718859D02*
X12234336Y-13737906D01*
X12358146Y-13918859D02*
X12339098Y-13909335D01*
X12339098Y-13909335D02*
X12329574Y-13890287D01*
X12329574Y-13890287D02*
X12329574Y-13718859D01*
X12462908Y-13918859D02*
X12443860Y-13909335D01*
X12443860Y-13909335D02*
X12434336Y-13890287D01*
X12434336Y-13890287D02*
X12434336Y-13718859D01*
X12691479Y-13918859D02*
X12691479Y-13718859D01*
X12691479Y-13718859D02*
X12758146Y-13861716D01*
X12758146Y-13861716D02*
X12824812Y-13718859D01*
X12824812Y-13718859D02*
X12824812Y-13918859D01*
X13005765Y-13918859D02*
X13005765Y-13814097D01*
X13005765Y-13814097D02*
X12996241Y-13795049D01*
X12996241Y-13795049D02*
X12977193Y-13785525D01*
X12977193Y-13785525D02*
X12939098Y-13785525D01*
X12939098Y-13785525D02*
X12920051Y-13795049D01*
X13005765Y-13909335D02*
X12986717Y-13918859D01*
X12986717Y-13918859D02*
X12939098Y-13918859D01*
X12939098Y-13918859D02*
X12920051Y-13909335D01*
X12920051Y-13909335D02*
X12910527Y-13890287D01*
X12910527Y-13890287D02*
X12910527Y-13871240D01*
X12910527Y-13871240D02*
X12920051Y-13852192D01*
X12920051Y-13852192D02*
X12939098Y-13842668D01*
X12939098Y-13842668D02*
X12986717Y-13842668D01*
X12986717Y-13842668D02*
X13005765Y-13833144D01*
X13101003Y-13785525D02*
X13101003Y-13985525D01*
X13101003Y-13795049D02*
X13120051Y-13785525D01*
X13120051Y-13785525D02*
X13158146Y-13785525D01*
X13158146Y-13785525D02*
X13177193Y-13795049D01*
X13177193Y-13795049D02*
X13186717Y-13804573D01*
X13186717Y-13804573D02*
X13196241Y-13823621D01*
X13196241Y-13823621D02*
X13196241Y-13880763D01*
X13196241Y-13880763D02*
X13186717Y-13899811D01*
X13186717Y-13899811D02*
X13177193Y-13909335D01*
X13177193Y-13909335D02*
X13158146Y-13918859D01*
X13158146Y-13918859D02*
X13120051Y-13918859D01*
X13120051Y-13918859D02*
X13101003Y-13909335D01*
X13281955Y-13899811D02*
X13291479Y-13909335D01*
X13291479Y-13909335D02*
X13281955Y-13918859D01*
X13281955Y-13918859D02*
X13272432Y-13909335D01*
X13272432Y-13909335D02*
X13281955Y-13899811D01*
X13281955Y-13899811D02*
X13281955Y-13918859D01*
X13281955Y-13795049D02*
X13291479Y-13804573D01*
X13291479Y-13804573D02*
X13281955Y-13814097D01*
X13281955Y-13814097D02*
X13272432Y-13804573D01*
X13272432Y-13804573D02*
X13281955Y-13795049D01*
X13281955Y-13795049D02*
X13281955Y-13814097D01*
D12*
X11599750Y-14222375D02*
X11649750Y-14272375D01*
X11649750Y-14222375D02*
X11599750Y-14272375D01*
D11*
X11948622Y-14138859D02*
X11967670Y-14138859D01*
X11967670Y-14138859D02*
X11986717Y-14148383D01*
X11986717Y-14148383D02*
X11996241Y-14157906D01*
X11996241Y-14157906D02*
X12005765Y-14176954D01*
X12005765Y-14176954D02*
X12015289Y-14215049D01*
X12015289Y-14215049D02*
X12015289Y-14262668D01*
X12015289Y-14262668D02*
X12005765Y-14300763D01*
X12005765Y-14300763D02*
X11996241Y-14319811D01*
X11996241Y-14319811D02*
X11986717Y-14329335D01*
X11986717Y-14329335D02*
X11967670Y-14338859D01*
X11967670Y-14338859D02*
X11948622Y-14338859D01*
X11948622Y-14338859D02*
X11929574Y-14329335D01*
X11929574Y-14329335D02*
X11920051Y-14319811D01*
X11920051Y-14319811D02*
X11910527Y-14300763D01*
X11910527Y-14300763D02*
X11901003Y-14262668D01*
X11901003Y-14262668D02*
X11901003Y-14215049D01*
X11901003Y-14215049D02*
X11910527Y-14176954D01*
X11910527Y-14176954D02*
X11920051Y-14157906D01*
X11920051Y-14157906D02*
X11929574Y-14148383D01*
X11929574Y-14148383D02*
X11948622Y-14138859D01*
X12101003Y-14319811D02*
X12110527Y-14329335D01*
X12110527Y-14329335D02*
X12101003Y-14338859D01*
X12101003Y-14338859D02*
X12091479Y-14329335D01*
X12091479Y-14329335D02*
X12101003Y-14319811D01*
X12101003Y-14319811D02*
X12101003Y-14338859D01*
X12291479Y-14138859D02*
X12196241Y-14138859D01*
X12196241Y-14138859D02*
X12186717Y-14234097D01*
X12186717Y-14234097D02*
X12196241Y-14224573D01*
X12196241Y-14224573D02*
X12215289Y-14215049D01*
X12215289Y-14215049D02*
X12262908Y-14215049D01*
X12262908Y-14215049D02*
X12281955Y-14224573D01*
X12281955Y-14224573D02*
X12291479Y-14234097D01*
X12291479Y-14234097D02*
X12301003Y-14253144D01*
X12301003Y-14253144D02*
X12301003Y-14300763D01*
X12301003Y-14300763D02*
X12291479Y-14319811D01*
X12291479Y-14319811D02*
X12281955Y-14329335D01*
X12281955Y-14329335D02*
X12262908Y-14338859D01*
X12262908Y-14338859D02*
X12215289Y-14338859D01*
X12215289Y-14338859D02*
X12196241Y-14329335D01*
X12196241Y-14329335D02*
X12186717Y-14319811D01*
X12424812Y-14138859D02*
X12443860Y-14138859D01*
X12443860Y-14138859D02*
X12462908Y-14148383D01*
X12462908Y-14148383D02*
X12472432Y-14157906D01*
X12472432Y-14157906D02*
X12481955Y-14176954D01*
X12481955Y-14176954D02*
X12491479Y-14215049D01*
X12491479Y-14215049D02*
X12491479Y-14262668D01*
X12491479Y-14262668D02*
X12481955Y-14300763D01*
X12481955Y-14300763D02*
X12472432Y-14319811D01*
X12472432Y-14319811D02*
X12462908Y-14329335D01*
X12462908Y-14329335D02*
X12443860Y-14338859D01*
X12443860Y-14338859D02*
X12424812Y-14338859D01*
X12424812Y-14338859D02*
X12405765Y-14329335D01*
X12405765Y-14329335D02*
X12396241Y-14319811D01*
X12396241Y-14319811D02*
X12386717Y-14300763D01*
X12386717Y-14300763D02*
X12377193Y-14262668D01*
X12377193Y-14262668D02*
X12377193Y-14215049D01*
X12377193Y-14215049D02*
X12386717Y-14176954D01*
X12386717Y-14176954D02*
X12396241Y-14157906D01*
X12396241Y-14157906D02*
X12405765Y-14148383D01*
X12405765Y-14148383D02*
X12424812Y-14138859D01*
X12615289Y-14138859D02*
X12634336Y-14138859D01*
X12634336Y-14138859D02*
X12653384Y-14148383D01*
X12653384Y-14148383D02*
X12662908Y-14157906D01*
X12662908Y-14157906D02*
X12672432Y-14176954D01*
X12672432Y-14176954D02*
X12681955Y-14215049D01*
X12681955Y-14215049D02*
X12681955Y-14262668D01*
X12681955Y-14262668D02*
X12672432Y-14300763D01*
X12672432Y-14300763D02*
X12662908Y-14319811D01*
X12662908Y-14319811D02*
X12653384Y-14329335D01*
X12653384Y-14329335D02*
X12634336Y-14338859D01*
X12634336Y-14338859D02*
X12615289Y-14338859D01*
X12615289Y-14338859D02*
X12596241Y-14329335D01*
X12596241Y-14329335D02*
X12586717Y-14319811D01*
X12586717Y-14319811D02*
X12577193Y-14300763D01*
X12577193Y-14300763D02*
X12567670Y-14262668D01*
X12567670Y-14262668D02*
X12567670Y-14215049D01*
X12567670Y-14215049D02*
X12577193Y-14176954D01*
X12577193Y-14176954D02*
X12586717Y-14157906D01*
X12586717Y-14157906D02*
X12596241Y-14148383D01*
X12596241Y-14148383D02*
X12615289Y-14138859D01*
X12767670Y-14338859D02*
X12767670Y-14205525D01*
X12767670Y-14224573D02*
X12777193Y-14215049D01*
X12777193Y-14215049D02*
X12796241Y-14205525D01*
X12796241Y-14205525D02*
X12824813Y-14205525D01*
X12824813Y-14205525D02*
X12843860Y-14215049D01*
X12843860Y-14215049D02*
X12853384Y-14234097D01*
X12853384Y-14234097D02*
X12853384Y-14338859D01*
X12853384Y-14234097D02*
X12862908Y-14215049D01*
X12862908Y-14215049D02*
X12881955Y-14205525D01*
X12881955Y-14205525D02*
X12910527Y-14205525D01*
X12910527Y-14205525D02*
X12929574Y-14215049D01*
X12929574Y-14215049D02*
X12939098Y-14234097D01*
X12939098Y-14234097D02*
X12939098Y-14338859D01*
X13034336Y-14338859D02*
X13034336Y-14205525D01*
X13034336Y-14224573D02*
X13043860Y-14215049D01*
X13043860Y-14215049D02*
X13062908Y-14205525D01*
X13062908Y-14205525D02*
X13091479Y-14205525D01*
X13091479Y-14205525D02*
X13110527Y-14215049D01*
X13110527Y-14215049D02*
X13120051Y-14234097D01*
X13120051Y-14234097D02*
X13120051Y-14338859D01*
X13120051Y-14234097D02*
X13129574Y-14215049D01*
X13129574Y-14215049D02*
X13148622Y-14205525D01*
X13148622Y-14205525D02*
X13177193Y-14205525D01*
X13177193Y-14205525D02*
X13196241Y-14215049D01*
X13196241Y-14215049D02*
X13205765Y-14234097D01*
X13205765Y-14234097D02*
X13205765Y-14338859D01*
X13596241Y-14129335D02*
X13424813Y-14386478D01*
X13853384Y-14138859D02*
X13872432Y-14138859D01*
X13872432Y-14138859D02*
X13891479Y-14148383D01*
X13891479Y-14148383D02*
X13901003Y-14157906D01*
X13901003Y-14157906D02*
X13910527Y-14176954D01*
X13910527Y-14176954D02*
X13920051Y-14215049D01*
X13920051Y-14215049D02*
X13920051Y-14262668D01*
X13920051Y-14262668D02*
X13910527Y-14300763D01*
X13910527Y-14300763D02*
X13901003Y-14319811D01*
X13901003Y-14319811D02*
X13891479Y-14329335D01*
X13891479Y-14329335D02*
X13872432Y-14338859D01*
X13872432Y-14338859D02*
X13853384Y-14338859D01*
X13853384Y-14338859D02*
X13834336Y-14329335D01*
X13834336Y-14329335D02*
X13824813Y-14319811D01*
X13824813Y-14319811D02*
X13815289Y-14300763D01*
X13815289Y-14300763D02*
X13805765Y-14262668D01*
X13805765Y-14262668D02*
X13805765Y-14215049D01*
X13805765Y-14215049D02*
X13815289Y-14176954D01*
X13815289Y-14176954D02*
X13824813Y-14157906D01*
X13824813Y-14157906D02*
X13834336Y-14148383D01*
X13834336Y-14148383D02*
X13853384Y-14138859D01*
X14005765Y-14319811D02*
X14015289Y-14329335D01*
X14015289Y-14329335D02*
X14005765Y-14338859D01*
X14005765Y-14338859D02*
X13996241Y-14329335D01*
X13996241Y-14329335D02*
X14005765Y-14319811D01*
X14005765Y-14319811D02*
X14005765Y-14338859D01*
X14139098Y-14138859D02*
X14158146Y-14138859D01*
X14158146Y-14138859D02*
X14177194Y-14148383D01*
X14177194Y-14148383D02*
X14186717Y-14157906D01*
X14186717Y-14157906D02*
X14196241Y-14176954D01*
X14196241Y-14176954D02*
X14205765Y-14215049D01*
X14205765Y-14215049D02*
X14205765Y-14262668D01*
X14205765Y-14262668D02*
X14196241Y-14300763D01*
X14196241Y-14300763D02*
X14186717Y-14319811D01*
X14186717Y-14319811D02*
X14177194Y-14329335D01*
X14177194Y-14329335D02*
X14158146Y-14338859D01*
X14158146Y-14338859D02*
X14139098Y-14338859D01*
X14139098Y-14338859D02*
X14120051Y-14329335D01*
X14120051Y-14329335D02*
X14110527Y-14319811D01*
X14110527Y-14319811D02*
X14101003Y-14300763D01*
X14101003Y-14300763D02*
X14091479Y-14262668D01*
X14091479Y-14262668D02*
X14091479Y-14215049D01*
X14091479Y-14215049D02*
X14101003Y-14176954D01*
X14101003Y-14176954D02*
X14110527Y-14157906D01*
X14110527Y-14157906D02*
X14120051Y-14148383D01*
X14120051Y-14148383D02*
X14139098Y-14138859D01*
X14396241Y-14338859D02*
X14281956Y-14338859D01*
X14339098Y-14338859D02*
X14339098Y-14138859D01*
X14339098Y-14138859D02*
X14320051Y-14167430D01*
X14320051Y-14167430D02*
X14301003Y-14186478D01*
X14301003Y-14186478D02*
X14281956Y-14196002D01*
X14491479Y-14338859D02*
X14529575Y-14338859D01*
X14529575Y-14338859D02*
X14548622Y-14329335D01*
X14548622Y-14329335D02*
X14558146Y-14319811D01*
X14558146Y-14319811D02*
X14577194Y-14291240D01*
X14577194Y-14291240D02*
X14586717Y-14253144D01*
X14586717Y-14253144D02*
X14586717Y-14176954D01*
X14586717Y-14176954D02*
X14577194Y-14157906D01*
X14577194Y-14157906D02*
X14567670Y-14148383D01*
X14567670Y-14148383D02*
X14548622Y-14138859D01*
X14548622Y-14138859D02*
X14510527Y-14138859D01*
X14510527Y-14138859D02*
X14491479Y-14148383D01*
X14491479Y-14148383D02*
X14481956Y-14157906D01*
X14481956Y-14157906D02*
X14472432Y-14176954D01*
X14472432Y-14176954D02*
X14472432Y-14224573D01*
X14472432Y-14224573D02*
X14481956Y-14243621D01*
X14481956Y-14243621D02*
X14491479Y-14253144D01*
X14491479Y-14253144D02*
X14510527Y-14262668D01*
X14510527Y-14262668D02*
X14548622Y-14262668D01*
X14548622Y-14262668D02*
X14567670Y-14253144D01*
X14567670Y-14253144D02*
X14577194Y-14243621D01*
X14577194Y-14243621D02*
X14586717Y-14224573D01*
X14653384Y-14138859D02*
X14786717Y-14138859D01*
X14786717Y-14138859D02*
X14701003Y-14338859D01*
X14853384Y-14138859D02*
X14853384Y-14176954D01*
X14929575Y-14138859D02*
X14929575Y-14176954D01*
X15224813Y-14415049D02*
X15215289Y-14405525D01*
X15215289Y-14405525D02*
X15196241Y-14376954D01*
X15196241Y-14376954D02*
X15186718Y-14357906D01*
X15186718Y-14357906D02*
X15177194Y-14329335D01*
X15177194Y-14329335D02*
X15167670Y-14281716D01*
X15167670Y-14281716D02*
X15167670Y-14243621D01*
X15167670Y-14243621D02*
X15177194Y-14196002D01*
X15177194Y-14196002D02*
X15186718Y-14167430D01*
X15186718Y-14167430D02*
X15196241Y-14148383D01*
X15196241Y-14148383D02*
X15215289Y-14119811D01*
X15215289Y-14119811D02*
X15224813Y-14110287D01*
X15291479Y-14157906D02*
X15301003Y-14148383D01*
X15301003Y-14148383D02*
X15320051Y-14138859D01*
X15320051Y-14138859D02*
X15367670Y-14138859D01*
X15367670Y-14138859D02*
X15386718Y-14148383D01*
X15386718Y-14148383D02*
X15396241Y-14157906D01*
X15396241Y-14157906D02*
X15405765Y-14176954D01*
X15405765Y-14176954D02*
X15405765Y-14196002D01*
X15405765Y-14196002D02*
X15396241Y-14224573D01*
X15396241Y-14224573D02*
X15281956Y-14338859D01*
X15281956Y-14338859D02*
X15405765Y-14338859D01*
X15643860Y-14338859D02*
X15643860Y-14138859D01*
X15729575Y-14338859D02*
X15729575Y-14234097D01*
X15729575Y-14234097D02*
X15720051Y-14215049D01*
X15720051Y-14215049D02*
X15701003Y-14205525D01*
X15701003Y-14205525D02*
X15672432Y-14205525D01*
X15672432Y-14205525D02*
X15653384Y-14215049D01*
X15653384Y-14215049D02*
X15643860Y-14224573D01*
X15853384Y-14338859D02*
X15834337Y-14329335D01*
X15834337Y-14329335D02*
X15824813Y-14319811D01*
X15824813Y-14319811D02*
X15815289Y-14300763D01*
X15815289Y-14300763D02*
X15815289Y-14243621D01*
X15815289Y-14243621D02*
X15824813Y-14224573D01*
X15824813Y-14224573D02*
X15834337Y-14215049D01*
X15834337Y-14215049D02*
X15853384Y-14205525D01*
X15853384Y-14205525D02*
X15881956Y-14205525D01*
X15881956Y-14205525D02*
X15901003Y-14215049D01*
X15901003Y-14215049D02*
X15910527Y-14224573D01*
X15910527Y-14224573D02*
X15920051Y-14243621D01*
X15920051Y-14243621D02*
X15920051Y-14300763D01*
X15920051Y-14300763D02*
X15910527Y-14319811D01*
X15910527Y-14319811D02*
X15901003Y-14329335D01*
X15901003Y-14329335D02*
X15881956Y-14338859D01*
X15881956Y-14338859D02*
X15853384Y-14338859D01*
X16034337Y-14338859D02*
X16015289Y-14329335D01*
X16015289Y-14329335D02*
X16005765Y-14310287D01*
X16005765Y-14310287D02*
X16005765Y-14138859D01*
X16186718Y-14329335D02*
X16167670Y-14338859D01*
X16167670Y-14338859D02*
X16129575Y-14338859D01*
X16129575Y-14338859D02*
X16110527Y-14329335D01*
X16110527Y-14329335D02*
X16101003Y-14310287D01*
X16101003Y-14310287D02*
X16101003Y-14234097D01*
X16101003Y-14234097D02*
X16110527Y-14215049D01*
X16110527Y-14215049D02*
X16129575Y-14205525D01*
X16129575Y-14205525D02*
X16167670Y-14205525D01*
X16167670Y-14205525D02*
X16186718Y-14215049D01*
X16186718Y-14215049D02*
X16196241Y-14234097D01*
X16196241Y-14234097D02*
X16196241Y-14253144D01*
X16196241Y-14253144D02*
X16101003Y-14272192D01*
X16272432Y-14329335D02*
X16291480Y-14338859D01*
X16291480Y-14338859D02*
X16329575Y-14338859D01*
X16329575Y-14338859D02*
X16348622Y-14329335D01*
X16348622Y-14329335D02*
X16358146Y-14310287D01*
X16358146Y-14310287D02*
X16358146Y-14300763D01*
X16358146Y-14300763D02*
X16348622Y-14281716D01*
X16348622Y-14281716D02*
X16329575Y-14272192D01*
X16329575Y-14272192D02*
X16301003Y-14272192D01*
X16301003Y-14272192D02*
X16281956Y-14262668D01*
X16281956Y-14262668D02*
X16272432Y-14243621D01*
X16272432Y-14243621D02*
X16272432Y-14234097D01*
X16272432Y-14234097D02*
X16281956Y-14215049D01*
X16281956Y-14215049D02*
X16301003Y-14205525D01*
X16301003Y-14205525D02*
X16329575Y-14205525D01*
X16329575Y-14205525D02*
X16348622Y-14215049D01*
X16424813Y-14415049D02*
X16434337Y-14405525D01*
X16434337Y-14405525D02*
X16453384Y-14376954D01*
X16453384Y-14376954D02*
X16462908Y-14357906D01*
X16462908Y-14357906D02*
X16472432Y-14329335D01*
X16472432Y-14329335D02*
X16481956Y-14281716D01*
X16481956Y-14281716D02*
X16481956Y-14243621D01*
X16481956Y-14243621D02*
X16472432Y-14196002D01*
X16472432Y-14196002D02*
X16462908Y-14167430D01*
X16462908Y-14167430D02*
X16453384Y-14148383D01*
X16453384Y-14148383D02*
X16434337Y-14119811D01*
X16434337Y-14119811D02*
X16424813Y-14110287D01*
X16786718Y-14415049D02*
X16777194Y-14405525D01*
X16777194Y-14405525D02*
X16758146Y-14376954D01*
X16758146Y-14376954D02*
X16748622Y-14357906D01*
X16748622Y-14357906D02*
X16739099Y-14329335D01*
X16739099Y-14329335D02*
X16729575Y-14281716D01*
X16729575Y-14281716D02*
X16729575Y-14243621D01*
X16729575Y-14243621D02*
X16739099Y-14196002D01*
X16739099Y-14196002D02*
X16748622Y-14167430D01*
X16748622Y-14167430D02*
X16758146Y-14148383D01*
X16758146Y-14148383D02*
X16777194Y-14119811D01*
X16777194Y-14119811D02*
X16786718Y-14110287D01*
X16862908Y-14205525D02*
X16862908Y-14338859D01*
X16862908Y-14224573D02*
X16872432Y-14215049D01*
X16872432Y-14215049D02*
X16891480Y-14205525D01*
X16891480Y-14205525D02*
X16920051Y-14205525D01*
X16920051Y-14205525D02*
X16939099Y-14215049D01*
X16939099Y-14215049D02*
X16948623Y-14234097D01*
X16948623Y-14234097D02*
X16948623Y-14338859D01*
X17072432Y-14338859D02*
X17053384Y-14329335D01*
X17053384Y-14329335D02*
X17043861Y-14319811D01*
X17043861Y-14319811D02*
X17034337Y-14300763D01*
X17034337Y-14300763D02*
X17034337Y-14243621D01*
X17034337Y-14243621D02*
X17043861Y-14224573D01*
X17043861Y-14224573D02*
X17053384Y-14215049D01*
X17053384Y-14215049D02*
X17072432Y-14205525D01*
X17072432Y-14205525D02*
X17101004Y-14205525D01*
X17101004Y-14205525D02*
X17120051Y-14215049D01*
X17120051Y-14215049D02*
X17129575Y-14224573D01*
X17129575Y-14224573D02*
X17139099Y-14243621D01*
X17139099Y-14243621D02*
X17139099Y-14300763D01*
X17139099Y-14300763D02*
X17129575Y-14319811D01*
X17129575Y-14319811D02*
X17120051Y-14329335D01*
X17120051Y-14329335D02*
X17101004Y-14338859D01*
X17101004Y-14338859D02*
X17072432Y-14338859D01*
X17196242Y-14205525D02*
X17272432Y-14205525D01*
X17224813Y-14138859D02*
X17224813Y-14310287D01*
X17224813Y-14310287D02*
X17234337Y-14329335D01*
X17234337Y-14329335D02*
X17253384Y-14338859D01*
X17253384Y-14338859D02*
X17272432Y-14338859D01*
X17491480Y-14205525D02*
X17491480Y-14405525D01*
X17491480Y-14215049D02*
X17510527Y-14205525D01*
X17510527Y-14205525D02*
X17548623Y-14205525D01*
X17548623Y-14205525D02*
X17567670Y-14215049D01*
X17567670Y-14215049D02*
X17577194Y-14224573D01*
X17577194Y-14224573D02*
X17586718Y-14243621D01*
X17586718Y-14243621D02*
X17586718Y-14300763D01*
X17586718Y-14300763D02*
X17577194Y-14319811D01*
X17577194Y-14319811D02*
X17567670Y-14329335D01*
X17567670Y-14329335D02*
X17548623Y-14338859D01*
X17548623Y-14338859D02*
X17510527Y-14338859D01*
X17510527Y-14338859D02*
X17491480Y-14329335D01*
X17701004Y-14338859D02*
X17681956Y-14329335D01*
X17681956Y-14329335D02*
X17672432Y-14310287D01*
X17672432Y-14310287D02*
X17672432Y-14138859D01*
X17862908Y-14338859D02*
X17862908Y-14234097D01*
X17862908Y-14234097D02*
X17853385Y-14215049D01*
X17853385Y-14215049D02*
X17834337Y-14205525D01*
X17834337Y-14205525D02*
X17796242Y-14205525D01*
X17796242Y-14205525D02*
X17777194Y-14215049D01*
X17862908Y-14329335D02*
X17843861Y-14338859D01*
X17843861Y-14338859D02*
X17796242Y-14338859D01*
X17796242Y-14338859D02*
X17777194Y-14329335D01*
X17777194Y-14329335D02*
X17767670Y-14310287D01*
X17767670Y-14310287D02*
X17767670Y-14291240D01*
X17767670Y-14291240D02*
X17777194Y-14272192D01*
X17777194Y-14272192D02*
X17796242Y-14262668D01*
X17796242Y-14262668D02*
X17843861Y-14262668D01*
X17843861Y-14262668D02*
X17862908Y-14253144D01*
X17929575Y-14205525D02*
X18005765Y-14205525D01*
X17958146Y-14138859D02*
X17958146Y-14310287D01*
X17958146Y-14310287D02*
X17967670Y-14329335D01*
X17967670Y-14329335D02*
X17986718Y-14338859D01*
X17986718Y-14338859D02*
X18005765Y-14338859D01*
X18148623Y-14329335D02*
X18129575Y-14338859D01*
X18129575Y-14338859D02*
X18091480Y-14338859D01*
X18091480Y-14338859D02*
X18072432Y-14329335D01*
X18072432Y-14329335D02*
X18062908Y-14310287D01*
X18062908Y-14310287D02*
X18062908Y-14234097D01*
X18062908Y-14234097D02*
X18072432Y-14215049D01*
X18072432Y-14215049D02*
X18091480Y-14205525D01*
X18091480Y-14205525D02*
X18129575Y-14205525D01*
X18129575Y-14205525D02*
X18148623Y-14215049D01*
X18148623Y-14215049D02*
X18158146Y-14234097D01*
X18158146Y-14234097D02*
X18158146Y-14253144D01*
X18158146Y-14253144D02*
X18062908Y-14272192D01*
X18329575Y-14338859D02*
X18329575Y-14138859D01*
X18329575Y-14329335D02*
X18310527Y-14338859D01*
X18310527Y-14338859D02*
X18272432Y-14338859D01*
X18272432Y-14338859D02*
X18253385Y-14329335D01*
X18253385Y-14329335D02*
X18243861Y-14319811D01*
X18243861Y-14319811D02*
X18234337Y-14300763D01*
X18234337Y-14300763D02*
X18234337Y-14243621D01*
X18234337Y-14243621D02*
X18243861Y-14224573D01*
X18243861Y-14224573D02*
X18253385Y-14215049D01*
X18253385Y-14215049D02*
X18272432Y-14205525D01*
X18272432Y-14205525D02*
X18310527Y-14205525D01*
X18310527Y-14205525D02*
X18329575Y-14215049D01*
X18405766Y-14415049D02*
X18415289Y-14405525D01*
X18415289Y-14405525D02*
X18434337Y-14376954D01*
X18434337Y-14376954D02*
X18443861Y-14357906D01*
X18443861Y-14357906D02*
X18453385Y-14329335D01*
X18453385Y-14329335D02*
X18462908Y-14281716D01*
X18462908Y-14281716D02*
X18462908Y-14243621D01*
X18462908Y-14243621D02*
X18453385Y-14196002D01*
X18453385Y-14196002D02*
X18443861Y-14167430D01*
X18443861Y-14167430D02*
X18434337Y-14148383D01*
X18434337Y-14148383D02*
X18415289Y-14119811D01*
X18415289Y-14119811D02*
X18405766Y-14110287D01*
X11649750Y-14511375D02*
G75*
G02*
X11449750Y-14511375I-100000J0D01*
G01*
X11449750Y-14511375D02*
G75*
G02*
X11649750Y-14511375I100000J0D01*
G01*
X11891479Y-14402859D02*
X12015289Y-14402859D01*
X12015289Y-14402859D02*
X11948622Y-14479049D01*
X11948622Y-14479049D02*
X11977193Y-14479049D01*
X11977193Y-14479049D02*
X11996241Y-14488573D01*
X11996241Y-14488573D02*
X12005765Y-14498097D01*
X12005765Y-14498097D02*
X12015289Y-14517144D01*
X12015289Y-14517144D02*
X12015289Y-14564763D01*
X12015289Y-14564763D02*
X12005765Y-14583811D01*
X12005765Y-14583811D02*
X11996241Y-14593335D01*
X11996241Y-14593335D02*
X11977193Y-14602859D01*
X11977193Y-14602859D02*
X11920051Y-14602859D01*
X11920051Y-14602859D02*
X11901003Y-14593335D01*
X11901003Y-14593335D02*
X11891479Y-14583811D01*
X12101003Y-14583811D02*
X12110527Y-14593335D01*
X12110527Y-14593335D02*
X12101003Y-14602859D01*
X12101003Y-14602859D02*
X12091479Y-14593335D01*
X12091479Y-14593335D02*
X12101003Y-14583811D01*
X12101003Y-14583811D02*
X12101003Y-14602859D01*
X12186717Y-14421906D02*
X12196241Y-14412383D01*
X12196241Y-14412383D02*
X12215289Y-14402859D01*
X12215289Y-14402859D02*
X12262908Y-14402859D01*
X12262908Y-14402859D02*
X12281955Y-14412383D01*
X12281955Y-14412383D02*
X12291479Y-14421906D01*
X12291479Y-14421906D02*
X12301003Y-14440954D01*
X12301003Y-14440954D02*
X12301003Y-14460002D01*
X12301003Y-14460002D02*
X12291479Y-14488573D01*
X12291479Y-14488573D02*
X12177193Y-14602859D01*
X12177193Y-14602859D02*
X12301003Y-14602859D01*
X12424812Y-14402859D02*
X12443860Y-14402859D01*
X12443860Y-14402859D02*
X12462908Y-14412383D01*
X12462908Y-14412383D02*
X12472432Y-14421906D01*
X12472432Y-14421906D02*
X12481955Y-14440954D01*
X12481955Y-14440954D02*
X12491479Y-14479049D01*
X12491479Y-14479049D02*
X12491479Y-14526668D01*
X12491479Y-14526668D02*
X12481955Y-14564763D01*
X12481955Y-14564763D02*
X12472432Y-14583811D01*
X12472432Y-14583811D02*
X12462908Y-14593335D01*
X12462908Y-14593335D02*
X12443860Y-14602859D01*
X12443860Y-14602859D02*
X12424812Y-14602859D01*
X12424812Y-14602859D02*
X12405765Y-14593335D01*
X12405765Y-14593335D02*
X12396241Y-14583811D01*
X12396241Y-14583811D02*
X12386717Y-14564763D01*
X12386717Y-14564763D02*
X12377193Y-14526668D01*
X12377193Y-14526668D02*
X12377193Y-14479049D01*
X12377193Y-14479049D02*
X12386717Y-14440954D01*
X12386717Y-14440954D02*
X12396241Y-14421906D01*
X12396241Y-14421906D02*
X12405765Y-14412383D01*
X12405765Y-14412383D02*
X12424812Y-14402859D01*
X12615289Y-14402859D02*
X12634336Y-14402859D01*
X12634336Y-14402859D02*
X12653384Y-14412383D01*
X12653384Y-14412383D02*
X12662908Y-14421906D01*
X12662908Y-14421906D02*
X12672432Y-14440954D01*
X12672432Y-14440954D02*
X12681955Y-14479049D01*
X12681955Y-14479049D02*
X12681955Y-14526668D01*
X12681955Y-14526668D02*
X12672432Y-14564763D01*
X12672432Y-14564763D02*
X12662908Y-14583811D01*
X12662908Y-14583811D02*
X12653384Y-14593335D01*
X12653384Y-14593335D02*
X12634336Y-14602859D01*
X12634336Y-14602859D02*
X12615289Y-14602859D01*
X12615289Y-14602859D02*
X12596241Y-14593335D01*
X12596241Y-14593335D02*
X12586717Y-14583811D01*
X12586717Y-14583811D02*
X12577193Y-14564763D01*
X12577193Y-14564763D02*
X12567670Y-14526668D01*
X12567670Y-14526668D02*
X12567670Y-14479049D01*
X12567670Y-14479049D02*
X12577193Y-14440954D01*
X12577193Y-14440954D02*
X12586717Y-14421906D01*
X12586717Y-14421906D02*
X12596241Y-14412383D01*
X12596241Y-14412383D02*
X12615289Y-14402859D01*
X12767670Y-14602859D02*
X12767670Y-14469525D01*
X12767670Y-14488573D02*
X12777193Y-14479049D01*
X12777193Y-14479049D02*
X12796241Y-14469525D01*
X12796241Y-14469525D02*
X12824813Y-14469525D01*
X12824813Y-14469525D02*
X12843860Y-14479049D01*
X12843860Y-14479049D02*
X12853384Y-14498097D01*
X12853384Y-14498097D02*
X12853384Y-14602859D01*
X12853384Y-14498097D02*
X12862908Y-14479049D01*
X12862908Y-14479049D02*
X12881955Y-14469525D01*
X12881955Y-14469525D02*
X12910527Y-14469525D01*
X12910527Y-14469525D02*
X12929574Y-14479049D01*
X12929574Y-14479049D02*
X12939098Y-14498097D01*
X12939098Y-14498097D02*
X12939098Y-14602859D01*
X13034336Y-14602859D02*
X13034336Y-14469525D01*
X13034336Y-14488573D02*
X13043860Y-14479049D01*
X13043860Y-14479049D02*
X13062908Y-14469525D01*
X13062908Y-14469525D02*
X13091479Y-14469525D01*
X13091479Y-14469525D02*
X13110527Y-14479049D01*
X13110527Y-14479049D02*
X13120051Y-14498097D01*
X13120051Y-14498097D02*
X13120051Y-14602859D01*
X13120051Y-14498097D02*
X13129574Y-14479049D01*
X13129574Y-14479049D02*
X13148622Y-14469525D01*
X13148622Y-14469525D02*
X13177193Y-14469525D01*
X13177193Y-14469525D02*
X13196241Y-14479049D01*
X13196241Y-14479049D02*
X13205765Y-14498097D01*
X13205765Y-14498097D02*
X13205765Y-14602859D01*
X13596241Y-14393335D02*
X13424813Y-14650478D01*
X13853384Y-14402859D02*
X13872432Y-14402859D01*
X13872432Y-14402859D02*
X13891479Y-14412383D01*
X13891479Y-14412383D02*
X13901003Y-14421906D01*
X13901003Y-14421906D02*
X13910527Y-14440954D01*
X13910527Y-14440954D02*
X13920051Y-14479049D01*
X13920051Y-14479049D02*
X13920051Y-14526668D01*
X13920051Y-14526668D02*
X13910527Y-14564763D01*
X13910527Y-14564763D02*
X13901003Y-14583811D01*
X13901003Y-14583811D02*
X13891479Y-14593335D01*
X13891479Y-14593335D02*
X13872432Y-14602859D01*
X13872432Y-14602859D02*
X13853384Y-14602859D01*
X13853384Y-14602859D02*
X13834336Y-14593335D01*
X13834336Y-14593335D02*
X13824813Y-14583811D01*
X13824813Y-14583811D02*
X13815289Y-14564763D01*
X13815289Y-14564763D02*
X13805765Y-14526668D01*
X13805765Y-14526668D02*
X13805765Y-14479049D01*
X13805765Y-14479049D02*
X13815289Y-14440954D01*
X13815289Y-14440954D02*
X13824813Y-14421906D01*
X13824813Y-14421906D02*
X13834336Y-14412383D01*
X13834336Y-14412383D02*
X13853384Y-14402859D01*
X14005765Y-14583811D02*
X14015289Y-14593335D01*
X14015289Y-14593335D02*
X14005765Y-14602859D01*
X14005765Y-14602859D02*
X13996241Y-14593335D01*
X13996241Y-14593335D02*
X14005765Y-14583811D01*
X14005765Y-14583811D02*
X14005765Y-14602859D01*
X14205765Y-14602859D02*
X14091479Y-14602859D01*
X14148622Y-14602859D02*
X14148622Y-14402859D01*
X14148622Y-14402859D02*
X14129575Y-14431430D01*
X14129575Y-14431430D02*
X14110527Y-14450478D01*
X14110527Y-14450478D02*
X14091479Y-14460002D01*
X14281956Y-14421906D02*
X14291479Y-14412383D01*
X14291479Y-14412383D02*
X14310527Y-14402859D01*
X14310527Y-14402859D02*
X14358146Y-14402859D01*
X14358146Y-14402859D02*
X14377194Y-14412383D01*
X14377194Y-14412383D02*
X14386717Y-14421906D01*
X14386717Y-14421906D02*
X14396241Y-14440954D01*
X14396241Y-14440954D02*
X14396241Y-14460002D01*
X14396241Y-14460002D02*
X14386717Y-14488573D01*
X14386717Y-14488573D02*
X14272432Y-14602859D01*
X14272432Y-14602859D02*
X14396241Y-14602859D01*
X14567670Y-14402859D02*
X14529575Y-14402859D01*
X14529575Y-14402859D02*
X14510527Y-14412383D01*
X14510527Y-14412383D02*
X14501003Y-14421906D01*
X14501003Y-14421906D02*
X14481956Y-14450478D01*
X14481956Y-14450478D02*
X14472432Y-14488573D01*
X14472432Y-14488573D02*
X14472432Y-14564763D01*
X14472432Y-14564763D02*
X14481956Y-14583811D01*
X14481956Y-14583811D02*
X14491479Y-14593335D01*
X14491479Y-14593335D02*
X14510527Y-14602859D01*
X14510527Y-14602859D02*
X14548622Y-14602859D01*
X14548622Y-14602859D02*
X14567670Y-14593335D01*
X14567670Y-14593335D02*
X14577194Y-14583811D01*
X14577194Y-14583811D02*
X14586717Y-14564763D01*
X14586717Y-14564763D02*
X14586717Y-14517144D01*
X14586717Y-14517144D02*
X14577194Y-14498097D01*
X14577194Y-14498097D02*
X14567670Y-14488573D01*
X14567670Y-14488573D02*
X14548622Y-14479049D01*
X14548622Y-14479049D02*
X14510527Y-14479049D01*
X14510527Y-14479049D02*
X14491479Y-14488573D01*
X14491479Y-14488573D02*
X14481956Y-14498097D01*
X14481956Y-14498097D02*
X14472432Y-14517144D01*
X14710527Y-14402859D02*
X14729575Y-14402859D01*
X14729575Y-14402859D02*
X14748622Y-14412383D01*
X14748622Y-14412383D02*
X14758146Y-14421906D01*
X14758146Y-14421906D02*
X14767670Y-14440954D01*
X14767670Y-14440954D02*
X14777194Y-14479049D01*
X14777194Y-14479049D02*
X14777194Y-14526668D01*
X14777194Y-14526668D02*
X14767670Y-14564763D01*
X14767670Y-14564763D02*
X14758146Y-14583811D01*
X14758146Y-14583811D02*
X14748622Y-14593335D01*
X14748622Y-14593335D02*
X14729575Y-14602859D01*
X14729575Y-14602859D02*
X14710527Y-14602859D01*
X14710527Y-14602859D02*
X14691479Y-14593335D01*
X14691479Y-14593335D02*
X14681956Y-14583811D01*
X14681956Y-14583811D02*
X14672432Y-14564763D01*
X14672432Y-14564763D02*
X14662908Y-14526668D01*
X14662908Y-14526668D02*
X14662908Y-14479049D01*
X14662908Y-14479049D02*
X14672432Y-14440954D01*
X14672432Y-14440954D02*
X14681956Y-14421906D01*
X14681956Y-14421906D02*
X14691479Y-14412383D01*
X14691479Y-14412383D02*
X14710527Y-14402859D01*
X14853384Y-14402859D02*
X14853384Y-14440954D01*
X14929575Y-14402859D02*
X14929575Y-14440954D01*
X15224813Y-14679049D02*
X15215289Y-14669525D01*
X15215289Y-14669525D02*
X15196241Y-14640954D01*
X15196241Y-14640954D02*
X15186718Y-14621906D01*
X15186718Y-14621906D02*
X15177194Y-14593335D01*
X15177194Y-14593335D02*
X15167670Y-14545716D01*
X15167670Y-14545716D02*
X15167670Y-14507621D01*
X15167670Y-14507621D02*
X15177194Y-14460002D01*
X15177194Y-14460002D02*
X15186718Y-14431430D01*
X15186718Y-14431430D02*
X15196241Y-14412383D01*
X15196241Y-14412383D02*
X15215289Y-14383811D01*
X15215289Y-14383811D02*
X15224813Y-14374287D01*
X15291479Y-14421906D02*
X15301003Y-14412383D01*
X15301003Y-14412383D02*
X15320051Y-14402859D01*
X15320051Y-14402859D02*
X15367670Y-14402859D01*
X15367670Y-14402859D02*
X15386718Y-14412383D01*
X15386718Y-14412383D02*
X15396241Y-14421906D01*
X15396241Y-14421906D02*
X15405765Y-14440954D01*
X15405765Y-14440954D02*
X15405765Y-14460002D01*
X15405765Y-14460002D02*
X15396241Y-14488573D01*
X15396241Y-14488573D02*
X15281956Y-14602859D01*
X15281956Y-14602859D02*
X15405765Y-14602859D01*
X15643860Y-14602859D02*
X15643860Y-14402859D01*
X15729575Y-14602859D02*
X15729575Y-14498097D01*
X15729575Y-14498097D02*
X15720051Y-14479049D01*
X15720051Y-14479049D02*
X15701003Y-14469525D01*
X15701003Y-14469525D02*
X15672432Y-14469525D01*
X15672432Y-14469525D02*
X15653384Y-14479049D01*
X15653384Y-14479049D02*
X15643860Y-14488573D01*
X15853384Y-14602859D02*
X15834337Y-14593335D01*
X15834337Y-14593335D02*
X15824813Y-14583811D01*
X15824813Y-14583811D02*
X15815289Y-14564763D01*
X15815289Y-14564763D02*
X15815289Y-14507621D01*
X15815289Y-14507621D02*
X15824813Y-14488573D01*
X15824813Y-14488573D02*
X15834337Y-14479049D01*
X15834337Y-14479049D02*
X15853384Y-14469525D01*
X15853384Y-14469525D02*
X15881956Y-14469525D01*
X15881956Y-14469525D02*
X15901003Y-14479049D01*
X15901003Y-14479049D02*
X15910527Y-14488573D01*
X15910527Y-14488573D02*
X15920051Y-14507621D01*
X15920051Y-14507621D02*
X15920051Y-14564763D01*
X15920051Y-14564763D02*
X15910527Y-14583811D01*
X15910527Y-14583811D02*
X15901003Y-14593335D01*
X15901003Y-14593335D02*
X15881956Y-14602859D01*
X15881956Y-14602859D02*
X15853384Y-14602859D01*
X16034337Y-14602859D02*
X16015289Y-14593335D01*
X16015289Y-14593335D02*
X16005765Y-14574287D01*
X16005765Y-14574287D02*
X16005765Y-14402859D01*
X16186718Y-14593335D02*
X16167670Y-14602859D01*
X16167670Y-14602859D02*
X16129575Y-14602859D01*
X16129575Y-14602859D02*
X16110527Y-14593335D01*
X16110527Y-14593335D02*
X16101003Y-14574287D01*
X16101003Y-14574287D02*
X16101003Y-14498097D01*
X16101003Y-14498097D02*
X16110527Y-14479049D01*
X16110527Y-14479049D02*
X16129575Y-14469525D01*
X16129575Y-14469525D02*
X16167670Y-14469525D01*
X16167670Y-14469525D02*
X16186718Y-14479049D01*
X16186718Y-14479049D02*
X16196241Y-14498097D01*
X16196241Y-14498097D02*
X16196241Y-14517144D01*
X16196241Y-14517144D02*
X16101003Y-14536192D01*
X16272432Y-14593335D02*
X16291480Y-14602859D01*
X16291480Y-14602859D02*
X16329575Y-14602859D01*
X16329575Y-14602859D02*
X16348622Y-14593335D01*
X16348622Y-14593335D02*
X16358146Y-14574287D01*
X16358146Y-14574287D02*
X16358146Y-14564763D01*
X16358146Y-14564763D02*
X16348622Y-14545716D01*
X16348622Y-14545716D02*
X16329575Y-14536192D01*
X16329575Y-14536192D02*
X16301003Y-14536192D01*
X16301003Y-14536192D02*
X16281956Y-14526668D01*
X16281956Y-14526668D02*
X16272432Y-14507621D01*
X16272432Y-14507621D02*
X16272432Y-14498097D01*
X16272432Y-14498097D02*
X16281956Y-14479049D01*
X16281956Y-14479049D02*
X16301003Y-14469525D01*
X16301003Y-14469525D02*
X16329575Y-14469525D01*
X16329575Y-14469525D02*
X16348622Y-14479049D01*
X16424813Y-14679049D02*
X16434337Y-14669525D01*
X16434337Y-14669525D02*
X16453384Y-14640954D01*
X16453384Y-14640954D02*
X16462908Y-14621906D01*
X16462908Y-14621906D02*
X16472432Y-14593335D01*
X16472432Y-14593335D02*
X16481956Y-14545716D01*
X16481956Y-14545716D02*
X16481956Y-14507621D01*
X16481956Y-14507621D02*
X16472432Y-14460002D01*
X16472432Y-14460002D02*
X16462908Y-14431430D01*
X16462908Y-14431430D02*
X16453384Y-14412383D01*
X16453384Y-14412383D02*
X16434337Y-14383811D01*
X16434337Y-14383811D02*
X16424813Y-14374287D01*
X16786718Y-14679049D02*
X16777194Y-14669525D01*
X16777194Y-14669525D02*
X16758146Y-14640954D01*
X16758146Y-14640954D02*
X16748622Y-14621906D01*
X16748622Y-14621906D02*
X16739099Y-14593335D01*
X16739099Y-14593335D02*
X16729575Y-14545716D01*
X16729575Y-14545716D02*
X16729575Y-14507621D01*
X16729575Y-14507621D02*
X16739099Y-14460002D01*
X16739099Y-14460002D02*
X16748622Y-14431430D01*
X16748622Y-14431430D02*
X16758146Y-14412383D01*
X16758146Y-14412383D02*
X16777194Y-14383811D01*
X16777194Y-14383811D02*
X16786718Y-14374287D01*
X16862908Y-14469525D02*
X16862908Y-14602859D01*
X16862908Y-14488573D02*
X16872432Y-14479049D01*
X16872432Y-14479049D02*
X16891480Y-14469525D01*
X16891480Y-14469525D02*
X16920051Y-14469525D01*
X16920051Y-14469525D02*
X16939099Y-14479049D01*
X16939099Y-14479049D02*
X16948623Y-14498097D01*
X16948623Y-14498097D02*
X16948623Y-14602859D01*
X17072432Y-14602859D02*
X17053384Y-14593335D01*
X17053384Y-14593335D02*
X17043861Y-14583811D01*
X17043861Y-14583811D02*
X17034337Y-14564763D01*
X17034337Y-14564763D02*
X17034337Y-14507621D01*
X17034337Y-14507621D02*
X17043861Y-14488573D01*
X17043861Y-14488573D02*
X17053384Y-14479049D01*
X17053384Y-14479049D02*
X17072432Y-14469525D01*
X17072432Y-14469525D02*
X17101004Y-14469525D01*
X17101004Y-14469525D02*
X17120051Y-14479049D01*
X17120051Y-14479049D02*
X17129575Y-14488573D01*
X17129575Y-14488573D02*
X17139099Y-14507621D01*
X17139099Y-14507621D02*
X17139099Y-14564763D01*
X17139099Y-14564763D02*
X17129575Y-14583811D01*
X17129575Y-14583811D02*
X17120051Y-14593335D01*
X17120051Y-14593335D02*
X17101004Y-14602859D01*
X17101004Y-14602859D02*
X17072432Y-14602859D01*
X17196242Y-14469525D02*
X17272432Y-14469525D01*
X17224813Y-14402859D02*
X17224813Y-14574287D01*
X17224813Y-14574287D02*
X17234337Y-14593335D01*
X17234337Y-14593335D02*
X17253384Y-14602859D01*
X17253384Y-14602859D02*
X17272432Y-14602859D01*
X17491480Y-14469525D02*
X17491480Y-14669525D01*
X17491480Y-14479049D02*
X17510527Y-14469525D01*
X17510527Y-14469525D02*
X17548623Y-14469525D01*
X17548623Y-14469525D02*
X17567670Y-14479049D01*
X17567670Y-14479049D02*
X17577194Y-14488573D01*
X17577194Y-14488573D02*
X17586718Y-14507621D01*
X17586718Y-14507621D02*
X17586718Y-14564763D01*
X17586718Y-14564763D02*
X17577194Y-14583811D01*
X17577194Y-14583811D02*
X17567670Y-14593335D01*
X17567670Y-14593335D02*
X17548623Y-14602859D01*
X17548623Y-14602859D02*
X17510527Y-14602859D01*
X17510527Y-14602859D02*
X17491480Y-14593335D01*
X17701004Y-14602859D02*
X17681956Y-14593335D01*
X17681956Y-14593335D02*
X17672432Y-14574287D01*
X17672432Y-14574287D02*
X17672432Y-14402859D01*
X17862908Y-14602859D02*
X17862908Y-14498097D01*
X17862908Y-14498097D02*
X17853385Y-14479049D01*
X17853385Y-14479049D02*
X17834337Y-14469525D01*
X17834337Y-14469525D02*
X17796242Y-14469525D01*
X17796242Y-14469525D02*
X17777194Y-14479049D01*
X17862908Y-14593335D02*
X17843861Y-14602859D01*
X17843861Y-14602859D02*
X17796242Y-14602859D01*
X17796242Y-14602859D02*
X17777194Y-14593335D01*
X17777194Y-14593335D02*
X17767670Y-14574287D01*
X17767670Y-14574287D02*
X17767670Y-14555240D01*
X17767670Y-14555240D02*
X17777194Y-14536192D01*
X17777194Y-14536192D02*
X17796242Y-14526668D01*
X17796242Y-14526668D02*
X17843861Y-14526668D01*
X17843861Y-14526668D02*
X17862908Y-14517144D01*
X17929575Y-14469525D02*
X18005765Y-14469525D01*
X17958146Y-14402859D02*
X17958146Y-14574287D01*
X17958146Y-14574287D02*
X17967670Y-14593335D01*
X17967670Y-14593335D02*
X17986718Y-14602859D01*
X17986718Y-14602859D02*
X18005765Y-14602859D01*
X18148623Y-14593335D02*
X18129575Y-14602859D01*
X18129575Y-14602859D02*
X18091480Y-14602859D01*
X18091480Y-14602859D02*
X18072432Y-14593335D01*
X18072432Y-14593335D02*
X18062908Y-14574287D01*
X18062908Y-14574287D02*
X18062908Y-14498097D01*
X18062908Y-14498097D02*
X18072432Y-14479049D01*
X18072432Y-14479049D02*
X18091480Y-14469525D01*
X18091480Y-14469525D02*
X18129575Y-14469525D01*
X18129575Y-14469525D02*
X18148623Y-14479049D01*
X18148623Y-14479049D02*
X18158146Y-14498097D01*
X18158146Y-14498097D02*
X18158146Y-14517144D01*
X18158146Y-14517144D02*
X18062908Y-14536192D01*
X18329575Y-14602859D02*
X18329575Y-14402859D01*
X18329575Y-14593335D02*
X18310527Y-14602859D01*
X18310527Y-14602859D02*
X18272432Y-14602859D01*
X18272432Y-14602859D02*
X18253385Y-14593335D01*
X18253385Y-14593335D02*
X18243861Y-14583811D01*
X18243861Y-14583811D02*
X18234337Y-14564763D01*
X18234337Y-14564763D02*
X18234337Y-14507621D01*
X18234337Y-14507621D02*
X18243861Y-14488573D01*
X18243861Y-14488573D02*
X18253385Y-14479049D01*
X18253385Y-14479049D02*
X18272432Y-14469525D01*
X18272432Y-14469525D02*
X18310527Y-14469525D01*
X18310527Y-14469525D02*
X18329575Y-14479049D01*
X18405766Y-14679049D02*
X18415289Y-14669525D01*
X18415289Y-14669525D02*
X18434337Y-14640954D01*
X18434337Y-14640954D02*
X18443861Y-14621906D01*
X18443861Y-14621906D02*
X18453385Y-14593335D01*
X18453385Y-14593335D02*
X18462908Y-14545716D01*
X18462908Y-14545716D02*
X18462908Y-14507621D01*
X18462908Y-14507621D02*
X18453385Y-14460002D01*
X18453385Y-14460002D02*
X18443861Y-14431430D01*
X18443861Y-14431430D02*
X18434337Y-14412383D01*
X18434337Y-14412383D02*
X18415289Y-14383811D01*
X18415289Y-14383811D02*
X18405766Y-14374287D01*
M02*
