%TF.GenerationSoftware,KiCad,Pcbnew,8.0.8-8.0.8-0~ubuntu24.04.1*%
%TF.CreationDate,2025-01-15T11:24:36+01:00*%
%TF.ProjectId,PicoGUS chipdown,5069636f-4755-4532-9063-686970646f77,rev?*%
%TF.SameCoordinates,Original*%
%TF.FileFunction,Drillmap*%
%TF.FilePolarity,Positive*%
%FSLAX45Y45*%
G04 Gerber Fmt 4.5, Leading zero omitted, Abs format (unit mm)*
G04 Created by KiCad (PCBNEW 8.0.8-8.0.8-0~ubuntu24.04.1) date 2025-01-15 11:24:36*
%MOMM*%
%LPD*%
G01*
G04 APERTURE LIST*
%ADD10C,0.050000*%
%ADD11C,0.200000*%
%ADD12C,0.100000*%
%ADD13C,0.210000*%
%ADD14C,0.320000*%
G04 APERTURE END LIST*
D10*
X21939250Y-12827000D02*
X19780250Y-12827000D01*
X19780250Y-13430250D01*
X19780250Y-13462000D01*
X19637375Y-13602750D01*
X11795125Y-13604875D01*
X11652250Y-13462000D01*
X11652250Y-12827000D01*
X11652250Y-3931250D01*
X21939250Y-3931250D01*
X21939250Y-12827000D01*
D11*
D12*
X11796000Y-12646900D02*
X11826000Y-12676900D01*
X11826000Y-12646900D02*
X11796000Y-12676900D01*
X11796000Y-12710400D02*
X11826000Y-12740400D01*
X11826000Y-12710400D02*
X11796000Y-12740400D01*
X11796000Y-12773900D02*
X11826000Y-12803900D01*
X11826000Y-12773900D02*
X11796000Y-12803900D01*
X11973800Y-12646900D02*
X12003800Y-12676900D01*
X12003800Y-12646900D02*
X11973800Y-12676900D01*
X11973800Y-12710400D02*
X12003800Y-12740400D01*
X12003800Y-12710400D02*
X11973800Y-12740400D01*
X11973800Y-12773250D02*
X12003800Y-12803250D01*
X12003800Y-12773250D02*
X11973800Y-12803250D01*
X12304000Y-12646900D02*
X12334000Y-12676900D01*
X12334000Y-12646900D02*
X12304000Y-12676900D01*
X12304000Y-12710400D02*
X12334000Y-12740400D01*
X12334000Y-12710400D02*
X12304000Y-12740400D01*
X12304000Y-12775000D02*
X12334000Y-12805000D01*
X12334000Y-12775000D02*
X12304000Y-12805000D01*
X12481800Y-12646900D02*
X12511800Y-12676900D01*
X12511800Y-12646900D02*
X12481800Y-12676900D01*
X12481800Y-12710400D02*
X12511800Y-12740400D01*
X12511800Y-12710400D02*
X12481800Y-12740400D01*
X12481800Y-12773250D02*
X12511800Y-12803250D01*
X12511800Y-12773250D02*
X12481800Y-12803250D01*
X13045000Y-12805000D02*
X13075000Y-12835000D01*
X13075000Y-12805000D02*
X13045000Y-12835000D01*
X13048220Y-10782540D02*
X13078220Y-10812540D01*
X13078220Y-10782540D02*
X13048220Y-10812540D01*
X13662500Y-5317500D02*
X13692500Y-5347500D01*
X13692500Y-5317500D02*
X13662500Y-5347500D01*
X13705000Y-5365000D02*
X13735000Y-5395000D01*
X13735000Y-5365000D02*
X13705000Y-5395000D01*
X14175980Y-8575280D02*
X14205980Y-8605280D01*
X14205980Y-8575280D02*
X14175980Y-8605280D01*
X14175980Y-9134080D02*
X14205980Y-9164080D01*
X14205980Y-9134080D02*
X14175980Y-9164080D01*
X14175980Y-9405860D02*
X14205980Y-9435860D01*
X14205980Y-9405860D02*
X14175980Y-9435860D01*
X14175980Y-9736060D02*
X14205980Y-9766060D01*
X14205980Y-9736060D02*
X14175980Y-9766060D01*
X14175980Y-10073880D02*
X14205980Y-10103880D01*
X14205980Y-10073880D02*
X14175980Y-10103880D01*
X14175980Y-10444720D02*
X14205980Y-10474720D01*
X14205980Y-10444720D02*
X14175980Y-10474720D01*
X14178520Y-8814040D02*
X14208520Y-8844040D01*
X14208520Y-8814040D02*
X14178520Y-8844040D01*
X14178520Y-9504920D02*
X14208520Y-9534920D01*
X14208520Y-9504920D02*
X14178520Y-9534920D01*
X14181060Y-10322800D02*
X14211060Y-10352800D01*
X14211060Y-10322800D02*
X14181060Y-10352800D01*
X14181060Y-10665700D02*
X14211060Y-10695700D01*
X14211060Y-10665700D02*
X14181060Y-10695700D01*
X14544280Y-10924780D02*
X14574280Y-10954780D01*
X14574280Y-10924780D02*
X14544280Y-10954780D01*
X15255480Y-11465800D02*
X15285480Y-11495800D01*
X15285480Y-11465800D02*
X15255480Y-11495800D01*
X15258020Y-8890240D02*
X15288020Y-8920240D01*
X15288020Y-8890240D02*
X15258020Y-8920240D01*
X15313900Y-10596100D02*
X15343900Y-10626100D01*
X15343900Y-10596100D02*
X15313900Y-10626100D01*
X15575000Y-9455000D02*
X15605000Y-9485000D01*
X15605000Y-9455000D02*
X15575000Y-9485000D01*
X15748240Y-9930700D02*
X15778240Y-9960700D01*
X15778240Y-9930700D02*
X15748240Y-9960700D01*
X15748240Y-10130700D02*
X15778240Y-10160700D01*
X15778240Y-10130700D02*
X15748240Y-10160700D01*
X15844760Y-9842740D02*
X15874760Y-9872740D01*
X15874760Y-9842740D02*
X15844760Y-9872740D01*
X15865000Y-12595000D02*
X15895000Y-12625000D01*
X15895000Y-12595000D02*
X15865000Y-12625000D01*
X15898100Y-9774160D02*
X15928100Y-9804160D01*
X15928100Y-9774160D02*
X15898100Y-9804160D01*
X15984460Y-9924020D02*
X16014460Y-9954020D01*
X16014460Y-9924020D02*
X15984460Y-9954020D01*
X16083520Y-11219420D02*
X16113520Y-11249420D01*
X16113520Y-11219420D02*
X16083520Y-11249420D01*
X16136860Y-10967960D02*
X16166860Y-10997960D01*
X16166860Y-10967960D02*
X16136860Y-10997960D01*
X16187660Y-9184880D02*
X16217660Y-9214880D01*
X16217660Y-9184880D02*
X16187660Y-9214880D01*
X16230840Y-9400780D02*
X16260840Y-9430780D01*
X16260840Y-9400780D02*
X16230840Y-9430780D01*
X16235920Y-11310860D02*
X16265920Y-11340860D01*
X16265920Y-11310860D02*
X16235920Y-11340860D01*
X16240480Y-8325840D02*
X16270480Y-8355840D01*
X16270480Y-8325840D02*
X16240480Y-8355840D01*
X16279100Y-10967960D02*
X16309100Y-10997960D01*
X16309100Y-10967960D02*
X16279100Y-10997960D01*
X16313420Y-8323300D02*
X16343420Y-8353300D01*
X16343420Y-8323300D02*
X16313420Y-8353300D01*
X16335000Y-12745000D02*
X16365000Y-12775000D01*
X16365000Y-12745000D02*
X16335000Y-12775000D01*
X16360380Y-9403320D02*
X16390380Y-9433320D01*
X16390380Y-9403320D02*
X16360380Y-9433320D01*
X16388320Y-11376900D02*
X16418320Y-11406900D01*
X16418320Y-11376900D02*
X16388320Y-11406900D01*
X16393400Y-9695420D02*
X16423400Y-9725420D01*
X16423400Y-9695420D02*
X16393400Y-9725420D01*
X16403950Y-10332960D02*
X16433950Y-10362960D01*
X16433950Y-10332960D02*
X16403950Y-10362960D01*
X16418800Y-9972280D02*
X16448800Y-10002280D01*
X16448800Y-9972280D02*
X16418800Y-10002280D01*
X16421340Y-8582900D02*
X16451340Y-8612900D01*
X16451340Y-8582900D02*
X16421340Y-8612900D01*
X16423880Y-8920720D02*
X16453880Y-8950720D01*
X16453880Y-8920720D02*
X16423880Y-8950720D01*
X16425000Y-11026380D02*
X16455000Y-11056380D01*
X16455000Y-11026380D02*
X16425000Y-11056380D01*
X16433995Y-9260995D02*
X16463995Y-9290995D01*
X16463995Y-9260995D02*
X16433995Y-9290995D01*
X16487380Y-9692880D02*
X16517380Y-9722880D01*
X16517380Y-9692880D02*
X16487380Y-9722880D01*
X16489920Y-8539720D02*
X16519920Y-8569720D01*
X16519920Y-8539720D02*
X16489920Y-8569720D01*
X16500080Y-9355060D02*
X16530080Y-9385060D01*
X16530080Y-9355060D02*
X16500080Y-9385060D01*
X16515320Y-8885160D02*
X16545320Y-8915160D01*
X16545320Y-8885160D02*
X16515320Y-8915160D01*
X16558500Y-10688560D02*
X16588500Y-10718560D01*
X16588500Y-10688560D02*
X16558500Y-10718560D01*
X16561040Y-9690340D02*
X16591040Y-9720340D01*
X16591040Y-9690340D02*
X16561040Y-9720340D01*
X16563580Y-9969740D02*
X16593580Y-9999740D01*
X16593580Y-9969740D02*
X16563580Y-9999740D01*
X16595000Y-12745000D02*
X16625000Y-12775000D01*
X16625000Y-12745000D02*
X16595000Y-12775000D01*
X16598750Y-11376900D02*
X16628750Y-11406900D01*
X16628750Y-11376900D02*
X16598750Y-11406900D01*
X16611450Y-9263620D02*
X16641450Y-9293620D01*
X16641450Y-9263620D02*
X16611450Y-9293620D01*
X16611450Y-10332960D02*
X16641450Y-10362960D01*
X16641450Y-10332960D02*
X16611450Y-10362960D01*
X16754080Y-11435320D02*
X16784080Y-11465320D01*
X16784080Y-11435320D02*
X16754080Y-11465320D01*
X16795000Y-5035000D02*
X16825000Y-5065000D01*
X16825000Y-5035000D02*
X16795000Y-5065000D01*
X17005000Y-6075000D02*
X17035000Y-6105000D01*
X17035000Y-6075000D02*
X17005000Y-6105000D01*
X17074120Y-8849600D02*
X17104120Y-8879600D01*
X17104120Y-8849600D02*
X17074120Y-8879600D01*
X17075000Y-5985000D02*
X17105000Y-6015000D01*
X17105000Y-5985000D02*
X17075000Y-6015000D01*
X17075000Y-6165000D02*
X17105000Y-6195000D01*
X17105000Y-6165000D02*
X17075000Y-6195000D01*
X17088900Y-12614080D02*
X17118900Y-12644080D01*
X17118900Y-12614080D02*
X17088900Y-12644080D01*
X17088900Y-12674080D02*
X17118900Y-12704080D01*
X17118900Y-12674080D02*
X17088900Y-12704080D01*
X17088900Y-12734080D02*
X17118900Y-12764080D01*
X17118900Y-12734080D02*
X17088900Y-12764080D01*
X17105000Y-10965000D02*
X17135000Y-10995000D01*
X17135000Y-10965000D02*
X17105000Y-10995000D01*
X17105000Y-11045000D02*
X17135000Y-11075000D01*
X17135000Y-11045000D02*
X17105000Y-11075000D01*
X17109680Y-10269460D02*
X17139680Y-10299460D01*
X17139680Y-10269460D02*
X17109680Y-10299460D01*
X17140160Y-8514320D02*
X17170160Y-8544320D01*
X17170160Y-8514320D02*
X17140160Y-8544320D01*
X17148900Y-12614080D02*
X17178900Y-12644080D01*
X17178900Y-12614080D02*
X17148900Y-12644080D01*
X17148900Y-12674080D02*
X17178900Y-12704080D01*
X17178900Y-12674080D02*
X17148900Y-12704080D01*
X17148900Y-12734080D02*
X17178900Y-12764080D01*
X17178900Y-12734080D02*
X17148900Y-12764080D01*
X17166011Y-9661225D02*
X17196011Y-9691225D01*
X17196011Y-9661225D02*
X17166011Y-9691225D01*
X17170853Y-8660783D02*
X17200853Y-8690783D01*
X17200853Y-8660783D02*
X17170853Y-8690783D01*
X17173180Y-9588740D02*
X17203180Y-9618740D01*
X17203180Y-9588740D02*
X17173180Y-9618740D01*
X17175720Y-10863820D02*
X17205720Y-10893820D01*
X17205720Y-10863820D02*
X17175720Y-10893820D01*
X17178260Y-9228060D02*
X17208260Y-9258060D01*
X17208260Y-9228060D02*
X17178260Y-9258060D01*
X17225000Y-12435000D02*
X17255000Y-12465000D01*
X17255000Y-12435000D02*
X17225000Y-12465000D01*
X17229060Y-10693640D02*
X17259060Y-10723640D01*
X17259060Y-10693640D02*
X17229060Y-10723640D01*
X17237500Y-10432500D02*
X17267500Y-10462500D01*
X17267500Y-10432500D02*
X17237500Y-10462500D01*
X17258440Y-6974300D02*
X17288440Y-7004300D01*
X17288440Y-6974300D02*
X17258440Y-7004300D01*
X17258440Y-7194300D02*
X17288440Y-7224300D01*
X17288440Y-7194300D02*
X17258440Y-7224300D01*
X17267306Y-9851796D02*
X17297306Y-9881796D01*
X17297306Y-9851796D02*
X17267306Y-9881796D01*
X17285000Y-5985000D02*
X17315000Y-6015000D01*
X17315000Y-5985000D02*
X17285000Y-6015000D01*
X17285000Y-6165000D02*
X17315000Y-6195000D01*
X17315000Y-6165000D02*
X17285000Y-6195000D01*
X17325580Y-10693640D02*
X17355580Y-10723640D01*
X17355580Y-10693640D02*
X17325580Y-10723640D01*
X17348440Y-6904300D02*
X17378440Y-6934300D01*
X17378440Y-6904300D02*
X17348440Y-6934300D01*
X17348440Y-7264300D02*
X17378440Y-7294300D01*
X17378440Y-7264300D02*
X17348440Y-7294300D01*
X17350980Y-10465610D02*
X17380980Y-10495610D01*
X17380980Y-10465610D02*
X17350980Y-10495610D01*
X17353520Y-9403320D02*
X17383520Y-9433320D01*
X17383520Y-9403320D02*
X17353520Y-9433320D01*
X17353520Y-10332960D02*
X17383520Y-10362960D01*
X17383520Y-10332960D02*
X17353520Y-10362960D01*
X17355000Y-6075000D02*
X17385000Y-6105000D01*
X17385000Y-6075000D02*
X17355000Y-6105000D01*
X17364810Y-8845295D02*
X17394810Y-8875295D01*
X17394810Y-8845295D02*
X17364810Y-8875295D01*
X17370000Y-12690000D02*
X17400000Y-12720000D01*
X17400000Y-12690000D02*
X17370000Y-12720000D01*
X17378920Y-11356580D02*
X17408920Y-11386580D01*
X17408920Y-11356580D02*
X17378920Y-11386580D01*
X17399240Y-11630900D02*
X17429240Y-11660900D01*
X17429240Y-11630900D02*
X17399240Y-11660900D01*
X17420000Y-12740000D02*
X17450000Y-12770000D01*
X17450000Y-12740000D02*
X17420000Y-12770000D01*
X17432260Y-10416780D02*
X17462260Y-10446780D01*
X17462260Y-10416780D02*
X17432260Y-10446780D01*
X17434800Y-9746220D02*
X17464800Y-9776220D01*
X17464800Y-9746220D02*
X17434800Y-9776220D01*
X17437340Y-10924780D02*
X17467340Y-10954780D01*
X17467340Y-10924780D02*
X17437340Y-10954780D01*
X17438440Y-6974300D02*
X17468440Y-7004300D01*
X17468440Y-6974300D02*
X17438440Y-7004300D01*
X17438440Y-7194300D02*
X17468440Y-7224300D01*
X17468440Y-7194300D02*
X17438440Y-7224300D01*
X17450040Y-9405860D02*
X17480040Y-9435860D01*
X17480040Y-9405860D02*
X17450040Y-9435860D01*
X17484500Y-5575000D02*
X17514500Y-5605000D01*
X17514500Y-5575000D02*
X17484500Y-5605000D01*
X17485000Y-5065000D02*
X17515000Y-5095000D01*
X17515000Y-5065000D02*
X17485000Y-5095000D01*
X17485600Y-8448280D02*
X17515600Y-8478280D01*
X17515600Y-8448280D02*
X17485600Y-8478280D01*
X17500000Y-11290000D02*
X17530000Y-11320000D01*
X17530000Y-11290000D02*
X17500000Y-11320000D01*
X17500330Y-10335345D02*
X17530330Y-10365345D01*
X17530330Y-10335345D02*
X17500330Y-10365345D01*
X17511000Y-8814040D02*
X17541000Y-8844040D01*
X17541000Y-8814040D02*
X17511000Y-8844040D01*
X17526240Y-9748760D02*
X17556240Y-9778760D01*
X17556240Y-9748760D02*
X17526240Y-9778760D01*
X17542860Y-7143480D02*
X17572860Y-7173480D01*
X17572860Y-7143480D02*
X17542860Y-7173480D01*
X17554180Y-9134080D02*
X17584180Y-9164080D01*
X17584180Y-9134080D02*
X17554180Y-9164080D01*
X17561800Y-10073880D02*
X17591800Y-10103880D01*
X17591800Y-10073880D02*
X17561800Y-10103880D01*
X17564340Y-10472660D02*
X17594340Y-10502660D01*
X17594340Y-10472660D02*
X17564340Y-10502660D01*
X17574500Y-11249900D02*
X17604500Y-11279900D01*
X17604500Y-11249900D02*
X17574500Y-11279900D01*
X17582120Y-10805400D02*
X17612120Y-10835400D01*
X17612120Y-10805400D02*
X17582120Y-10835400D01*
X17589740Y-11392140D02*
X17619740Y-11422140D01*
X17619740Y-11392140D02*
X17589740Y-11422140D01*
X17625300Y-8819120D02*
X17655300Y-8849120D01*
X17655300Y-8819120D02*
X17625300Y-8849120D01*
X17625300Y-9504920D02*
X17655300Y-9534920D01*
X17655300Y-9504920D02*
X17625300Y-9534920D01*
X17645358Y-6997230D02*
X17675358Y-7027230D01*
X17675358Y-6997230D02*
X17645358Y-7027230D01*
X17645361Y-6789730D02*
X17675361Y-6819730D01*
X17675361Y-6789730D02*
X17645361Y-6819730D01*
X17683720Y-6495020D02*
X17713720Y-6525020D01*
X17713720Y-6495020D02*
X17683720Y-6525020D01*
X17692500Y-9922500D02*
X17722500Y-9952500D01*
X17722500Y-9922500D02*
X17692500Y-9952500D01*
X17717725Y-11178365D02*
X17747725Y-11208365D01*
X17747725Y-11178365D02*
X17717725Y-11208365D01*
X17723975Y-10992790D02*
X17753975Y-11022790D01*
X17753975Y-10992790D02*
X17723975Y-11022790D01*
X17731250Y-9628750D02*
X17761250Y-9658750D01*
X17761250Y-9628750D02*
X17731250Y-9658750D01*
X17770080Y-11674080D02*
X17800080Y-11704080D01*
X17800080Y-11674080D02*
X17770080Y-11704080D01*
X17775160Y-10518380D02*
X17805160Y-10548380D01*
X17805160Y-10518380D02*
X17775160Y-10548380D01*
X17777360Y-6742980D02*
X17807360Y-6772980D01*
X17807360Y-6742980D02*
X17777360Y-6772980D01*
X17800170Y-11392140D02*
X17830170Y-11422140D01*
X17830170Y-11392140D02*
X17800170Y-11422140D01*
X17835360Y-6760980D02*
X17865360Y-6790980D01*
X17865360Y-6760980D02*
X17835360Y-6790980D01*
X17842860Y-7023480D02*
X17872860Y-7053480D01*
X17872860Y-7023480D02*
X17842860Y-7053480D01*
X17845360Y-7370980D02*
X17875360Y-7400980D01*
X17875360Y-7370980D02*
X17845360Y-7400980D01*
X17886919Y-10097133D02*
X17916919Y-10127133D01*
X17916919Y-10097133D02*
X17886919Y-10127133D01*
X17886919Y-9438488D02*
X17916919Y-9468488D01*
X17916919Y-9438488D02*
X17886919Y-9468488D01*
X17886921Y-9230992D02*
X17916921Y-9260992D01*
X17916921Y-9230992D02*
X17886921Y-9260992D01*
X17886921Y-10304631D02*
X17916921Y-10334631D01*
X17916921Y-10304631D02*
X17886921Y-10334631D01*
X17894540Y-11602960D02*
X17924540Y-11632960D01*
X17924540Y-11602960D02*
X17894540Y-11632960D01*
X17909488Y-9023552D02*
X17939488Y-9053552D01*
X17939488Y-9023552D02*
X17909488Y-9053552D01*
X17922480Y-11864580D02*
X17952480Y-11894580D01*
X17952480Y-11864580D02*
X17922480Y-11894580D01*
X17935000Y-12715000D02*
X17965000Y-12745000D01*
X17965000Y-12715000D02*
X17935000Y-12745000D01*
X17942860Y-6994191D02*
X17972860Y-7024191D01*
X17972860Y-6994191D02*
X17942860Y-7024191D01*
X17981000Y-12765000D02*
X18011000Y-12795000D01*
X18011000Y-12765000D02*
X17981000Y-12795000D01*
X18031700Y-9101060D02*
X18061700Y-9131060D01*
X18061700Y-9101060D02*
X18031700Y-9131060D01*
X18067830Y-9626840D02*
X18097830Y-9656840D01*
X18097830Y-9626840D02*
X18067830Y-9656840D01*
X18090120Y-6086080D02*
X18120120Y-6116080D01*
X18120120Y-6086080D02*
X18090120Y-6116080D01*
X18122860Y-7633480D02*
X18152860Y-7663480D01*
X18152860Y-7633480D02*
X18122860Y-7663480D01*
X18135360Y-7370980D02*
X18165360Y-7400980D01*
X18165360Y-7370980D02*
X18135360Y-7400980D01*
X18153740Y-5228120D02*
X18183740Y-5258120D01*
X18183740Y-5228120D02*
X18153740Y-5258120D01*
X18154380Y-5831049D02*
X18184380Y-5861049D01*
X18184380Y-5831049D02*
X18154380Y-5861049D01*
X18158740Y-5473120D02*
X18188740Y-5503120D01*
X18188740Y-5473120D02*
X18158740Y-5503120D01*
X18186440Y-5881049D02*
X18216440Y-5911049D01*
X18216440Y-5881049D02*
X18186440Y-5911049D01*
X18212040Y-8687040D02*
X18242040Y-8717040D01*
X18242040Y-8687040D02*
X18212040Y-8717040D01*
X18212040Y-8758160D02*
X18242040Y-8788160D01*
X18242040Y-8758160D02*
X18212040Y-8788160D01*
X18250140Y-10515840D02*
X18280140Y-10545840D01*
X18280140Y-10515840D02*
X18250140Y-10545840D01*
X18252680Y-10924780D02*
X18282680Y-10954780D01*
X18282680Y-10924780D02*
X18252680Y-10954780D01*
X18257760Y-10716500D02*
X18287760Y-10746500D01*
X18287760Y-10716500D02*
X18257760Y-10746500D01*
X18267860Y-7010980D02*
X18297860Y-7040980D01*
X18297860Y-7010980D02*
X18267860Y-7040980D01*
X18275540Y-10251680D02*
X18305540Y-10281680D01*
X18305540Y-10251680D02*
X18275540Y-10281680D01*
X18276860Y-6808580D02*
X18306860Y-6838580D01*
X18306860Y-6808580D02*
X18276860Y-6838580D01*
X18278320Y-7927510D02*
X18308320Y-7957510D01*
X18308320Y-7927510D02*
X18278320Y-7957510D01*
X18288240Y-4978531D02*
X18318240Y-5008531D01*
X18318240Y-4978531D02*
X18288240Y-5008531D01*
X18288240Y-5222031D02*
X18318240Y-5252031D01*
X18318240Y-5222031D02*
X18288240Y-5252031D01*
X18288240Y-5476781D02*
X18318240Y-5506781D01*
X18318240Y-5476781D02*
X18288240Y-5506781D01*
X18300940Y-6301980D02*
X18330940Y-6331980D01*
X18330940Y-6301980D02*
X18300940Y-6331980D01*
X18335360Y-7370980D02*
X18365360Y-7400980D01*
X18365360Y-7370980D02*
X18335360Y-7400980D01*
X18352860Y-7583480D02*
X18382860Y-7613480D01*
X18382860Y-7583480D02*
X18352860Y-7613480D01*
X18384880Y-5778121D02*
X18414880Y-5808121D01*
X18414880Y-5778121D02*
X18384880Y-5808121D01*
X18418740Y-5223120D02*
X18448740Y-5253120D01*
X18448740Y-5223120D02*
X18418740Y-5253120D01*
X18435560Y-9230600D02*
X18465560Y-9260600D01*
X18465560Y-9230600D02*
X18435560Y-9260600D01*
X18445360Y-7520980D02*
X18475360Y-7550980D01*
X18475360Y-7520980D02*
X18445360Y-7550980D01*
X18453340Y-9708120D02*
X18483340Y-9738120D01*
X18483340Y-9708120D02*
X18453340Y-9738120D01*
X18455360Y-6860980D02*
X18485360Y-6890980D01*
X18485360Y-6860980D02*
X18455360Y-6890980D01*
X18465650Y-10713960D02*
X18495650Y-10743960D01*
X18495650Y-10713960D02*
X18465650Y-10743960D01*
X18506680Y-6301980D02*
X18536680Y-6331980D01*
X18536680Y-6301980D02*
X18506680Y-6331980D01*
X18506680Y-9959580D02*
X18536680Y-9989580D01*
X18536680Y-9959580D02*
X18506680Y-9989580D01*
X18580340Y-9436340D02*
X18610340Y-9466340D01*
X18610340Y-9436340D02*
X18580340Y-9466340D01*
X18605980Y-7696370D02*
X18635980Y-7726370D01*
X18635980Y-7696370D02*
X18605980Y-7726370D01*
X18605980Y-7821220D02*
X18635980Y-7851220D01*
X18635980Y-7821220D02*
X18605980Y-7851220D01*
X18605982Y-7488869D02*
X18635982Y-7518869D01*
X18635982Y-7488869D02*
X18605982Y-7518869D01*
X18620980Y-11394680D02*
X18650980Y-11424680D01*
X18650980Y-11394680D02*
X18620980Y-11424680D01*
X18631140Y-6990320D02*
X18661140Y-7020320D01*
X18661140Y-6990320D02*
X18631140Y-7020320D01*
X18631142Y-6772270D02*
X18661142Y-6802270D01*
X18661142Y-6772270D02*
X18631142Y-6802270D01*
X18659080Y-9690340D02*
X18689080Y-9720340D01*
X18689080Y-9690340D02*
X18659080Y-9720340D01*
X18676860Y-6030200D02*
X18706860Y-6060200D01*
X18706860Y-6030200D02*
X18676860Y-6060200D01*
X18702260Y-9395700D02*
X18732260Y-9425700D01*
X18732260Y-9395700D02*
X18702260Y-9425700D01*
X18708309Y-9867172D02*
X18738309Y-9897172D01*
X18738309Y-9867172D02*
X18708309Y-9897172D01*
X18722537Y-9936119D02*
X18752537Y-9966119D01*
X18752537Y-9936119D02*
X18722537Y-9966119D01*
X18722580Y-10589500D02*
X18752580Y-10619500D01*
X18752580Y-10589500D02*
X18722580Y-10619500D01*
X18722580Y-10660620D02*
X18752580Y-10690620D01*
X18752580Y-10660620D02*
X18722580Y-10690620D01*
X18725120Y-10449800D02*
X18755120Y-10479800D01*
X18755120Y-10449800D02*
X18725120Y-10479800D01*
X18725120Y-10513300D02*
X18755120Y-10543300D01*
X18755120Y-10513300D02*
X18725120Y-10543300D01*
X18732870Y-9690463D02*
X18762870Y-9720463D01*
X18762870Y-9690463D02*
X18732870Y-9720463D01*
X18754330Y-11025110D02*
X18784330Y-11055110D01*
X18784330Y-11025110D02*
X18754330Y-11055110D01*
X18760680Y-10716500D02*
X18790680Y-10746500D01*
X18790680Y-10716500D02*
X18760680Y-10746500D01*
X18761660Y-5042940D02*
X18791660Y-5072940D01*
X18791660Y-5042940D02*
X18761660Y-5072940D01*
X18761660Y-5142940D02*
X18791660Y-5172940D01*
X18791660Y-5142940D02*
X18761660Y-5172940D01*
X18765760Y-11087340D02*
X18795760Y-11117340D01*
X18795760Y-11087340D02*
X18765760Y-11117340D01*
X18765760Y-11625820D02*
X18795760Y-11655820D01*
X18795760Y-11625820D02*
X18765760Y-11655820D01*
X18796240Y-11498820D02*
X18826240Y-11528820D01*
X18826240Y-11498820D02*
X18796240Y-11528820D01*
X18874980Y-11237200D02*
X18904980Y-11267200D01*
X18904980Y-11237200D02*
X18874980Y-11267200D01*
X18877520Y-8760700D02*
X18907520Y-8790700D01*
X18907520Y-8760700D02*
X18877520Y-8790700D01*
X18882600Y-11445480D02*
X18912600Y-11475480D01*
X18912600Y-11445480D02*
X18882600Y-11475480D01*
X18905000Y-12675000D02*
X18935000Y-12705000D01*
X18935000Y-12675000D02*
X18905000Y-12705000D01*
X18905000Y-12735000D02*
X18935000Y-12765000D01*
X18935000Y-12735000D02*
X18905000Y-12765000D01*
X18905000Y-12795000D02*
X18935000Y-12825000D01*
X18935000Y-12795000D02*
X18905000Y-12825000D01*
X18906400Y-12148500D02*
X18936400Y-12178500D01*
X18936400Y-12148500D02*
X18906400Y-12178500D01*
X18906400Y-12208500D02*
X18936400Y-12238500D01*
X18936400Y-12208500D02*
X18906400Y-12238500D01*
X18906400Y-12278500D02*
X18936400Y-12308500D01*
X18936400Y-12278500D02*
X18906400Y-12308500D01*
X18911660Y-5042940D02*
X18941660Y-5072940D01*
X18941660Y-5042940D02*
X18911660Y-5072940D01*
X18911660Y-5142940D02*
X18941660Y-5172940D01*
X18941660Y-5142940D02*
X18911660Y-5172940D01*
X18979120Y-11061940D02*
X19009120Y-11091940D01*
X19009120Y-11061940D02*
X18979120Y-11091940D01*
X18989280Y-11254980D02*
X19019280Y-11284980D01*
X19019280Y-11254980D02*
X18989280Y-11284980D01*
X18991820Y-11618200D02*
X19021820Y-11648200D01*
X19021820Y-11618200D02*
X18991820Y-11648200D01*
X18996380Y-8694660D02*
X19026380Y-8724660D01*
X19026380Y-8694660D02*
X18996380Y-8724660D01*
X19012140Y-9327120D02*
X19042140Y-9357120D01*
X19042140Y-9327120D02*
X19012140Y-9357120D01*
X19014680Y-9233140D02*
X19044680Y-9263140D01*
X19044680Y-9233140D02*
X19014680Y-9263140D01*
X19017698Y-11440280D02*
X19047698Y-11470280D01*
X19047698Y-11440280D02*
X19017698Y-11470280D01*
X19022300Y-9667870D02*
X19052300Y-9697870D01*
X19052300Y-9667870D02*
X19022300Y-9697870D01*
X19022301Y-9875370D02*
X19052301Y-9905370D01*
X19052301Y-9875370D02*
X19022301Y-9905370D01*
X19022870Y-9771620D02*
X19052870Y-9801620D01*
X19052870Y-9771620D02*
X19022870Y-9801620D01*
X19051660Y-5042940D02*
X19081660Y-5072940D01*
X19081660Y-5042940D02*
X19051660Y-5072940D01*
X19051660Y-5142940D02*
X19081660Y-5172940D01*
X19081660Y-5142940D02*
X19051660Y-5172940D01*
X19071500Y-12148500D02*
X19101500Y-12178500D01*
X19101500Y-12148500D02*
X19071500Y-12178500D01*
X19071500Y-12208500D02*
X19101500Y-12238500D01*
X19101500Y-12208500D02*
X19071500Y-12238500D01*
X19071500Y-12278500D02*
X19101500Y-12308500D01*
X19101500Y-12278500D02*
X19071500Y-12308500D01*
X19085000Y-12675000D02*
X19115000Y-12705000D01*
X19115000Y-12675000D02*
X19085000Y-12705000D01*
X19085000Y-12735000D02*
X19115000Y-12765000D01*
X19115000Y-12735000D02*
X19085000Y-12765000D01*
X19085000Y-12795000D02*
X19115000Y-12825000D01*
X19115000Y-12795000D02*
X19085000Y-12825000D01*
X19116280Y-8433040D02*
X19146280Y-8463040D01*
X19146280Y-8433040D02*
X19116280Y-8463040D01*
X19146760Y-11966180D02*
X19176760Y-11996180D01*
X19176760Y-11966180D02*
X19146760Y-11996180D01*
X19174700Y-11270220D02*
X19204700Y-11300220D01*
X19204700Y-11270220D02*
X19174700Y-11300220D01*
X19179780Y-11023840D02*
X19209780Y-11053840D01*
X19209780Y-11023840D02*
X19179780Y-11053840D01*
X19198500Y-12148500D02*
X19228500Y-12178500D01*
X19228500Y-12148500D02*
X19198500Y-12178500D01*
X19198500Y-12208500D02*
X19228500Y-12238500D01*
X19228500Y-12208500D02*
X19198500Y-12238500D01*
X19198500Y-12278500D02*
X19228500Y-12308500D01*
X19228500Y-12278500D02*
X19198500Y-12308500D01*
X19201660Y-5042940D02*
X19231660Y-5072940D01*
X19231660Y-5042940D02*
X19201660Y-5072940D01*
X19201660Y-5142940D02*
X19231660Y-5172940D01*
X19231660Y-5142940D02*
X19201660Y-5172940D01*
X19243280Y-8433040D02*
X19273280Y-8463040D01*
X19273280Y-8433040D02*
X19243280Y-8463040D01*
X19243280Y-11486120D02*
X19273280Y-11516120D01*
X19273280Y-11486120D02*
X19243280Y-11516120D01*
X19250172Y-11024923D02*
X19280172Y-11054923D01*
X19280172Y-11024923D02*
X19250172Y-11054923D01*
X19251000Y-12465000D02*
X19281000Y-12495000D01*
X19281000Y-12465000D02*
X19251000Y-12495000D01*
X19322020Y-11392140D02*
X19352020Y-11422140D01*
X19352020Y-11392140D02*
X19322020Y-11422140D01*
X19327100Y-11072100D02*
X19357100Y-11102100D01*
X19357100Y-11072100D02*
X19327100Y-11102100D01*
X19355040Y-11966180D02*
X19385040Y-11996180D01*
X19385040Y-11966180D02*
X19355040Y-11996180D01*
X19357580Y-11811240D02*
X19387580Y-11841240D01*
X19387580Y-11811240D02*
X19357580Y-11841240D01*
X19370280Y-8933420D02*
X19400280Y-8963420D01*
X19400280Y-8933420D02*
X19370280Y-8963420D01*
X19375000Y-12555000D02*
X19405000Y-12585000D01*
X19405000Y-12555000D02*
X19375000Y-12585000D01*
X19375000Y-12615000D02*
X19405000Y-12645000D01*
X19405000Y-12615000D02*
X19375000Y-12645000D01*
X19375000Y-12675000D02*
X19405000Y-12705000D01*
X19405000Y-12675000D02*
X19375000Y-12705000D01*
X19375000Y-12735000D02*
X19405000Y-12765000D01*
X19405000Y-12735000D02*
X19375000Y-12765000D01*
X19376300Y-12148500D02*
X19406300Y-12178500D01*
X19406300Y-12148500D02*
X19376300Y-12178500D01*
X19376300Y-12208500D02*
X19406300Y-12238500D01*
X19406300Y-12208500D02*
X19376300Y-12238500D01*
X19376300Y-12278500D02*
X19406300Y-12308500D01*
X19406300Y-12278500D02*
X19376300Y-12308500D01*
X19435000Y-12555000D02*
X19465000Y-12585000D01*
X19465000Y-12555000D02*
X19435000Y-12585000D01*
X19435000Y-12615000D02*
X19465000Y-12645000D01*
X19465000Y-12615000D02*
X19435000Y-12645000D01*
X19435000Y-12675000D02*
X19465000Y-12705000D01*
X19465000Y-12675000D02*
X19435000Y-12705000D01*
X19435000Y-12735000D02*
X19465000Y-12765000D01*
X19465000Y-12735000D02*
X19435000Y-12765000D01*
X19515060Y-11567790D02*
X19545060Y-11597790D01*
X19545060Y-11567790D02*
X19515060Y-11597790D01*
X19520140Y-11775680D02*
X19550140Y-11805680D01*
X19550140Y-11775680D02*
X19520140Y-11805680D01*
X19525218Y-9871070D02*
X19555218Y-9901070D01*
X19555218Y-9871070D02*
X19525218Y-9901070D01*
X19525221Y-10078570D02*
X19555221Y-10108570D01*
X19555221Y-10078570D02*
X19525221Y-10108570D01*
X19667460Y-12621500D02*
X19697460Y-12651500D01*
X19697460Y-12621500D02*
X19667460Y-12651500D01*
X19672540Y-12207480D02*
X19702540Y-12237480D01*
X19702540Y-12207480D02*
X19672540Y-12237480D01*
X19692860Y-8544800D02*
X19722860Y-8574800D01*
X19722860Y-8544800D02*
X19692860Y-8574800D01*
X19695400Y-8755230D02*
X19725400Y-8785230D01*
X19725400Y-8755230D02*
X19695400Y-8785230D01*
X19708490Y-11343880D02*
X19738490Y-11373880D01*
X19738490Y-11343880D02*
X19708490Y-11373880D01*
X19711030Y-11143220D02*
X19741030Y-11173220D01*
X19741030Y-11143220D02*
X19711030Y-11173220D01*
X19720800Y-11775680D02*
X19750800Y-11805680D01*
X19750800Y-11775680D02*
X19720800Y-11805680D01*
X19723340Y-11565250D02*
X19753340Y-11595250D01*
X19753340Y-11565250D02*
X19723340Y-11595250D01*
X19776680Y-9146780D02*
X19806680Y-9176780D01*
X19806680Y-9146780D02*
X19776680Y-9176780D01*
X19842878Y-10795008D02*
X19872878Y-10825008D01*
X19872878Y-10795008D02*
X19842878Y-10825008D01*
X19875740Y-11564860D02*
X19905740Y-11594860D01*
X19905740Y-11564860D02*
X19875740Y-11594860D01*
X19880820Y-11491200D02*
X19910820Y-11521200D01*
X19910820Y-11491200D02*
X19880820Y-11521200D01*
X19883360Y-11635980D02*
X19913360Y-11665980D01*
X19913360Y-11635980D02*
X19883360Y-11665980D01*
X19884180Y-12208260D02*
X19914180Y-12238260D01*
X19914180Y-12208260D02*
X19884180Y-12238260D01*
X19916380Y-11341340D02*
X19946380Y-11371340D01*
X19946380Y-11341340D02*
X19916380Y-11371340D01*
X19921460Y-11143220D02*
X19951460Y-11173220D01*
X19951460Y-11143220D02*
X19921460Y-11173220D01*
X19942170Y-10586960D02*
X19972170Y-10616960D01*
X19972170Y-10586960D02*
X19942170Y-10616960D01*
X19946860Y-11491200D02*
X19976860Y-11521200D01*
X19976860Y-11491200D02*
X19946860Y-11521200D01*
X19949400Y-11638520D02*
X19979400Y-11668520D01*
X19979400Y-11638520D02*
X19949400Y-11668520D01*
X19951940Y-11562320D02*
X19981940Y-11592320D01*
X19981940Y-11562320D02*
X19951940Y-11592320D01*
X20035760Y-10785080D02*
X20065760Y-10815080D01*
X20065760Y-10785080D02*
X20035760Y-10815080D01*
X20066240Y-9970130D02*
X20096240Y-10000130D01*
X20096240Y-9970130D02*
X20066240Y-10000130D01*
X20066240Y-10178020D02*
X20096240Y-10208020D01*
X20096240Y-10178020D02*
X20066240Y-10208020D01*
X20081480Y-10391380D02*
X20111480Y-10421380D01*
X20111480Y-10391380D02*
X20081480Y-10421380D01*
X20150060Y-10586960D02*
X20180060Y-10616960D01*
X20180060Y-10586960D02*
X20150060Y-10616960D01*
X20193240Y-11265140D02*
X20223240Y-11295140D01*
X20223240Y-11265140D02*
X20193240Y-11295140D01*
X20223720Y-11326100D02*
X20253720Y-11356100D01*
X20253720Y-11326100D02*
X20223720Y-11356100D01*
X20264360Y-11262600D02*
X20294360Y-11292600D01*
X20294360Y-11262600D02*
X20264360Y-11292600D01*
X20279600Y-10172940D02*
X20309600Y-10202940D01*
X20309600Y-10172940D02*
X20279600Y-10202940D01*
X20287220Y-10388840D02*
X20317220Y-10418840D01*
X20317220Y-10388840D02*
X20287220Y-10418840D01*
X20360880Y-10932400D02*
X20390880Y-10962400D01*
X20390880Y-10932400D02*
X20360880Y-10962400D01*
X20360880Y-11130520D02*
X20390880Y-11160520D01*
X20390880Y-11130520D02*
X20360880Y-11160520D01*
X20475000Y-8425000D02*
X20505000Y-8455000D01*
X20505000Y-8425000D02*
X20475000Y-8455000D01*
X20632000Y-8068000D02*
X20662000Y-8098000D01*
X20662000Y-8068000D02*
X20632000Y-8098000D01*
X20632500Y-9857500D02*
X20662500Y-9887500D01*
X20662500Y-9857500D02*
X20632500Y-9887500D01*
X20655000Y-9725000D02*
X20685000Y-9755000D01*
X20685000Y-9725000D02*
X20655000Y-9755000D01*
X20725000Y-9482150D02*
X20755000Y-9512150D01*
X20755000Y-9482150D02*
X20725000Y-9512150D01*
X20725000Y-9545000D02*
X20755000Y-9575000D01*
X20755000Y-9545000D02*
X20725000Y-9575000D01*
X20725000Y-9605000D02*
X20755000Y-9635000D01*
X20755000Y-9605000D02*
X20725000Y-9635000D01*
X20725000Y-9725000D02*
X20755000Y-9755000D01*
X20755000Y-9725000D02*
X20725000Y-9755000D01*
X20736800Y-9955000D02*
X20766800Y-9985000D01*
X20766800Y-9955000D02*
X20736800Y-9985000D01*
X20736800Y-10015000D02*
X20766800Y-10045000D01*
X20766800Y-10015000D02*
X20736800Y-10045000D01*
X20736800Y-10075000D02*
X20766800Y-10105000D01*
X20766800Y-10075000D02*
X20736800Y-10105000D01*
X20845000Y-12050000D02*
X20875000Y-12080000D01*
X20875000Y-12050000D02*
X20845000Y-12080000D01*
X20845000Y-12120000D02*
X20875000Y-12150000D01*
X20875000Y-12120000D02*
X20845000Y-12150000D01*
X20985000Y-9725000D02*
X21015000Y-9755000D01*
X21015000Y-9725000D02*
X20985000Y-9755000D01*
X20985000Y-9825000D02*
X21015000Y-9855000D01*
X21015000Y-9825000D02*
X20985000Y-9855000D01*
X20988100Y-9955000D02*
X21018100Y-9985000D01*
X21018100Y-9955000D02*
X20988100Y-9985000D01*
X20988100Y-10015000D02*
X21018100Y-10045000D01*
X21018100Y-10015000D02*
X20988100Y-10045000D01*
X20988100Y-10075000D02*
X21018100Y-10105000D01*
X21018100Y-10075000D02*
X20988100Y-10105000D01*
X20995000Y-9482150D02*
X21025000Y-9512150D01*
X21025000Y-9482150D02*
X20995000Y-9512150D01*
X20995000Y-9545000D02*
X21025000Y-9575000D01*
X21025000Y-9545000D02*
X20995000Y-9575000D01*
X20995000Y-9605000D02*
X21025000Y-9635000D01*
X21025000Y-9605000D02*
X20995000Y-9635000D01*
X21025000Y-12050000D02*
X21055000Y-12080000D01*
X21055000Y-12050000D02*
X21025000Y-12080000D01*
X21025000Y-12120000D02*
X21055000Y-12150000D01*
X21055000Y-12120000D02*
X21025000Y-12150000D01*
X21145000Y-9212150D02*
X21175000Y-9242150D01*
X21175000Y-9212150D02*
X21145000Y-9242150D01*
X21145000Y-9275000D02*
X21175000Y-9305000D01*
X21175000Y-9275000D02*
X21145000Y-9305000D01*
X21145000Y-9335000D02*
X21175000Y-9365000D01*
X21175000Y-9335000D02*
X21145000Y-9365000D01*
X21333700Y-9212150D02*
X21363700Y-9242150D01*
X21363700Y-9212150D02*
X21333700Y-9242150D01*
X21333700Y-9275000D02*
X21363700Y-9305000D01*
X21363700Y-9275000D02*
X21333700Y-9305000D01*
X21333700Y-9335000D02*
X21363700Y-9365000D01*
X21363700Y-9335000D02*
X21333700Y-9365000D01*
X21435000Y-9545000D02*
X21465000Y-9575000D01*
X21465000Y-9545000D02*
X21435000Y-9575000D01*
X21435000Y-10005000D02*
X21465000Y-10035000D01*
X21465000Y-10005000D02*
X21435000Y-10035000D01*
X21495000Y-9545000D02*
X21525000Y-9575000D01*
X21525000Y-9545000D02*
X21495000Y-9575000D01*
X21495000Y-10005000D02*
X21525000Y-10035000D01*
X21525000Y-10005000D02*
X21495000Y-10035000D01*
X21555000Y-9545000D02*
X21585000Y-9575000D01*
X21585000Y-9545000D02*
X21555000Y-9575000D01*
X21555000Y-10005000D02*
X21585000Y-10035000D01*
X21585000Y-10005000D02*
X21555000Y-10035000D01*
X19086250Y-10695000D02*
G75*
G02*
X19056250Y-10695000I-15000J0D01*
G01*
X19056250Y-10695000D02*
G75*
G02*
X19086250Y-10695000I15000J0D01*
G01*
X19086250Y-10965000D02*
G75*
G02*
X19056250Y-10965000I-15000J0D01*
G01*
X19056250Y-10965000D02*
G75*
G02*
X19086250Y-10965000I15000J0D01*
G01*
X19086630Y-10830000D02*
G75*
G02*
X19056630Y-10830000I-15000J0D01*
G01*
X19056630Y-10830000D02*
G75*
G02*
X19086630Y-10830000I15000J0D01*
G01*
X19221250Y-10695380D02*
G75*
G02*
X19191250Y-10695380I-15000J0D01*
G01*
X19191250Y-10695380D02*
G75*
G02*
X19221250Y-10695380I15000J0D01*
G01*
X19221250Y-10830000D02*
G75*
G02*
X19191250Y-10830000I-15000J0D01*
G01*
X19191250Y-10830000D02*
G75*
G02*
X19221250Y-10830000I15000J0D01*
G01*
X19221250Y-10964620D02*
G75*
G02*
X19191250Y-10964620I-15000J0D01*
G01*
X19191250Y-10964620D02*
G75*
G02*
X19221250Y-10964620I15000J0D01*
G01*
X19355870Y-10830000D02*
G75*
G02*
X19325870Y-10830000I-15000J0D01*
G01*
X19325870Y-10830000D02*
G75*
G02*
X19355870Y-10830000I15000J0D01*
G01*
X19356250Y-10695000D02*
G75*
G02*
X19326250Y-10695000I-15000J0D01*
G01*
X19326250Y-10695000D02*
G75*
G02*
X19356250Y-10695000I15000J0D01*
G01*
X19356250Y-10965000D02*
G75*
G02*
X19326250Y-10965000I-15000J0D01*
G01*
X19326250Y-10965000D02*
G75*
G02*
X19356250Y-10965000I15000J0D01*
G01*
X20265500Y-12586900D02*
X20265500Y-12676900D01*
X20220500Y-12631900D02*
X20310500Y-12631900D01*
X20220500Y-12606900D02*
X20220500Y-12656900D01*
X20310500Y-12656900D02*
G75*
G02*
X20220500Y-12656900I-45000J0D01*
G01*
X20310500Y-12656900D02*
X20310500Y-12606900D01*
X20310500Y-12606900D02*
G75*
G03*
X20220500Y-12606900I-45000J0D01*
G01*
X20831500Y-12586900D02*
X20831500Y-12676900D01*
X20786500Y-12631900D02*
X20876500Y-12631900D01*
X20786500Y-12606900D02*
X20786500Y-12656900D01*
X20876500Y-12656900D02*
G75*
G02*
X20786500Y-12656900I-45000J0D01*
G01*
X20876500Y-12656900D02*
X20876500Y-12606900D01*
X20876500Y-12606900D02*
G75*
G03*
X20786500Y-12606900I-45000J0D01*
G01*
X20861220Y-10733500D02*
X20861220Y-10823500D01*
X20816220Y-10778500D02*
X20906220Y-10778500D01*
X20861220Y-10983500D02*
X20861220Y-11073500D01*
X20816220Y-11028500D02*
X20906220Y-11028500D01*
X20861220Y-11183500D02*
X20861220Y-11273500D01*
X20816220Y-11228500D02*
X20906220Y-11228500D01*
X20861220Y-11433500D02*
X20861220Y-11523500D01*
X20816220Y-11478500D02*
X20906220Y-11478500D01*
X12552356Y-4461356D02*
X12552356Y-4390644D01*
X12481644Y-4390644D01*
X12481644Y-4461356D01*
X12552356Y-4461356D01*
X12552356Y-4715356D02*
X12552356Y-4644644D01*
X12481644Y-4644644D01*
X12481644Y-4715356D01*
X12552356Y-4715356D01*
X12806356Y-4461356D02*
X12806356Y-4390644D01*
X12735644Y-4390644D01*
X12735644Y-4461356D01*
X12806356Y-4461356D01*
X12806356Y-4715356D02*
X12806356Y-4644644D01*
X12735644Y-4644644D01*
X12735644Y-4715356D01*
X12806356Y-4715356D01*
X13060356Y-4461356D02*
X13060356Y-4390644D01*
X12989644Y-4390644D01*
X12989644Y-4461356D01*
X13060356Y-4461356D01*
X13060356Y-4715356D02*
X13060356Y-4644644D01*
X12989644Y-4644644D01*
X12989644Y-4715356D01*
X13060356Y-4715356D01*
X13314356Y-4461356D02*
X13314356Y-4390644D01*
X13243644Y-4390644D01*
X13243644Y-4461356D01*
X13314356Y-4461356D01*
X13314356Y-4715356D02*
X13314356Y-4644644D01*
X13243644Y-4644644D01*
X13243644Y-4715356D01*
X13314356Y-4715356D01*
X13568356Y-4461356D02*
X13568356Y-4390644D01*
X13497644Y-4390644D01*
X13497644Y-4461356D01*
X13568356Y-4461356D01*
X13568356Y-4715356D02*
X13568356Y-4644644D01*
X13497644Y-4644644D01*
X13497644Y-4715356D01*
X13568356Y-4715356D01*
X13586256Y-12189256D02*
X13586256Y-12118544D01*
X13515544Y-12118544D01*
X13515544Y-12189256D01*
X13586256Y-12189256D01*
X13586256Y-12443256D02*
X13586256Y-12372544D01*
X13515544Y-12372544D01*
X13515544Y-12443256D01*
X13586256Y-12443256D01*
X13822356Y-4461356D02*
X13822356Y-4390644D01*
X13751644Y-4390644D01*
X13751644Y-4461356D01*
X13822356Y-4461356D01*
X13822356Y-4715356D02*
X13822356Y-4644644D01*
X13751644Y-4644644D01*
X13751644Y-4715356D01*
X13822356Y-4715356D01*
X13840256Y-12189256D02*
X13840256Y-12118544D01*
X13769544Y-12118544D01*
X13769544Y-12189256D01*
X13840256Y-12189256D01*
X13840256Y-12443256D02*
X13840256Y-12372544D01*
X13769544Y-12372544D01*
X13769544Y-12443256D01*
X13840256Y-12443256D01*
X14076356Y-4461356D02*
X14076356Y-4390644D01*
X14005644Y-4390644D01*
X14005644Y-4461356D01*
X14076356Y-4461356D01*
X14076356Y-4715356D02*
X14076356Y-4644644D01*
X14005644Y-4644644D01*
X14005644Y-4715356D01*
X14076356Y-4715356D01*
X14094256Y-12189256D02*
X14094256Y-12118544D01*
X14023544Y-12118544D01*
X14023544Y-12189256D01*
X14094256Y-12189256D01*
X14094256Y-12443256D02*
X14094256Y-12372544D01*
X14023544Y-12372544D01*
X14023544Y-12443256D01*
X14094256Y-12443256D01*
X14330356Y-4461356D02*
X14330356Y-4390644D01*
X14259644Y-4390644D01*
X14259644Y-4461356D01*
X14330356Y-4461356D01*
X14330356Y-4715356D02*
X14330356Y-4644644D01*
X14259644Y-4644644D01*
X14259644Y-4715356D01*
X14330356Y-4715356D01*
X14348256Y-12189256D02*
X14348256Y-12118544D01*
X14277544Y-12118544D01*
X14277544Y-12189256D01*
X14348256Y-12189256D01*
X14348256Y-12443256D02*
X14348256Y-12372544D01*
X14277544Y-12372544D01*
X14277544Y-12443256D01*
X14348256Y-12443256D01*
X14584356Y-4461356D02*
X14584356Y-4390644D01*
X14513644Y-4390644D01*
X14513644Y-4461356D01*
X14584356Y-4461356D01*
X14584356Y-4715356D02*
X14584356Y-4644644D01*
X14513644Y-4644644D01*
X14513644Y-4715356D01*
X14584356Y-4715356D01*
X14602256Y-12189256D02*
X14602256Y-12118544D01*
X14531544Y-12118544D01*
X14531544Y-12189256D01*
X14602256Y-12189256D01*
X14602256Y-12443256D02*
X14602256Y-12372544D01*
X14531544Y-12372544D01*
X14531544Y-12443256D01*
X14602256Y-12443256D01*
X14838356Y-4461356D02*
X14838356Y-4390644D01*
X14767644Y-4390644D01*
X14767644Y-4461356D01*
X14838356Y-4461356D01*
X14838356Y-4715356D02*
X14838356Y-4644644D01*
X14767644Y-4644644D01*
X14767644Y-4715356D01*
X14838356Y-4715356D01*
X14856256Y-12189256D02*
X14856256Y-12118544D01*
X14785544Y-12118544D01*
X14785544Y-12189256D01*
X14856256Y-12189256D01*
X14856256Y-12443256D02*
X14856256Y-12372544D01*
X14785544Y-12372544D01*
X14785544Y-12443256D01*
X14856256Y-12443256D01*
X15092356Y-4461356D02*
X15092356Y-4390644D01*
X15021644Y-4390644D01*
X15021644Y-4461356D01*
X15092356Y-4461356D01*
X15092356Y-4715356D02*
X15092356Y-4644644D01*
X15021644Y-4644644D01*
X15021644Y-4715356D01*
X15092356Y-4715356D01*
X15110256Y-12189256D02*
X15110256Y-12118544D01*
X15039544Y-12118544D01*
X15039544Y-12189256D01*
X15110256Y-12189256D01*
X15110256Y-12443256D02*
X15110256Y-12372544D01*
X15039544Y-12372544D01*
X15039544Y-12443256D01*
X15110256Y-12443256D01*
X15346356Y-4461356D02*
X15346356Y-4390644D01*
X15275644Y-4390644D01*
X15275644Y-4461356D01*
X15346356Y-4461356D01*
X15346356Y-4715356D02*
X15346356Y-4644644D01*
X15275644Y-4644644D01*
X15275644Y-4715356D01*
X15346356Y-4715356D01*
X15364256Y-12189256D02*
X15364256Y-12118544D01*
X15293544Y-12118544D01*
X15293544Y-12189256D01*
X15364256Y-12189256D01*
X15364256Y-12443256D02*
X15364256Y-12372544D01*
X15293544Y-12372544D01*
X15293544Y-12443256D01*
X15364256Y-12443256D01*
X15600356Y-4461356D02*
X15600356Y-4390644D01*
X15529644Y-4390644D01*
X15529644Y-4461356D01*
X15600356Y-4461356D01*
X15600356Y-4715356D02*
X15600356Y-4644644D01*
X15529644Y-4644644D01*
X15529644Y-4715356D01*
X15600356Y-4715356D01*
X15618256Y-12189256D02*
X15618256Y-12118544D01*
X15547544Y-12118544D01*
X15547544Y-12189256D01*
X15618256Y-12189256D01*
X15618256Y-12443256D02*
X15618256Y-12372544D01*
X15547544Y-12372544D01*
X15547544Y-12443256D01*
X15618256Y-12443256D01*
X18155356Y-11797856D02*
X18155356Y-11727144D01*
X18084644Y-11727144D01*
X18084644Y-11797856D01*
X18155356Y-11797856D01*
X18155356Y-12051856D02*
X18155356Y-11981144D01*
X18084644Y-11981144D01*
X18084644Y-12051856D01*
X18155356Y-12051856D01*
X18525356Y-11797856D02*
X18525356Y-11727144D01*
X18454644Y-11727144D01*
X18454644Y-11797856D01*
X18525356Y-11797856D01*
X18525356Y-12051856D02*
X18525356Y-11981144D01*
X18454644Y-11981144D01*
X18454644Y-12051856D01*
X18525356Y-12051856D01*
X20685356Y-5929356D02*
X20685356Y-5858644D01*
X20614644Y-5858644D01*
X20614644Y-5929356D01*
X20685356Y-5929356D01*
X20600000Y-5844000D02*
X20600000Y-5944000D01*
X20700000Y-5944000D02*
G75*
G02*
X20600000Y-5944000I-50000J0D01*
G01*
X20700000Y-5944000D02*
X20700000Y-5844000D01*
X20700000Y-5844000D02*
G75*
G03*
X20600000Y-5844000I-50000J0D01*
G01*
X20685356Y-7614356D02*
X20685356Y-7543644D01*
X20614644Y-7543644D01*
X20614644Y-7614356D01*
X20685356Y-7614356D01*
X20600000Y-7529000D02*
X20600000Y-7629000D01*
X20700000Y-7629000D02*
G75*
G02*
X20600000Y-7629000I-50000J0D01*
G01*
X20700000Y-7629000D02*
X20700000Y-7529000D01*
X20700000Y-7529000D02*
G75*
G03*
X20600000Y-7529000I-50000J0D01*
G01*
X21055356Y-6129356D02*
X21055356Y-6058644D01*
X20984644Y-6058644D01*
X20984644Y-6129356D01*
X21055356Y-6129356D01*
X20970000Y-6044000D02*
X20970000Y-6144000D01*
X21070000Y-6144000D02*
G75*
G02*
X20970000Y-6144000I-50000J0D01*
G01*
X21070000Y-6144000D02*
X21070000Y-6044000D01*
X21070000Y-6044000D02*
G75*
G03*
X20970000Y-6044000I-50000J0D01*
G01*
X21055356Y-7814356D02*
X21055356Y-7743644D01*
X20984644Y-7743644D01*
X20984644Y-7814356D01*
X21055356Y-7814356D01*
X20970000Y-7729000D02*
X20970000Y-7829000D01*
X21070000Y-7829000D02*
G75*
G02*
X20970000Y-7829000I-50000J0D01*
G01*
X21070000Y-7829000D02*
X21070000Y-7729000D01*
X21070000Y-7729000D02*
G75*
G03*
X20970000Y-7729000I-50000J0D01*
G01*
X21235356Y-5929356D02*
X21235356Y-5858644D01*
X21164644Y-5858644D01*
X21164644Y-5929356D01*
X21235356Y-5929356D01*
X21150000Y-5844000D02*
X21150000Y-5944000D01*
X21250000Y-5944000D02*
G75*
G02*
X21150000Y-5944000I-50000J0D01*
G01*
X21250000Y-5944000D02*
X21250000Y-5844000D01*
X21250000Y-5844000D02*
G75*
G03*
X21150000Y-5844000I-50000J0D01*
G01*
X21235356Y-7614356D02*
X21235356Y-7543644D01*
X21164644Y-7543644D01*
X21164644Y-7614356D01*
X21235356Y-7614356D01*
X21150000Y-7529000D02*
X21150000Y-7629000D01*
X21250000Y-7629000D02*
G75*
G02*
X21150000Y-7629000I-50000J0D01*
G01*
X21250000Y-7629000D02*
X21250000Y-7529000D01*
X21250000Y-7529000D02*
G75*
G03*
X21150000Y-7529000I-50000J0D01*
G01*
X21605356Y-6129356D02*
X21605356Y-6058644D01*
X21534644Y-6058644D01*
X21534644Y-6129356D01*
X21605356Y-6129356D01*
X21520000Y-6044000D02*
X21520000Y-6144000D01*
X21620000Y-6144000D02*
G75*
G02*
X21520000Y-6144000I-50000J0D01*
G01*
X21620000Y-6144000D02*
X21620000Y-6044000D01*
X21620000Y-6044000D02*
G75*
G03*
X21520000Y-6044000I-50000J0D01*
G01*
X21605356Y-7814356D02*
X21605356Y-7743644D01*
X21534644Y-7743644D01*
X21534644Y-7814356D01*
X21605356Y-7814356D01*
X21520000Y-7729000D02*
X21520000Y-7829000D01*
X21620000Y-7829000D02*
G75*
G02*
X21520000Y-7829000I-50000J0D01*
G01*
X21620000Y-7829000D02*
X21620000Y-7729000D01*
X21620000Y-7729000D02*
G75*
G03*
X21520000Y-7729000I-50000J0D01*
G01*
X21845356Y-5929356D02*
X21845356Y-5858644D01*
X21774644Y-5858644D01*
X21774644Y-5929356D01*
X21845356Y-5929356D01*
X21760000Y-5844000D02*
X21760000Y-5944000D01*
X21860000Y-5944000D02*
G75*
G02*
X21760000Y-5944000I-50000J0D01*
G01*
X21860000Y-5944000D02*
X21860000Y-5844000D01*
X21860000Y-5844000D02*
G75*
G03*
X21760000Y-5844000I-50000J0D01*
G01*
X21845356Y-7614356D02*
X21845356Y-7543644D01*
X21774644Y-7543644D01*
X21774644Y-7614356D01*
X21845356Y-7614356D01*
X21760000Y-7529000D02*
X21760000Y-7629000D01*
X21860000Y-7629000D02*
G75*
G02*
X21760000Y-7629000I-50000J0D01*
G01*
X21860000Y-7629000D02*
X21860000Y-7529000D01*
X21860000Y-7529000D02*
G75*
G03*
X21760000Y-7529000I-50000J0D01*
G01*
D13*
X21132220Y-10533500D02*
X21237220Y-10428500D01*
X21132220Y-10323500D01*
X21027220Y-10428500D01*
X21132220Y-10533500D01*
X21132220Y-11933500D02*
X21237220Y-11828500D01*
X21132220Y-11723500D01*
X21027220Y-11828500D01*
X21132220Y-11933500D01*
D14*
X21405870Y-6589300D02*
X21725870Y-6909300D01*
X21725870Y-6589300D02*
X21405870Y-6909300D01*
X21725870Y-6749300D02*
G75*
G02*
X21405870Y-6749300I-160000J0D01*
G01*
X21405870Y-6749300D02*
G75*
G02*
X21725870Y-6749300I160000J0D01*
G01*
X21405870Y-12240800D02*
X21725870Y-12560800D01*
X21725870Y-12240800D02*
X21405870Y-12560800D01*
X21725870Y-12400800D02*
G75*
G02*
X21405870Y-12400800I-160000J0D01*
G01*
X21405870Y-12400800D02*
G75*
G02*
X21725870Y-12400800I160000J0D01*
G01*
D11*
X11910527Y-13918859D02*
X11910527Y-13718859D01*
X11910527Y-13718859D02*
X11958146Y-13718859D01*
X11958146Y-13718859D02*
X11986717Y-13728383D01*
X11986717Y-13728383D02*
X12005765Y-13747430D01*
X12005765Y-13747430D02*
X12015289Y-13766478D01*
X12015289Y-13766478D02*
X12024812Y-13804573D01*
X12024812Y-13804573D02*
X12024812Y-13833144D01*
X12024812Y-13833144D02*
X12015289Y-13871240D01*
X12015289Y-13871240D02*
X12005765Y-13890287D01*
X12005765Y-13890287D02*
X11986717Y-13909335D01*
X11986717Y-13909335D02*
X11958146Y-13918859D01*
X11958146Y-13918859D02*
X11910527Y-13918859D01*
X12110527Y-13918859D02*
X12110527Y-13785525D01*
X12110527Y-13823621D02*
X12120051Y-13804573D01*
X12120051Y-13804573D02*
X12129574Y-13795049D01*
X12129574Y-13795049D02*
X12148622Y-13785525D01*
X12148622Y-13785525D02*
X12167670Y-13785525D01*
X12234336Y-13918859D02*
X12234336Y-13785525D01*
X12234336Y-13718859D02*
X12224812Y-13728383D01*
X12224812Y-13728383D02*
X12234336Y-13737906D01*
X12234336Y-13737906D02*
X12243860Y-13728383D01*
X12243860Y-13728383D02*
X12234336Y-13718859D01*
X12234336Y-13718859D02*
X12234336Y-13737906D01*
X12358146Y-13918859D02*
X12339098Y-13909335D01*
X12339098Y-13909335D02*
X12329574Y-13890287D01*
X12329574Y-13890287D02*
X12329574Y-13718859D01*
X12462908Y-13918859D02*
X12443860Y-13909335D01*
X12443860Y-13909335D02*
X12434336Y-13890287D01*
X12434336Y-13890287D02*
X12434336Y-13718859D01*
X12691479Y-13918859D02*
X12691479Y-13718859D01*
X12691479Y-13718859D02*
X12758146Y-13861716D01*
X12758146Y-13861716D02*
X12824812Y-13718859D01*
X12824812Y-13718859D02*
X12824812Y-13918859D01*
X13005765Y-13918859D02*
X13005765Y-13814097D01*
X13005765Y-13814097D02*
X12996241Y-13795049D01*
X12996241Y-13795049D02*
X12977193Y-13785525D01*
X12977193Y-13785525D02*
X12939098Y-13785525D01*
X12939098Y-13785525D02*
X12920051Y-13795049D01*
X13005765Y-13909335D02*
X12986717Y-13918859D01*
X12986717Y-13918859D02*
X12939098Y-13918859D01*
X12939098Y-13918859D02*
X12920051Y-13909335D01*
X12920051Y-13909335D02*
X12910527Y-13890287D01*
X12910527Y-13890287D02*
X12910527Y-13871240D01*
X12910527Y-13871240D02*
X12920051Y-13852192D01*
X12920051Y-13852192D02*
X12939098Y-13842668D01*
X12939098Y-13842668D02*
X12986717Y-13842668D01*
X12986717Y-13842668D02*
X13005765Y-13833144D01*
X13101003Y-13785525D02*
X13101003Y-13985525D01*
X13101003Y-13795049D02*
X13120051Y-13785525D01*
X13120051Y-13785525D02*
X13158146Y-13785525D01*
X13158146Y-13785525D02*
X13177193Y-13795049D01*
X13177193Y-13795049D02*
X13186717Y-13804573D01*
X13186717Y-13804573D02*
X13196241Y-13823621D01*
X13196241Y-13823621D02*
X13196241Y-13880763D01*
X13196241Y-13880763D02*
X13186717Y-13899811D01*
X13186717Y-13899811D02*
X13177193Y-13909335D01*
X13177193Y-13909335D02*
X13158146Y-13918859D01*
X13158146Y-13918859D02*
X13120051Y-13918859D01*
X13120051Y-13918859D02*
X13101003Y-13909335D01*
X13281955Y-13899811D02*
X13291479Y-13909335D01*
X13291479Y-13909335D02*
X13281955Y-13918859D01*
X13281955Y-13918859D02*
X13272432Y-13909335D01*
X13272432Y-13909335D02*
X13281955Y-13899811D01*
X13281955Y-13899811D02*
X13281955Y-13918859D01*
X13281955Y-13795049D02*
X13291479Y-13804573D01*
X13291479Y-13804573D02*
X13281955Y-13814097D01*
X13281955Y-13814097D02*
X13272432Y-13804573D01*
X13272432Y-13804573D02*
X13281955Y-13795049D01*
X13281955Y-13795049D02*
X13281955Y-13814097D01*
D12*
X11619750Y-14232375D02*
X11649750Y-14262375D01*
X11649750Y-14232375D02*
X11619750Y-14262375D01*
D11*
X11948622Y-14138859D02*
X11967670Y-14138859D01*
X11967670Y-14138859D02*
X11986717Y-14148383D01*
X11986717Y-14148383D02*
X11996241Y-14157906D01*
X11996241Y-14157906D02*
X12005765Y-14176954D01*
X12005765Y-14176954D02*
X12015289Y-14215049D01*
X12015289Y-14215049D02*
X12015289Y-14262668D01*
X12015289Y-14262668D02*
X12005765Y-14300763D01*
X12005765Y-14300763D02*
X11996241Y-14319811D01*
X11996241Y-14319811D02*
X11986717Y-14329335D01*
X11986717Y-14329335D02*
X11967670Y-14338859D01*
X11967670Y-14338859D02*
X11948622Y-14338859D01*
X11948622Y-14338859D02*
X11929574Y-14329335D01*
X11929574Y-14329335D02*
X11920051Y-14319811D01*
X11920051Y-14319811D02*
X11910527Y-14300763D01*
X11910527Y-14300763D02*
X11901003Y-14262668D01*
X11901003Y-14262668D02*
X11901003Y-14215049D01*
X11901003Y-14215049D02*
X11910527Y-14176954D01*
X11910527Y-14176954D02*
X11920051Y-14157906D01*
X11920051Y-14157906D02*
X11929574Y-14148383D01*
X11929574Y-14148383D02*
X11948622Y-14138859D01*
X12101003Y-14319811D02*
X12110527Y-14329335D01*
X12110527Y-14329335D02*
X12101003Y-14338859D01*
X12101003Y-14338859D02*
X12091479Y-14329335D01*
X12091479Y-14329335D02*
X12101003Y-14319811D01*
X12101003Y-14319811D02*
X12101003Y-14338859D01*
X12177193Y-14138859D02*
X12301003Y-14138859D01*
X12301003Y-14138859D02*
X12234336Y-14215049D01*
X12234336Y-14215049D02*
X12262908Y-14215049D01*
X12262908Y-14215049D02*
X12281955Y-14224573D01*
X12281955Y-14224573D02*
X12291479Y-14234097D01*
X12291479Y-14234097D02*
X12301003Y-14253144D01*
X12301003Y-14253144D02*
X12301003Y-14300763D01*
X12301003Y-14300763D02*
X12291479Y-14319811D01*
X12291479Y-14319811D02*
X12281955Y-14329335D01*
X12281955Y-14329335D02*
X12262908Y-14338859D01*
X12262908Y-14338859D02*
X12205765Y-14338859D01*
X12205765Y-14338859D02*
X12186717Y-14329335D01*
X12186717Y-14329335D02*
X12177193Y-14319811D01*
X12424812Y-14138859D02*
X12443860Y-14138859D01*
X12443860Y-14138859D02*
X12462908Y-14148383D01*
X12462908Y-14148383D02*
X12472432Y-14157906D01*
X12472432Y-14157906D02*
X12481955Y-14176954D01*
X12481955Y-14176954D02*
X12491479Y-14215049D01*
X12491479Y-14215049D02*
X12491479Y-14262668D01*
X12491479Y-14262668D02*
X12481955Y-14300763D01*
X12481955Y-14300763D02*
X12472432Y-14319811D01*
X12472432Y-14319811D02*
X12462908Y-14329335D01*
X12462908Y-14329335D02*
X12443860Y-14338859D01*
X12443860Y-14338859D02*
X12424812Y-14338859D01*
X12424812Y-14338859D02*
X12405765Y-14329335D01*
X12405765Y-14329335D02*
X12396241Y-14319811D01*
X12396241Y-14319811D02*
X12386717Y-14300763D01*
X12386717Y-14300763D02*
X12377193Y-14262668D01*
X12377193Y-14262668D02*
X12377193Y-14215049D01*
X12377193Y-14215049D02*
X12386717Y-14176954D01*
X12386717Y-14176954D02*
X12396241Y-14157906D01*
X12396241Y-14157906D02*
X12405765Y-14148383D01*
X12405765Y-14148383D02*
X12424812Y-14138859D01*
X12615289Y-14138859D02*
X12634336Y-14138859D01*
X12634336Y-14138859D02*
X12653384Y-14148383D01*
X12653384Y-14148383D02*
X12662908Y-14157906D01*
X12662908Y-14157906D02*
X12672432Y-14176954D01*
X12672432Y-14176954D02*
X12681955Y-14215049D01*
X12681955Y-14215049D02*
X12681955Y-14262668D01*
X12681955Y-14262668D02*
X12672432Y-14300763D01*
X12672432Y-14300763D02*
X12662908Y-14319811D01*
X12662908Y-14319811D02*
X12653384Y-14329335D01*
X12653384Y-14329335D02*
X12634336Y-14338859D01*
X12634336Y-14338859D02*
X12615289Y-14338859D01*
X12615289Y-14338859D02*
X12596241Y-14329335D01*
X12596241Y-14329335D02*
X12586717Y-14319811D01*
X12586717Y-14319811D02*
X12577193Y-14300763D01*
X12577193Y-14300763D02*
X12567670Y-14262668D01*
X12567670Y-14262668D02*
X12567670Y-14215049D01*
X12567670Y-14215049D02*
X12577193Y-14176954D01*
X12577193Y-14176954D02*
X12586717Y-14157906D01*
X12586717Y-14157906D02*
X12596241Y-14148383D01*
X12596241Y-14148383D02*
X12615289Y-14138859D01*
X12767670Y-14338859D02*
X12767670Y-14205525D01*
X12767670Y-14224573D02*
X12777193Y-14215049D01*
X12777193Y-14215049D02*
X12796241Y-14205525D01*
X12796241Y-14205525D02*
X12824813Y-14205525D01*
X12824813Y-14205525D02*
X12843860Y-14215049D01*
X12843860Y-14215049D02*
X12853384Y-14234097D01*
X12853384Y-14234097D02*
X12853384Y-14338859D01*
X12853384Y-14234097D02*
X12862908Y-14215049D01*
X12862908Y-14215049D02*
X12881955Y-14205525D01*
X12881955Y-14205525D02*
X12910527Y-14205525D01*
X12910527Y-14205525D02*
X12929574Y-14215049D01*
X12929574Y-14215049D02*
X12939098Y-14234097D01*
X12939098Y-14234097D02*
X12939098Y-14338859D01*
X13034336Y-14338859D02*
X13034336Y-14205525D01*
X13034336Y-14224573D02*
X13043860Y-14215049D01*
X13043860Y-14215049D02*
X13062908Y-14205525D01*
X13062908Y-14205525D02*
X13091479Y-14205525D01*
X13091479Y-14205525D02*
X13110527Y-14215049D01*
X13110527Y-14215049D02*
X13120051Y-14234097D01*
X13120051Y-14234097D02*
X13120051Y-14338859D01*
X13120051Y-14234097D02*
X13129574Y-14215049D01*
X13129574Y-14215049D02*
X13148622Y-14205525D01*
X13148622Y-14205525D02*
X13177193Y-14205525D01*
X13177193Y-14205525D02*
X13196241Y-14215049D01*
X13196241Y-14215049D02*
X13205765Y-14234097D01*
X13205765Y-14234097D02*
X13205765Y-14338859D01*
X13596241Y-14129335D02*
X13424813Y-14386478D01*
X13853384Y-14138859D02*
X13872432Y-14138859D01*
X13872432Y-14138859D02*
X13891479Y-14148383D01*
X13891479Y-14148383D02*
X13901003Y-14157906D01*
X13901003Y-14157906D02*
X13910527Y-14176954D01*
X13910527Y-14176954D02*
X13920051Y-14215049D01*
X13920051Y-14215049D02*
X13920051Y-14262668D01*
X13920051Y-14262668D02*
X13910527Y-14300763D01*
X13910527Y-14300763D02*
X13901003Y-14319811D01*
X13901003Y-14319811D02*
X13891479Y-14329335D01*
X13891479Y-14329335D02*
X13872432Y-14338859D01*
X13872432Y-14338859D02*
X13853384Y-14338859D01*
X13853384Y-14338859D02*
X13834336Y-14329335D01*
X13834336Y-14329335D02*
X13824813Y-14319811D01*
X13824813Y-14319811D02*
X13815289Y-14300763D01*
X13815289Y-14300763D02*
X13805765Y-14262668D01*
X13805765Y-14262668D02*
X13805765Y-14215049D01*
X13805765Y-14215049D02*
X13815289Y-14176954D01*
X13815289Y-14176954D02*
X13824813Y-14157906D01*
X13824813Y-14157906D02*
X13834336Y-14148383D01*
X13834336Y-14148383D02*
X13853384Y-14138859D01*
X14005765Y-14319811D02*
X14015289Y-14329335D01*
X14015289Y-14329335D02*
X14005765Y-14338859D01*
X14005765Y-14338859D02*
X13996241Y-14329335D01*
X13996241Y-14329335D02*
X14005765Y-14319811D01*
X14005765Y-14319811D02*
X14005765Y-14338859D01*
X14139098Y-14138859D02*
X14158146Y-14138859D01*
X14158146Y-14138859D02*
X14177194Y-14148383D01*
X14177194Y-14148383D02*
X14186717Y-14157906D01*
X14186717Y-14157906D02*
X14196241Y-14176954D01*
X14196241Y-14176954D02*
X14205765Y-14215049D01*
X14205765Y-14215049D02*
X14205765Y-14262668D01*
X14205765Y-14262668D02*
X14196241Y-14300763D01*
X14196241Y-14300763D02*
X14186717Y-14319811D01*
X14186717Y-14319811D02*
X14177194Y-14329335D01*
X14177194Y-14329335D02*
X14158146Y-14338859D01*
X14158146Y-14338859D02*
X14139098Y-14338859D01*
X14139098Y-14338859D02*
X14120051Y-14329335D01*
X14120051Y-14329335D02*
X14110527Y-14319811D01*
X14110527Y-14319811D02*
X14101003Y-14300763D01*
X14101003Y-14300763D02*
X14091479Y-14262668D01*
X14091479Y-14262668D02*
X14091479Y-14215049D01*
X14091479Y-14215049D02*
X14101003Y-14176954D01*
X14101003Y-14176954D02*
X14110527Y-14157906D01*
X14110527Y-14157906D02*
X14120051Y-14148383D01*
X14120051Y-14148383D02*
X14139098Y-14138859D01*
X14396241Y-14338859D02*
X14281956Y-14338859D01*
X14339098Y-14338859D02*
X14339098Y-14138859D01*
X14339098Y-14138859D02*
X14320051Y-14167430D01*
X14320051Y-14167430D02*
X14301003Y-14186478D01*
X14301003Y-14186478D02*
X14281956Y-14196002D01*
X14586717Y-14338859D02*
X14472432Y-14338859D01*
X14529575Y-14338859D02*
X14529575Y-14138859D01*
X14529575Y-14138859D02*
X14510527Y-14167430D01*
X14510527Y-14167430D02*
X14491479Y-14186478D01*
X14491479Y-14186478D02*
X14472432Y-14196002D01*
X14701003Y-14224573D02*
X14681956Y-14215049D01*
X14681956Y-14215049D02*
X14672432Y-14205525D01*
X14672432Y-14205525D02*
X14662908Y-14186478D01*
X14662908Y-14186478D02*
X14662908Y-14176954D01*
X14662908Y-14176954D02*
X14672432Y-14157906D01*
X14672432Y-14157906D02*
X14681956Y-14148383D01*
X14681956Y-14148383D02*
X14701003Y-14138859D01*
X14701003Y-14138859D02*
X14739098Y-14138859D01*
X14739098Y-14138859D02*
X14758146Y-14148383D01*
X14758146Y-14148383D02*
X14767670Y-14157906D01*
X14767670Y-14157906D02*
X14777194Y-14176954D01*
X14777194Y-14176954D02*
X14777194Y-14186478D01*
X14777194Y-14186478D02*
X14767670Y-14205525D01*
X14767670Y-14205525D02*
X14758146Y-14215049D01*
X14758146Y-14215049D02*
X14739098Y-14224573D01*
X14739098Y-14224573D02*
X14701003Y-14224573D01*
X14701003Y-14224573D02*
X14681956Y-14234097D01*
X14681956Y-14234097D02*
X14672432Y-14243621D01*
X14672432Y-14243621D02*
X14662908Y-14262668D01*
X14662908Y-14262668D02*
X14662908Y-14300763D01*
X14662908Y-14300763D02*
X14672432Y-14319811D01*
X14672432Y-14319811D02*
X14681956Y-14329335D01*
X14681956Y-14329335D02*
X14701003Y-14338859D01*
X14701003Y-14338859D02*
X14739098Y-14338859D01*
X14739098Y-14338859D02*
X14758146Y-14329335D01*
X14758146Y-14329335D02*
X14767670Y-14319811D01*
X14767670Y-14319811D02*
X14777194Y-14300763D01*
X14777194Y-14300763D02*
X14777194Y-14262668D01*
X14777194Y-14262668D02*
X14767670Y-14243621D01*
X14767670Y-14243621D02*
X14758146Y-14234097D01*
X14758146Y-14234097D02*
X14739098Y-14224573D01*
X14853384Y-14138859D02*
X14853384Y-14176954D01*
X14929575Y-14138859D02*
X14929575Y-14176954D01*
X15224813Y-14415049D02*
X15215289Y-14405525D01*
X15215289Y-14405525D02*
X15196241Y-14376954D01*
X15196241Y-14376954D02*
X15186718Y-14357906D01*
X15186718Y-14357906D02*
X15177194Y-14329335D01*
X15177194Y-14329335D02*
X15167670Y-14281716D01*
X15167670Y-14281716D02*
X15167670Y-14243621D01*
X15167670Y-14243621D02*
X15177194Y-14196002D01*
X15177194Y-14196002D02*
X15186718Y-14167430D01*
X15186718Y-14167430D02*
X15196241Y-14148383D01*
X15196241Y-14148383D02*
X15215289Y-14119811D01*
X15215289Y-14119811D02*
X15224813Y-14110287D01*
X15281956Y-14138859D02*
X15405765Y-14138859D01*
X15405765Y-14138859D02*
X15339098Y-14215049D01*
X15339098Y-14215049D02*
X15367670Y-14215049D01*
X15367670Y-14215049D02*
X15386718Y-14224573D01*
X15386718Y-14224573D02*
X15396241Y-14234097D01*
X15396241Y-14234097D02*
X15405765Y-14253144D01*
X15405765Y-14253144D02*
X15405765Y-14300763D01*
X15405765Y-14300763D02*
X15396241Y-14319811D01*
X15396241Y-14319811D02*
X15386718Y-14329335D01*
X15386718Y-14329335D02*
X15367670Y-14338859D01*
X15367670Y-14338859D02*
X15310527Y-14338859D01*
X15310527Y-14338859D02*
X15291479Y-14329335D01*
X15291479Y-14329335D02*
X15281956Y-14319811D01*
X15472432Y-14138859D02*
X15596241Y-14138859D01*
X15596241Y-14138859D02*
X15529575Y-14215049D01*
X15529575Y-14215049D02*
X15558146Y-14215049D01*
X15558146Y-14215049D02*
X15577194Y-14224573D01*
X15577194Y-14224573D02*
X15586718Y-14234097D01*
X15586718Y-14234097D02*
X15596241Y-14253144D01*
X15596241Y-14253144D02*
X15596241Y-14300763D01*
X15596241Y-14300763D02*
X15586718Y-14319811D01*
X15586718Y-14319811D02*
X15577194Y-14329335D01*
X15577194Y-14329335D02*
X15558146Y-14338859D01*
X15558146Y-14338859D02*
X15501003Y-14338859D01*
X15501003Y-14338859D02*
X15481956Y-14329335D01*
X15481956Y-14329335D02*
X15472432Y-14319811D01*
X15691479Y-14338859D02*
X15729575Y-14338859D01*
X15729575Y-14338859D02*
X15748622Y-14329335D01*
X15748622Y-14329335D02*
X15758146Y-14319811D01*
X15758146Y-14319811D02*
X15777194Y-14291240D01*
X15777194Y-14291240D02*
X15786718Y-14253144D01*
X15786718Y-14253144D02*
X15786718Y-14176954D01*
X15786718Y-14176954D02*
X15777194Y-14157906D01*
X15777194Y-14157906D02*
X15767670Y-14148383D01*
X15767670Y-14148383D02*
X15748622Y-14138859D01*
X15748622Y-14138859D02*
X15710527Y-14138859D01*
X15710527Y-14138859D02*
X15691479Y-14148383D01*
X15691479Y-14148383D02*
X15681956Y-14157906D01*
X15681956Y-14157906D02*
X15672432Y-14176954D01*
X15672432Y-14176954D02*
X15672432Y-14224573D01*
X15672432Y-14224573D02*
X15681956Y-14243621D01*
X15681956Y-14243621D02*
X15691479Y-14253144D01*
X15691479Y-14253144D02*
X15710527Y-14262668D01*
X15710527Y-14262668D02*
X15748622Y-14262668D01*
X15748622Y-14262668D02*
X15767670Y-14253144D01*
X15767670Y-14253144D02*
X15777194Y-14243621D01*
X15777194Y-14243621D02*
X15786718Y-14224573D01*
X16024813Y-14338859D02*
X16024813Y-14138859D01*
X16110527Y-14338859D02*
X16110527Y-14234097D01*
X16110527Y-14234097D02*
X16101003Y-14215049D01*
X16101003Y-14215049D02*
X16081956Y-14205525D01*
X16081956Y-14205525D02*
X16053384Y-14205525D01*
X16053384Y-14205525D02*
X16034337Y-14215049D01*
X16034337Y-14215049D02*
X16024813Y-14224573D01*
X16234337Y-14338859D02*
X16215289Y-14329335D01*
X16215289Y-14329335D02*
X16205765Y-14319811D01*
X16205765Y-14319811D02*
X16196241Y-14300763D01*
X16196241Y-14300763D02*
X16196241Y-14243621D01*
X16196241Y-14243621D02*
X16205765Y-14224573D01*
X16205765Y-14224573D02*
X16215289Y-14215049D01*
X16215289Y-14215049D02*
X16234337Y-14205525D01*
X16234337Y-14205525D02*
X16262908Y-14205525D01*
X16262908Y-14205525D02*
X16281956Y-14215049D01*
X16281956Y-14215049D02*
X16291480Y-14224573D01*
X16291480Y-14224573D02*
X16301003Y-14243621D01*
X16301003Y-14243621D02*
X16301003Y-14300763D01*
X16301003Y-14300763D02*
X16291480Y-14319811D01*
X16291480Y-14319811D02*
X16281956Y-14329335D01*
X16281956Y-14329335D02*
X16262908Y-14338859D01*
X16262908Y-14338859D02*
X16234337Y-14338859D01*
X16415289Y-14338859D02*
X16396241Y-14329335D01*
X16396241Y-14329335D02*
X16386718Y-14310287D01*
X16386718Y-14310287D02*
X16386718Y-14138859D01*
X16567670Y-14329335D02*
X16548622Y-14338859D01*
X16548622Y-14338859D02*
X16510527Y-14338859D01*
X16510527Y-14338859D02*
X16491480Y-14329335D01*
X16491480Y-14329335D02*
X16481956Y-14310287D01*
X16481956Y-14310287D02*
X16481956Y-14234097D01*
X16481956Y-14234097D02*
X16491480Y-14215049D01*
X16491480Y-14215049D02*
X16510527Y-14205525D01*
X16510527Y-14205525D02*
X16548622Y-14205525D01*
X16548622Y-14205525D02*
X16567670Y-14215049D01*
X16567670Y-14215049D02*
X16577194Y-14234097D01*
X16577194Y-14234097D02*
X16577194Y-14253144D01*
X16577194Y-14253144D02*
X16481956Y-14272192D01*
X16653384Y-14329335D02*
X16672432Y-14338859D01*
X16672432Y-14338859D02*
X16710527Y-14338859D01*
X16710527Y-14338859D02*
X16729575Y-14329335D01*
X16729575Y-14329335D02*
X16739099Y-14310287D01*
X16739099Y-14310287D02*
X16739099Y-14300763D01*
X16739099Y-14300763D02*
X16729575Y-14281716D01*
X16729575Y-14281716D02*
X16710527Y-14272192D01*
X16710527Y-14272192D02*
X16681956Y-14272192D01*
X16681956Y-14272192D02*
X16662908Y-14262668D01*
X16662908Y-14262668D02*
X16653384Y-14243621D01*
X16653384Y-14243621D02*
X16653384Y-14234097D01*
X16653384Y-14234097D02*
X16662908Y-14215049D01*
X16662908Y-14215049D02*
X16681956Y-14205525D01*
X16681956Y-14205525D02*
X16710527Y-14205525D01*
X16710527Y-14205525D02*
X16729575Y-14215049D01*
X16805765Y-14415049D02*
X16815289Y-14405525D01*
X16815289Y-14405525D02*
X16834337Y-14376954D01*
X16834337Y-14376954D02*
X16843861Y-14357906D01*
X16843861Y-14357906D02*
X16853384Y-14329335D01*
X16853384Y-14329335D02*
X16862908Y-14281716D01*
X16862908Y-14281716D02*
X16862908Y-14243621D01*
X16862908Y-14243621D02*
X16853384Y-14196002D01*
X16853384Y-14196002D02*
X16843861Y-14167430D01*
X16843861Y-14167430D02*
X16834337Y-14148383D01*
X16834337Y-14148383D02*
X16815289Y-14119811D01*
X16815289Y-14119811D02*
X16805765Y-14110287D01*
D12*
X11649750Y-14511375D02*
G75*
G02*
X11619750Y-14511375I-15000J0D01*
G01*
X11619750Y-14511375D02*
G75*
G02*
X11649750Y-14511375I15000J0D01*
G01*
D11*
X11948622Y-14402859D02*
X11967670Y-14402859D01*
X11967670Y-14402859D02*
X11986717Y-14412383D01*
X11986717Y-14412383D02*
X11996241Y-14421906D01*
X11996241Y-14421906D02*
X12005765Y-14440954D01*
X12005765Y-14440954D02*
X12015289Y-14479049D01*
X12015289Y-14479049D02*
X12015289Y-14526668D01*
X12015289Y-14526668D02*
X12005765Y-14564763D01*
X12005765Y-14564763D02*
X11996241Y-14583811D01*
X11996241Y-14583811D02*
X11986717Y-14593335D01*
X11986717Y-14593335D02*
X11967670Y-14602859D01*
X11967670Y-14602859D02*
X11948622Y-14602859D01*
X11948622Y-14602859D02*
X11929574Y-14593335D01*
X11929574Y-14593335D02*
X11920051Y-14583811D01*
X11920051Y-14583811D02*
X11910527Y-14564763D01*
X11910527Y-14564763D02*
X11901003Y-14526668D01*
X11901003Y-14526668D02*
X11901003Y-14479049D01*
X11901003Y-14479049D02*
X11910527Y-14440954D01*
X11910527Y-14440954D02*
X11920051Y-14421906D01*
X11920051Y-14421906D02*
X11929574Y-14412383D01*
X11929574Y-14412383D02*
X11948622Y-14402859D01*
X12101003Y-14583811D02*
X12110527Y-14593335D01*
X12110527Y-14593335D02*
X12101003Y-14602859D01*
X12101003Y-14602859D02*
X12091479Y-14593335D01*
X12091479Y-14593335D02*
X12101003Y-14583811D01*
X12101003Y-14583811D02*
X12101003Y-14602859D01*
X12177193Y-14402859D02*
X12301003Y-14402859D01*
X12301003Y-14402859D02*
X12234336Y-14479049D01*
X12234336Y-14479049D02*
X12262908Y-14479049D01*
X12262908Y-14479049D02*
X12281955Y-14488573D01*
X12281955Y-14488573D02*
X12291479Y-14498097D01*
X12291479Y-14498097D02*
X12301003Y-14517144D01*
X12301003Y-14517144D02*
X12301003Y-14564763D01*
X12301003Y-14564763D02*
X12291479Y-14583811D01*
X12291479Y-14583811D02*
X12281955Y-14593335D01*
X12281955Y-14593335D02*
X12262908Y-14602859D01*
X12262908Y-14602859D02*
X12205765Y-14602859D01*
X12205765Y-14602859D02*
X12186717Y-14593335D01*
X12186717Y-14593335D02*
X12177193Y-14583811D01*
X12424812Y-14402859D02*
X12443860Y-14402859D01*
X12443860Y-14402859D02*
X12462908Y-14412383D01*
X12462908Y-14412383D02*
X12472432Y-14421906D01*
X12472432Y-14421906D02*
X12481955Y-14440954D01*
X12481955Y-14440954D02*
X12491479Y-14479049D01*
X12491479Y-14479049D02*
X12491479Y-14526668D01*
X12491479Y-14526668D02*
X12481955Y-14564763D01*
X12481955Y-14564763D02*
X12472432Y-14583811D01*
X12472432Y-14583811D02*
X12462908Y-14593335D01*
X12462908Y-14593335D02*
X12443860Y-14602859D01*
X12443860Y-14602859D02*
X12424812Y-14602859D01*
X12424812Y-14602859D02*
X12405765Y-14593335D01*
X12405765Y-14593335D02*
X12396241Y-14583811D01*
X12396241Y-14583811D02*
X12386717Y-14564763D01*
X12386717Y-14564763D02*
X12377193Y-14526668D01*
X12377193Y-14526668D02*
X12377193Y-14479049D01*
X12377193Y-14479049D02*
X12386717Y-14440954D01*
X12386717Y-14440954D02*
X12396241Y-14421906D01*
X12396241Y-14421906D02*
X12405765Y-14412383D01*
X12405765Y-14412383D02*
X12424812Y-14402859D01*
X12615289Y-14402859D02*
X12634336Y-14402859D01*
X12634336Y-14402859D02*
X12653384Y-14412383D01*
X12653384Y-14412383D02*
X12662908Y-14421906D01*
X12662908Y-14421906D02*
X12672432Y-14440954D01*
X12672432Y-14440954D02*
X12681955Y-14479049D01*
X12681955Y-14479049D02*
X12681955Y-14526668D01*
X12681955Y-14526668D02*
X12672432Y-14564763D01*
X12672432Y-14564763D02*
X12662908Y-14583811D01*
X12662908Y-14583811D02*
X12653384Y-14593335D01*
X12653384Y-14593335D02*
X12634336Y-14602859D01*
X12634336Y-14602859D02*
X12615289Y-14602859D01*
X12615289Y-14602859D02*
X12596241Y-14593335D01*
X12596241Y-14593335D02*
X12586717Y-14583811D01*
X12586717Y-14583811D02*
X12577193Y-14564763D01*
X12577193Y-14564763D02*
X12567670Y-14526668D01*
X12567670Y-14526668D02*
X12567670Y-14479049D01*
X12567670Y-14479049D02*
X12577193Y-14440954D01*
X12577193Y-14440954D02*
X12586717Y-14421906D01*
X12586717Y-14421906D02*
X12596241Y-14412383D01*
X12596241Y-14412383D02*
X12615289Y-14402859D01*
X12767670Y-14602859D02*
X12767670Y-14469525D01*
X12767670Y-14488573D02*
X12777193Y-14479049D01*
X12777193Y-14479049D02*
X12796241Y-14469525D01*
X12796241Y-14469525D02*
X12824813Y-14469525D01*
X12824813Y-14469525D02*
X12843860Y-14479049D01*
X12843860Y-14479049D02*
X12853384Y-14498097D01*
X12853384Y-14498097D02*
X12853384Y-14602859D01*
X12853384Y-14498097D02*
X12862908Y-14479049D01*
X12862908Y-14479049D02*
X12881955Y-14469525D01*
X12881955Y-14469525D02*
X12910527Y-14469525D01*
X12910527Y-14469525D02*
X12929574Y-14479049D01*
X12929574Y-14479049D02*
X12939098Y-14498097D01*
X12939098Y-14498097D02*
X12939098Y-14602859D01*
X13034336Y-14602859D02*
X13034336Y-14469525D01*
X13034336Y-14488573D02*
X13043860Y-14479049D01*
X13043860Y-14479049D02*
X13062908Y-14469525D01*
X13062908Y-14469525D02*
X13091479Y-14469525D01*
X13091479Y-14469525D02*
X13110527Y-14479049D01*
X13110527Y-14479049D02*
X13120051Y-14498097D01*
X13120051Y-14498097D02*
X13120051Y-14602859D01*
X13120051Y-14498097D02*
X13129574Y-14479049D01*
X13129574Y-14479049D02*
X13148622Y-14469525D01*
X13148622Y-14469525D02*
X13177193Y-14469525D01*
X13177193Y-14469525D02*
X13196241Y-14479049D01*
X13196241Y-14479049D02*
X13205765Y-14498097D01*
X13205765Y-14498097D02*
X13205765Y-14602859D01*
X13596241Y-14393335D02*
X13424813Y-14650478D01*
X13853384Y-14402859D02*
X13872432Y-14402859D01*
X13872432Y-14402859D02*
X13891479Y-14412383D01*
X13891479Y-14412383D02*
X13901003Y-14421906D01*
X13901003Y-14421906D02*
X13910527Y-14440954D01*
X13910527Y-14440954D02*
X13920051Y-14479049D01*
X13920051Y-14479049D02*
X13920051Y-14526668D01*
X13920051Y-14526668D02*
X13910527Y-14564763D01*
X13910527Y-14564763D02*
X13901003Y-14583811D01*
X13901003Y-14583811D02*
X13891479Y-14593335D01*
X13891479Y-14593335D02*
X13872432Y-14602859D01*
X13872432Y-14602859D02*
X13853384Y-14602859D01*
X13853384Y-14602859D02*
X13834336Y-14593335D01*
X13834336Y-14593335D02*
X13824813Y-14583811D01*
X13824813Y-14583811D02*
X13815289Y-14564763D01*
X13815289Y-14564763D02*
X13805765Y-14526668D01*
X13805765Y-14526668D02*
X13805765Y-14479049D01*
X13805765Y-14479049D02*
X13815289Y-14440954D01*
X13815289Y-14440954D02*
X13824813Y-14421906D01*
X13824813Y-14421906D02*
X13834336Y-14412383D01*
X13834336Y-14412383D02*
X13853384Y-14402859D01*
X14005765Y-14583811D02*
X14015289Y-14593335D01*
X14015289Y-14593335D02*
X14005765Y-14602859D01*
X14005765Y-14602859D02*
X13996241Y-14593335D01*
X13996241Y-14593335D02*
X14005765Y-14583811D01*
X14005765Y-14583811D02*
X14005765Y-14602859D01*
X14139098Y-14402859D02*
X14158146Y-14402859D01*
X14158146Y-14402859D02*
X14177194Y-14412383D01*
X14177194Y-14412383D02*
X14186717Y-14421906D01*
X14186717Y-14421906D02*
X14196241Y-14440954D01*
X14196241Y-14440954D02*
X14205765Y-14479049D01*
X14205765Y-14479049D02*
X14205765Y-14526668D01*
X14205765Y-14526668D02*
X14196241Y-14564763D01*
X14196241Y-14564763D02*
X14186717Y-14583811D01*
X14186717Y-14583811D02*
X14177194Y-14593335D01*
X14177194Y-14593335D02*
X14158146Y-14602859D01*
X14158146Y-14602859D02*
X14139098Y-14602859D01*
X14139098Y-14602859D02*
X14120051Y-14593335D01*
X14120051Y-14593335D02*
X14110527Y-14583811D01*
X14110527Y-14583811D02*
X14101003Y-14564763D01*
X14101003Y-14564763D02*
X14091479Y-14526668D01*
X14091479Y-14526668D02*
X14091479Y-14479049D01*
X14091479Y-14479049D02*
X14101003Y-14440954D01*
X14101003Y-14440954D02*
X14110527Y-14421906D01*
X14110527Y-14421906D02*
X14120051Y-14412383D01*
X14120051Y-14412383D02*
X14139098Y-14402859D01*
X14396241Y-14602859D02*
X14281956Y-14602859D01*
X14339098Y-14602859D02*
X14339098Y-14402859D01*
X14339098Y-14402859D02*
X14320051Y-14431430D01*
X14320051Y-14431430D02*
X14301003Y-14450478D01*
X14301003Y-14450478D02*
X14281956Y-14460002D01*
X14586717Y-14602859D02*
X14472432Y-14602859D01*
X14529575Y-14602859D02*
X14529575Y-14402859D01*
X14529575Y-14402859D02*
X14510527Y-14431430D01*
X14510527Y-14431430D02*
X14491479Y-14450478D01*
X14491479Y-14450478D02*
X14472432Y-14460002D01*
X14701003Y-14488573D02*
X14681956Y-14479049D01*
X14681956Y-14479049D02*
X14672432Y-14469525D01*
X14672432Y-14469525D02*
X14662908Y-14450478D01*
X14662908Y-14450478D02*
X14662908Y-14440954D01*
X14662908Y-14440954D02*
X14672432Y-14421906D01*
X14672432Y-14421906D02*
X14681956Y-14412383D01*
X14681956Y-14412383D02*
X14701003Y-14402859D01*
X14701003Y-14402859D02*
X14739098Y-14402859D01*
X14739098Y-14402859D02*
X14758146Y-14412383D01*
X14758146Y-14412383D02*
X14767670Y-14421906D01*
X14767670Y-14421906D02*
X14777194Y-14440954D01*
X14777194Y-14440954D02*
X14777194Y-14450478D01*
X14777194Y-14450478D02*
X14767670Y-14469525D01*
X14767670Y-14469525D02*
X14758146Y-14479049D01*
X14758146Y-14479049D02*
X14739098Y-14488573D01*
X14739098Y-14488573D02*
X14701003Y-14488573D01*
X14701003Y-14488573D02*
X14681956Y-14498097D01*
X14681956Y-14498097D02*
X14672432Y-14507621D01*
X14672432Y-14507621D02*
X14662908Y-14526668D01*
X14662908Y-14526668D02*
X14662908Y-14564763D01*
X14662908Y-14564763D02*
X14672432Y-14583811D01*
X14672432Y-14583811D02*
X14681956Y-14593335D01*
X14681956Y-14593335D02*
X14701003Y-14602859D01*
X14701003Y-14602859D02*
X14739098Y-14602859D01*
X14739098Y-14602859D02*
X14758146Y-14593335D01*
X14758146Y-14593335D02*
X14767670Y-14583811D01*
X14767670Y-14583811D02*
X14777194Y-14564763D01*
X14777194Y-14564763D02*
X14777194Y-14526668D01*
X14777194Y-14526668D02*
X14767670Y-14507621D01*
X14767670Y-14507621D02*
X14758146Y-14498097D01*
X14758146Y-14498097D02*
X14739098Y-14488573D01*
X14853384Y-14402859D02*
X14853384Y-14440954D01*
X14929575Y-14402859D02*
X14929575Y-14440954D01*
X15224813Y-14679049D02*
X15215289Y-14669525D01*
X15215289Y-14669525D02*
X15196241Y-14640954D01*
X15196241Y-14640954D02*
X15186718Y-14621906D01*
X15186718Y-14621906D02*
X15177194Y-14593335D01*
X15177194Y-14593335D02*
X15167670Y-14545716D01*
X15167670Y-14545716D02*
X15167670Y-14507621D01*
X15167670Y-14507621D02*
X15177194Y-14460002D01*
X15177194Y-14460002D02*
X15186718Y-14431430D01*
X15186718Y-14431430D02*
X15196241Y-14412383D01*
X15196241Y-14412383D02*
X15215289Y-14383811D01*
X15215289Y-14383811D02*
X15224813Y-14374287D01*
X15310527Y-14602859D02*
X15348622Y-14602859D01*
X15348622Y-14602859D02*
X15367670Y-14593335D01*
X15367670Y-14593335D02*
X15377194Y-14583811D01*
X15377194Y-14583811D02*
X15396241Y-14555240D01*
X15396241Y-14555240D02*
X15405765Y-14517144D01*
X15405765Y-14517144D02*
X15405765Y-14440954D01*
X15405765Y-14440954D02*
X15396241Y-14421906D01*
X15396241Y-14421906D02*
X15386718Y-14412383D01*
X15386718Y-14412383D02*
X15367670Y-14402859D01*
X15367670Y-14402859D02*
X15329575Y-14402859D01*
X15329575Y-14402859D02*
X15310527Y-14412383D01*
X15310527Y-14412383D02*
X15301003Y-14421906D01*
X15301003Y-14421906D02*
X15291479Y-14440954D01*
X15291479Y-14440954D02*
X15291479Y-14488573D01*
X15291479Y-14488573D02*
X15301003Y-14507621D01*
X15301003Y-14507621D02*
X15310527Y-14517144D01*
X15310527Y-14517144D02*
X15329575Y-14526668D01*
X15329575Y-14526668D02*
X15367670Y-14526668D01*
X15367670Y-14526668D02*
X15386718Y-14517144D01*
X15386718Y-14517144D02*
X15396241Y-14507621D01*
X15396241Y-14507621D02*
X15405765Y-14488573D01*
X15643860Y-14602859D02*
X15643860Y-14402859D01*
X15729575Y-14602859D02*
X15729575Y-14498097D01*
X15729575Y-14498097D02*
X15720051Y-14479049D01*
X15720051Y-14479049D02*
X15701003Y-14469525D01*
X15701003Y-14469525D02*
X15672432Y-14469525D01*
X15672432Y-14469525D02*
X15653384Y-14479049D01*
X15653384Y-14479049D02*
X15643860Y-14488573D01*
X15853384Y-14602859D02*
X15834337Y-14593335D01*
X15834337Y-14593335D02*
X15824813Y-14583811D01*
X15824813Y-14583811D02*
X15815289Y-14564763D01*
X15815289Y-14564763D02*
X15815289Y-14507621D01*
X15815289Y-14507621D02*
X15824813Y-14488573D01*
X15824813Y-14488573D02*
X15834337Y-14479049D01*
X15834337Y-14479049D02*
X15853384Y-14469525D01*
X15853384Y-14469525D02*
X15881956Y-14469525D01*
X15881956Y-14469525D02*
X15901003Y-14479049D01*
X15901003Y-14479049D02*
X15910527Y-14488573D01*
X15910527Y-14488573D02*
X15920051Y-14507621D01*
X15920051Y-14507621D02*
X15920051Y-14564763D01*
X15920051Y-14564763D02*
X15910527Y-14583811D01*
X15910527Y-14583811D02*
X15901003Y-14593335D01*
X15901003Y-14593335D02*
X15881956Y-14602859D01*
X15881956Y-14602859D02*
X15853384Y-14602859D01*
X16034337Y-14602859D02*
X16015289Y-14593335D01*
X16015289Y-14593335D02*
X16005765Y-14574287D01*
X16005765Y-14574287D02*
X16005765Y-14402859D01*
X16186718Y-14593335D02*
X16167670Y-14602859D01*
X16167670Y-14602859D02*
X16129575Y-14602859D01*
X16129575Y-14602859D02*
X16110527Y-14593335D01*
X16110527Y-14593335D02*
X16101003Y-14574287D01*
X16101003Y-14574287D02*
X16101003Y-14498097D01*
X16101003Y-14498097D02*
X16110527Y-14479049D01*
X16110527Y-14479049D02*
X16129575Y-14469525D01*
X16129575Y-14469525D02*
X16167670Y-14469525D01*
X16167670Y-14469525D02*
X16186718Y-14479049D01*
X16186718Y-14479049D02*
X16196241Y-14498097D01*
X16196241Y-14498097D02*
X16196241Y-14517144D01*
X16196241Y-14517144D02*
X16101003Y-14536192D01*
X16272432Y-14593335D02*
X16291480Y-14602859D01*
X16291480Y-14602859D02*
X16329575Y-14602859D01*
X16329575Y-14602859D02*
X16348622Y-14593335D01*
X16348622Y-14593335D02*
X16358146Y-14574287D01*
X16358146Y-14574287D02*
X16358146Y-14564763D01*
X16358146Y-14564763D02*
X16348622Y-14545716D01*
X16348622Y-14545716D02*
X16329575Y-14536192D01*
X16329575Y-14536192D02*
X16301003Y-14536192D01*
X16301003Y-14536192D02*
X16281956Y-14526668D01*
X16281956Y-14526668D02*
X16272432Y-14507621D01*
X16272432Y-14507621D02*
X16272432Y-14498097D01*
X16272432Y-14498097D02*
X16281956Y-14479049D01*
X16281956Y-14479049D02*
X16301003Y-14469525D01*
X16301003Y-14469525D02*
X16329575Y-14469525D01*
X16329575Y-14469525D02*
X16348622Y-14479049D01*
X16424813Y-14679049D02*
X16434337Y-14669525D01*
X16434337Y-14669525D02*
X16453384Y-14640954D01*
X16453384Y-14640954D02*
X16462908Y-14621906D01*
X16462908Y-14621906D02*
X16472432Y-14593335D01*
X16472432Y-14593335D02*
X16481956Y-14545716D01*
X16481956Y-14545716D02*
X16481956Y-14507621D01*
X16481956Y-14507621D02*
X16472432Y-14460002D01*
X16472432Y-14460002D02*
X16462908Y-14431430D01*
X16462908Y-14431430D02*
X16453384Y-14412383D01*
X16453384Y-14412383D02*
X16434337Y-14383811D01*
X16434337Y-14383811D02*
X16424813Y-14374287D01*
D12*
X11604750Y-14730375D02*
X11604750Y-14820375D01*
X11559750Y-14775375D02*
X11649750Y-14775375D01*
D11*
X11948622Y-14666859D02*
X11967670Y-14666859D01*
X11967670Y-14666859D02*
X11986717Y-14676383D01*
X11986717Y-14676383D02*
X11996241Y-14685906D01*
X11996241Y-14685906D02*
X12005765Y-14704954D01*
X12005765Y-14704954D02*
X12015289Y-14743049D01*
X12015289Y-14743049D02*
X12015289Y-14790668D01*
X12015289Y-14790668D02*
X12005765Y-14828763D01*
X12005765Y-14828763D02*
X11996241Y-14847811D01*
X11996241Y-14847811D02*
X11986717Y-14857335D01*
X11986717Y-14857335D02*
X11967670Y-14866859D01*
X11967670Y-14866859D02*
X11948622Y-14866859D01*
X11948622Y-14866859D02*
X11929574Y-14857335D01*
X11929574Y-14857335D02*
X11920051Y-14847811D01*
X11920051Y-14847811D02*
X11910527Y-14828763D01*
X11910527Y-14828763D02*
X11901003Y-14790668D01*
X11901003Y-14790668D02*
X11901003Y-14743049D01*
X11901003Y-14743049D02*
X11910527Y-14704954D01*
X11910527Y-14704954D02*
X11920051Y-14685906D01*
X11920051Y-14685906D02*
X11929574Y-14676383D01*
X11929574Y-14676383D02*
X11948622Y-14666859D01*
X12101003Y-14847811D02*
X12110527Y-14857335D01*
X12110527Y-14857335D02*
X12101003Y-14866859D01*
X12101003Y-14866859D02*
X12091479Y-14857335D01*
X12091479Y-14857335D02*
X12101003Y-14847811D01*
X12101003Y-14847811D02*
X12101003Y-14866859D01*
X12205765Y-14866859D02*
X12243860Y-14866859D01*
X12243860Y-14866859D02*
X12262908Y-14857335D01*
X12262908Y-14857335D02*
X12272432Y-14847811D01*
X12272432Y-14847811D02*
X12291479Y-14819240D01*
X12291479Y-14819240D02*
X12301003Y-14781144D01*
X12301003Y-14781144D02*
X12301003Y-14704954D01*
X12301003Y-14704954D02*
X12291479Y-14685906D01*
X12291479Y-14685906D02*
X12281955Y-14676383D01*
X12281955Y-14676383D02*
X12262908Y-14666859D01*
X12262908Y-14666859D02*
X12224812Y-14666859D01*
X12224812Y-14666859D02*
X12205765Y-14676383D01*
X12205765Y-14676383D02*
X12196241Y-14685906D01*
X12196241Y-14685906D02*
X12186717Y-14704954D01*
X12186717Y-14704954D02*
X12186717Y-14752573D01*
X12186717Y-14752573D02*
X12196241Y-14771621D01*
X12196241Y-14771621D02*
X12205765Y-14781144D01*
X12205765Y-14781144D02*
X12224812Y-14790668D01*
X12224812Y-14790668D02*
X12262908Y-14790668D01*
X12262908Y-14790668D02*
X12281955Y-14781144D01*
X12281955Y-14781144D02*
X12291479Y-14771621D01*
X12291479Y-14771621D02*
X12301003Y-14752573D01*
X12424812Y-14666859D02*
X12443860Y-14666859D01*
X12443860Y-14666859D02*
X12462908Y-14676383D01*
X12462908Y-14676383D02*
X12472432Y-14685906D01*
X12472432Y-14685906D02*
X12481955Y-14704954D01*
X12481955Y-14704954D02*
X12491479Y-14743049D01*
X12491479Y-14743049D02*
X12491479Y-14790668D01*
X12491479Y-14790668D02*
X12481955Y-14828763D01*
X12481955Y-14828763D02*
X12472432Y-14847811D01*
X12472432Y-14847811D02*
X12462908Y-14857335D01*
X12462908Y-14857335D02*
X12443860Y-14866859D01*
X12443860Y-14866859D02*
X12424812Y-14866859D01*
X12424812Y-14866859D02*
X12405765Y-14857335D01*
X12405765Y-14857335D02*
X12396241Y-14847811D01*
X12396241Y-14847811D02*
X12386717Y-14828763D01*
X12386717Y-14828763D02*
X12377193Y-14790668D01*
X12377193Y-14790668D02*
X12377193Y-14743049D01*
X12377193Y-14743049D02*
X12386717Y-14704954D01*
X12386717Y-14704954D02*
X12396241Y-14685906D01*
X12396241Y-14685906D02*
X12405765Y-14676383D01*
X12405765Y-14676383D02*
X12424812Y-14666859D01*
X12615289Y-14666859D02*
X12634336Y-14666859D01*
X12634336Y-14666859D02*
X12653384Y-14676383D01*
X12653384Y-14676383D02*
X12662908Y-14685906D01*
X12662908Y-14685906D02*
X12672432Y-14704954D01*
X12672432Y-14704954D02*
X12681955Y-14743049D01*
X12681955Y-14743049D02*
X12681955Y-14790668D01*
X12681955Y-14790668D02*
X12672432Y-14828763D01*
X12672432Y-14828763D02*
X12662908Y-14847811D01*
X12662908Y-14847811D02*
X12653384Y-14857335D01*
X12653384Y-14857335D02*
X12634336Y-14866859D01*
X12634336Y-14866859D02*
X12615289Y-14866859D01*
X12615289Y-14866859D02*
X12596241Y-14857335D01*
X12596241Y-14857335D02*
X12586717Y-14847811D01*
X12586717Y-14847811D02*
X12577193Y-14828763D01*
X12577193Y-14828763D02*
X12567670Y-14790668D01*
X12567670Y-14790668D02*
X12567670Y-14743049D01*
X12567670Y-14743049D02*
X12577193Y-14704954D01*
X12577193Y-14704954D02*
X12586717Y-14685906D01*
X12586717Y-14685906D02*
X12596241Y-14676383D01*
X12596241Y-14676383D02*
X12615289Y-14666859D01*
X12767670Y-14866859D02*
X12767670Y-14733525D01*
X12767670Y-14752573D02*
X12777193Y-14743049D01*
X12777193Y-14743049D02*
X12796241Y-14733525D01*
X12796241Y-14733525D02*
X12824813Y-14733525D01*
X12824813Y-14733525D02*
X12843860Y-14743049D01*
X12843860Y-14743049D02*
X12853384Y-14762097D01*
X12853384Y-14762097D02*
X12853384Y-14866859D01*
X12853384Y-14762097D02*
X12862908Y-14743049D01*
X12862908Y-14743049D02*
X12881955Y-14733525D01*
X12881955Y-14733525D02*
X12910527Y-14733525D01*
X12910527Y-14733525D02*
X12929574Y-14743049D01*
X12929574Y-14743049D02*
X12939098Y-14762097D01*
X12939098Y-14762097D02*
X12939098Y-14866859D01*
X13034336Y-14866859D02*
X13034336Y-14733525D01*
X13034336Y-14752573D02*
X13043860Y-14743049D01*
X13043860Y-14743049D02*
X13062908Y-14733525D01*
X13062908Y-14733525D02*
X13091479Y-14733525D01*
X13091479Y-14733525D02*
X13110527Y-14743049D01*
X13110527Y-14743049D02*
X13120051Y-14762097D01*
X13120051Y-14762097D02*
X13120051Y-14866859D01*
X13120051Y-14762097D02*
X13129574Y-14743049D01*
X13129574Y-14743049D02*
X13148622Y-14733525D01*
X13148622Y-14733525D02*
X13177193Y-14733525D01*
X13177193Y-14733525D02*
X13196241Y-14743049D01*
X13196241Y-14743049D02*
X13205765Y-14762097D01*
X13205765Y-14762097D02*
X13205765Y-14866859D01*
X13596241Y-14657335D02*
X13424813Y-14914478D01*
X13853384Y-14666859D02*
X13872432Y-14666859D01*
X13872432Y-14666859D02*
X13891479Y-14676383D01*
X13891479Y-14676383D02*
X13901003Y-14685906D01*
X13901003Y-14685906D02*
X13910527Y-14704954D01*
X13910527Y-14704954D02*
X13920051Y-14743049D01*
X13920051Y-14743049D02*
X13920051Y-14790668D01*
X13920051Y-14790668D02*
X13910527Y-14828763D01*
X13910527Y-14828763D02*
X13901003Y-14847811D01*
X13901003Y-14847811D02*
X13891479Y-14857335D01*
X13891479Y-14857335D02*
X13872432Y-14866859D01*
X13872432Y-14866859D02*
X13853384Y-14866859D01*
X13853384Y-14866859D02*
X13834336Y-14857335D01*
X13834336Y-14857335D02*
X13824813Y-14847811D01*
X13824813Y-14847811D02*
X13815289Y-14828763D01*
X13815289Y-14828763D02*
X13805765Y-14790668D01*
X13805765Y-14790668D02*
X13805765Y-14743049D01*
X13805765Y-14743049D02*
X13815289Y-14704954D01*
X13815289Y-14704954D02*
X13824813Y-14685906D01*
X13824813Y-14685906D02*
X13834336Y-14676383D01*
X13834336Y-14676383D02*
X13853384Y-14666859D01*
X14005765Y-14847811D02*
X14015289Y-14857335D01*
X14015289Y-14857335D02*
X14005765Y-14866859D01*
X14005765Y-14866859D02*
X13996241Y-14857335D01*
X13996241Y-14857335D02*
X14005765Y-14847811D01*
X14005765Y-14847811D02*
X14005765Y-14866859D01*
X14139098Y-14666859D02*
X14158146Y-14666859D01*
X14158146Y-14666859D02*
X14177194Y-14676383D01*
X14177194Y-14676383D02*
X14186717Y-14685906D01*
X14186717Y-14685906D02*
X14196241Y-14704954D01*
X14196241Y-14704954D02*
X14205765Y-14743049D01*
X14205765Y-14743049D02*
X14205765Y-14790668D01*
X14205765Y-14790668D02*
X14196241Y-14828763D01*
X14196241Y-14828763D02*
X14186717Y-14847811D01*
X14186717Y-14847811D02*
X14177194Y-14857335D01*
X14177194Y-14857335D02*
X14158146Y-14866859D01*
X14158146Y-14866859D02*
X14139098Y-14866859D01*
X14139098Y-14866859D02*
X14120051Y-14857335D01*
X14120051Y-14857335D02*
X14110527Y-14847811D01*
X14110527Y-14847811D02*
X14101003Y-14828763D01*
X14101003Y-14828763D02*
X14091479Y-14790668D01*
X14091479Y-14790668D02*
X14091479Y-14743049D01*
X14091479Y-14743049D02*
X14101003Y-14704954D01*
X14101003Y-14704954D02*
X14110527Y-14685906D01*
X14110527Y-14685906D02*
X14120051Y-14676383D01*
X14120051Y-14676383D02*
X14139098Y-14666859D01*
X14272432Y-14666859D02*
X14396241Y-14666859D01*
X14396241Y-14666859D02*
X14329575Y-14743049D01*
X14329575Y-14743049D02*
X14358146Y-14743049D01*
X14358146Y-14743049D02*
X14377194Y-14752573D01*
X14377194Y-14752573D02*
X14386717Y-14762097D01*
X14386717Y-14762097D02*
X14396241Y-14781144D01*
X14396241Y-14781144D02*
X14396241Y-14828763D01*
X14396241Y-14828763D02*
X14386717Y-14847811D01*
X14386717Y-14847811D02*
X14377194Y-14857335D01*
X14377194Y-14857335D02*
X14358146Y-14866859D01*
X14358146Y-14866859D02*
X14301003Y-14866859D01*
X14301003Y-14866859D02*
X14281956Y-14857335D01*
X14281956Y-14857335D02*
X14272432Y-14847811D01*
X14577194Y-14666859D02*
X14481956Y-14666859D01*
X14481956Y-14666859D02*
X14472432Y-14762097D01*
X14472432Y-14762097D02*
X14481956Y-14752573D01*
X14481956Y-14752573D02*
X14501003Y-14743049D01*
X14501003Y-14743049D02*
X14548622Y-14743049D01*
X14548622Y-14743049D02*
X14567670Y-14752573D01*
X14567670Y-14752573D02*
X14577194Y-14762097D01*
X14577194Y-14762097D02*
X14586717Y-14781144D01*
X14586717Y-14781144D02*
X14586717Y-14828763D01*
X14586717Y-14828763D02*
X14577194Y-14847811D01*
X14577194Y-14847811D02*
X14567670Y-14857335D01*
X14567670Y-14857335D02*
X14548622Y-14866859D01*
X14548622Y-14866859D02*
X14501003Y-14866859D01*
X14501003Y-14866859D02*
X14481956Y-14857335D01*
X14481956Y-14857335D02*
X14472432Y-14847811D01*
X14758146Y-14733525D02*
X14758146Y-14866859D01*
X14710527Y-14657335D02*
X14662908Y-14800192D01*
X14662908Y-14800192D02*
X14786717Y-14800192D01*
X14853384Y-14666859D02*
X14853384Y-14704954D01*
X14929575Y-14666859D02*
X14929575Y-14704954D01*
X15224813Y-14943049D02*
X15215289Y-14933525D01*
X15215289Y-14933525D02*
X15196241Y-14904954D01*
X15196241Y-14904954D02*
X15186718Y-14885906D01*
X15186718Y-14885906D02*
X15177194Y-14857335D01*
X15177194Y-14857335D02*
X15167670Y-14809716D01*
X15167670Y-14809716D02*
X15167670Y-14771621D01*
X15167670Y-14771621D02*
X15177194Y-14724002D01*
X15177194Y-14724002D02*
X15186718Y-14695430D01*
X15186718Y-14695430D02*
X15196241Y-14676383D01*
X15196241Y-14676383D02*
X15215289Y-14647811D01*
X15215289Y-14647811D02*
X15224813Y-14638287D01*
X15386718Y-14733525D02*
X15386718Y-14866859D01*
X15339098Y-14657335D02*
X15291479Y-14800192D01*
X15291479Y-14800192D02*
X15415289Y-14800192D01*
X15643860Y-14866859D02*
X15643860Y-14666859D01*
X15729575Y-14866859D02*
X15729575Y-14762097D01*
X15729575Y-14762097D02*
X15720051Y-14743049D01*
X15720051Y-14743049D02*
X15701003Y-14733525D01*
X15701003Y-14733525D02*
X15672432Y-14733525D01*
X15672432Y-14733525D02*
X15653384Y-14743049D01*
X15653384Y-14743049D02*
X15643860Y-14752573D01*
X15853384Y-14866859D02*
X15834337Y-14857335D01*
X15834337Y-14857335D02*
X15824813Y-14847811D01*
X15824813Y-14847811D02*
X15815289Y-14828763D01*
X15815289Y-14828763D02*
X15815289Y-14771621D01*
X15815289Y-14771621D02*
X15824813Y-14752573D01*
X15824813Y-14752573D02*
X15834337Y-14743049D01*
X15834337Y-14743049D02*
X15853384Y-14733525D01*
X15853384Y-14733525D02*
X15881956Y-14733525D01*
X15881956Y-14733525D02*
X15901003Y-14743049D01*
X15901003Y-14743049D02*
X15910527Y-14752573D01*
X15910527Y-14752573D02*
X15920051Y-14771621D01*
X15920051Y-14771621D02*
X15920051Y-14828763D01*
X15920051Y-14828763D02*
X15910527Y-14847811D01*
X15910527Y-14847811D02*
X15901003Y-14857335D01*
X15901003Y-14857335D02*
X15881956Y-14866859D01*
X15881956Y-14866859D02*
X15853384Y-14866859D01*
X16034337Y-14866859D02*
X16015289Y-14857335D01*
X16015289Y-14857335D02*
X16005765Y-14838287D01*
X16005765Y-14838287D02*
X16005765Y-14666859D01*
X16186718Y-14857335D02*
X16167670Y-14866859D01*
X16167670Y-14866859D02*
X16129575Y-14866859D01*
X16129575Y-14866859D02*
X16110527Y-14857335D01*
X16110527Y-14857335D02*
X16101003Y-14838287D01*
X16101003Y-14838287D02*
X16101003Y-14762097D01*
X16101003Y-14762097D02*
X16110527Y-14743049D01*
X16110527Y-14743049D02*
X16129575Y-14733525D01*
X16129575Y-14733525D02*
X16167670Y-14733525D01*
X16167670Y-14733525D02*
X16186718Y-14743049D01*
X16186718Y-14743049D02*
X16196241Y-14762097D01*
X16196241Y-14762097D02*
X16196241Y-14781144D01*
X16196241Y-14781144D02*
X16101003Y-14800192D01*
X16272432Y-14857335D02*
X16291480Y-14866859D01*
X16291480Y-14866859D02*
X16329575Y-14866859D01*
X16329575Y-14866859D02*
X16348622Y-14857335D01*
X16348622Y-14857335D02*
X16358146Y-14838287D01*
X16358146Y-14838287D02*
X16358146Y-14828763D01*
X16358146Y-14828763D02*
X16348622Y-14809716D01*
X16348622Y-14809716D02*
X16329575Y-14800192D01*
X16329575Y-14800192D02*
X16301003Y-14800192D01*
X16301003Y-14800192D02*
X16281956Y-14790668D01*
X16281956Y-14790668D02*
X16272432Y-14771621D01*
X16272432Y-14771621D02*
X16272432Y-14762097D01*
X16272432Y-14762097D02*
X16281956Y-14743049D01*
X16281956Y-14743049D02*
X16301003Y-14733525D01*
X16301003Y-14733525D02*
X16329575Y-14733525D01*
X16329575Y-14733525D02*
X16348622Y-14743049D01*
X16596242Y-14790668D02*
X16748623Y-14790668D01*
X16672432Y-14866859D02*
X16672432Y-14714478D01*
X16986718Y-14685906D02*
X16996242Y-14676383D01*
X16996242Y-14676383D02*
X17015289Y-14666859D01*
X17015289Y-14666859D02*
X17062908Y-14666859D01*
X17062908Y-14666859D02*
X17081956Y-14676383D01*
X17081956Y-14676383D02*
X17091480Y-14685906D01*
X17091480Y-14685906D02*
X17101004Y-14704954D01*
X17101004Y-14704954D02*
X17101004Y-14724002D01*
X17101004Y-14724002D02*
X17091480Y-14752573D01*
X17091480Y-14752573D02*
X16977194Y-14866859D01*
X16977194Y-14866859D02*
X17101004Y-14866859D01*
X17329575Y-14857335D02*
X17348623Y-14866859D01*
X17348623Y-14866859D02*
X17386718Y-14866859D01*
X17386718Y-14866859D02*
X17405766Y-14857335D01*
X17405766Y-14857335D02*
X17415289Y-14838287D01*
X17415289Y-14838287D02*
X17415289Y-14828763D01*
X17415289Y-14828763D02*
X17405766Y-14809716D01*
X17405766Y-14809716D02*
X17386718Y-14800192D01*
X17386718Y-14800192D02*
X17358146Y-14800192D01*
X17358146Y-14800192D02*
X17339099Y-14790668D01*
X17339099Y-14790668D02*
X17329575Y-14771621D01*
X17329575Y-14771621D02*
X17329575Y-14762097D01*
X17329575Y-14762097D02*
X17339099Y-14743049D01*
X17339099Y-14743049D02*
X17358146Y-14733525D01*
X17358146Y-14733525D02*
X17386718Y-14733525D01*
X17386718Y-14733525D02*
X17405766Y-14743049D01*
X17529575Y-14866859D02*
X17510527Y-14857335D01*
X17510527Y-14857335D02*
X17501004Y-14838287D01*
X17501004Y-14838287D02*
X17501004Y-14666859D01*
X17634337Y-14866859D02*
X17615289Y-14857335D01*
X17615289Y-14857335D02*
X17605766Y-14847811D01*
X17605766Y-14847811D02*
X17596242Y-14828763D01*
X17596242Y-14828763D02*
X17596242Y-14771621D01*
X17596242Y-14771621D02*
X17605766Y-14752573D01*
X17605766Y-14752573D02*
X17615289Y-14743049D01*
X17615289Y-14743049D02*
X17634337Y-14733525D01*
X17634337Y-14733525D02*
X17662908Y-14733525D01*
X17662908Y-14733525D02*
X17681956Y-14743049D01*
X17681956Y-14743049D02*
X17691480Y-14752573D01*
X17691480Y-14752573D02*
X17701004Y-14771621D01*
X17701004Y-14771621D02*
X17701004Y-14828763D01*
X17701004Y-14828763D02*
X17691480Y-14847811D01*
X17691480Y-14847811D02*
X17681956Y-14857335D01*
X17681956Y-14857335D02*
X17662908Y-14866859D01*
X17662908Y-14866859D02*
X17634337Y-14866859D01*
X17758147Y-14733525D02*
X17834337Y-14733525D01*
X17786718Y-14666859D02*
X17786718Y-14838287D01*
X17786718Y-14838287D02*
X17796242Y-14857335D01*
X17796242Y-14857335D02*
X17815289Y-14866859D01*
X17815289Y-14866859D02*
X17834337Y-14866859D01*
X17891480Y-14857335D02*
X17910527Y-14866859D01*
X17910527Y-14866859D02*
X17948623Y-14866859D01*
X17948623Y-14866859D02*
X17967670Y-14857335D01*
X17967670Y-14857335D02*
X17977194Y-14838287D01*
X17977194Y-14838287D02*
X17977194Y-14828763D01*
X17977194Y-14828763D02*
X17967670Y-14809716D01*
X17967670Y-14809716D02*
X17948623Y-14800192D01*
X17948623Y-14800192D02*
X17920051Y-14800192D01*
X17920051Y-14800192D02*
X17901004Y-14790668D01*
X17901004Y-14790668D02*
X17891480Y-14771621D01*
X17891480Y-14771621D02*
X17891480Y-14762097D01*
X17891480Y-14762097D02*
X17901004Y-14743049D01*
X17901004Y-14743049D02*
X17920051Y-14733525D01*
X17920051Y-14733525D02*
X17948623Y-14733525D01*
X17948623Y-14733525D02*
X17967670Y-14743049D01*
X18043861Y-14943049D02*
X18053385Y-14933525D01*
X18053385Y-14933525D02*
X18072432Y-14904954D01*
X18072432Y-14904954D02*
X18081956Y-14885906D01*
X18081956Y-14885906D02*
X18091480Y-14857335D01*
X18091480Y-14857335D02*
X18101004Y-14809716D01*
X18101004Y-14809716D02*
X18101004Y-14771621D01*
X18101004Y-14771621D02*
X18091480Y-14724002D01*
X18091480Y-14724002D02*
X18081956Y-14695430D01*
X18081956Y-14695430D02*
X18072432Y-14676383D01*
X18072432Y-14676383D02*
X18053385Y-14647811D01*
X18053385Y-14647811D02*
X18043861Y-14638287D01*
D12*
X11635106Y-15074731D02*
X11635106Y-15004019D01*
X11564394Y-15004019D01*
X11564394Y-15074731D01*
X11635106Y-15074731D01*
D11*
X12015289Y-15130859D02*
X11901003Y-15130859D01*
X11958146Y-15130859D02*
X11958146Y-14930859D01*
X11958146Y-14930859D02*
X11939098Y-14959430D01*
X11939098Y-14959430D02*
X11920051Y-14978478D01*
X11920051Y-14978478D02*
X11901003Y-14988002D01*
X12101003Y-15111811D02*
X12110527Y-15121335D01*
X12110527Y-15121335D02*
X12101003Y-15130859D01*
X12101003Y-15130859D02*
X12091479Y-15121335D01*
X12091479Y-15121335D02*
X12101003Y-15111811D01*
X12101003Y-15111811D02*
X12101003Y-15130859D01*
X12234336Y-14930859D02*
X12253384Y-14930859D01*
X12253384Y-14930859D02*
X12272432Y-14940383D01*
X12272432Y-14940383D02*
X12281955Y-14949906D01*
X12281955Y-14949906D02*
X12291479Y-14968954D01*
X12291479Y-14968954D02*
X12301003Y-15007049D01*
X12301003Y-15007049D02*
X12301003Y-15054668D01*
X12301003Y-15054668D02*
X12291479Y-15092763D01*
X12291479Y-15092763D02*
X12281955Y-15111811D01*
X12281955Y-15111811D02*
X12272432Y-15121335D01*
X12272432Y-15121335D02*
X12253384Y-15130859D01*
X12253384Y-15130859D02*
X12234336Y-15130859D01*
X12234336Y-15130859D02*
X12215289Y-15121335D01*
X12215289Y-15121335D02*
X12205765Y-15111811D01*
X12205765Y-15111811D02*
X12196241Y-15092763D01*
X12196241Y-15092763D02*
X12186717Y-15054668D01*
X12186717Y-15054668D02*
X12186717Y-15007049D01*
X12186717Y-15007049D02*
X12196241Y-14968954D01*
X12196241Y-14968954D02*
X12205765Y-14949906D01*
X12205765Y-14949906D02*
X12215289Y-14940383D01*
X12215289Y-14940383D02*
X12234336Y-14930859D01*
X12424812Y-14930859D02*
X12443860Y-14930859D01*
X12443860Y-14930859D02*
X12462908Y-14940383D01*
X12462908Y-14940383D02*
X12472432Y-14949906D01*
X12472432Y-14949906D02*
X12481955Y-14968954D01*
X12481955Y-14968954D02*
X12491479Y-15007049D01*
X12491479Y-15007049D02*
X12491479Y-15054668D01*
X12491479Y-15054668D02*
X12481955Y-15092763D01*
X12481955Y-15092763D02*
X12472432Y-15111811D01*
X12472432Y-15111811D02*
X12462908Y-15121335D01*
X12462908Y-15121335D02*
X12443860Y-15130859D01*
X12443860Y-15130859D02*
X12424812Y-15130859D01*
X12424812Y-15130859D02*
X12405765Y-15121335D01*
X12405765Y-15121335D02*
X12396241Y-15111811D01*
X12396241Y-15111811D02*
X12386717Y-15092763D01*
X12386717Y-15092763D02*
X12377193Y-15054668D01*
X12377193Y-15054668D02*
X12377193Y-15007049D01*
X12377193Y-15007049D02*
X12386717Y-14968954D01*
X12386717Y-14968954D02*
X12396241Y-14949906D01*
X12396241Y-14949906D02*
X12405765Y-14940383D01*
X12405765Y-14940383D02*
X12424812Y-14930859D01*
X12615289Y-14930859D02*
X12634336Y-14930859D01*
X12634336Y-14930859D02*
X12653384Y-14940383D01*
X12653384Y-14940383D02*
X12662908Y-14949906D01*
X12662908Y-14949906D02*
X12672432Y-14968954D01*
X12672432Y-14968954D02*
X12681955Y-15007049D01*
X12681955Y-15007049D02*
X12681955Y-15054668D01*
X12681955Y-15054668D02*
X12672432Y-15092763D01*
X12672432Y-15092763D02*
X12662908Y-15111811D01*
X12662908Y-15111811D02*
X12653384Y-15121335D01*
X12653384Y-15121335D02*
X12634336Y-15130859D01*
X12634336Y-15130859D02*
X12615289Y-15130859D01*
X12615289Y-15130859D02*
X12596241Y-15121335D01*
X12596241Y-15121335D02*
X12586717Y-15111811D01*
X12586717Y-15111811D02*
X12577193Y-15092763D01*
X12577193Y-15092763D02*
X12567670Y-15054668D01*
X12567670Y-15054668D02*
X12567670Y-15007049D01*
X12567670Y-15007049D02*
X12577193Y-14968954D01*
X12577193Y-14968954D02*
X12586717Y-14949906D01*
X12586717Y-14949906D02*
X12596241Y-14940383D01*
X12596241Y-14940383D02*
X12615289Y-14930859D01*
X12767670Y-15130859D02*
X12767670Y-14997525D01*
X12767670Y-15016573D02*
X12777193Y-15007049D01*
X12777193Y-15007049D02*
X12796241Y-14997525D01*
X12796241Y-14997525D02*
X12824813Y-14997525D01*
X12824813Y-14997525D02*
X12843860Y-15007049D01*
X12843860Y-15007049D02*
X12853384Y-15026097D01*
X12853384Y-15026097D02*
X12853384Y-15130859D01*
X12853384Y-15026097D02*
X12862908Y-15007049D01*
X12862908Y-15007049D02*
X12881955Y-14997525D01*
X12881955Y-14997525D02*
X12910527Y-14997525D01*
X12910527Y-14997525D02*
X12929574Y-15007049D01*
X12929574Y-15007049D02*
X12939098Y-15026097D01*
X12939098Y-15026097D02*
X12939098Y-15130859D01*
X13034336Y-15130859D02*
X13034336Y-14997525D01*
X13034336Y-15016573D02*
X13043860Y-15007049D01*
X13043860Y-15007049D02*
X13062908Y-14997525D01*
X13062908Y-14997525D02*
X13091479Y-14997525D01*
X13091479Y-14997525D02*
X13110527Y-15007049D01*
X13110527Y-15007049D02*
X13120051Y-15026097D01*
X13120051Y-15026097D02*
X13120051Y-15130859D01*
X13120051Y-15026097D02*
X13129574Y-15007049D01*
X13129574Y-15007049D02*
X13148622Y-14997525D01*
X13148622Y-14997525D02*
X13177193Y-14997525D01*
X13177193Y-14997525D02*
X13196241Y-15007049D01*
X13196241Y-15007049D02*
X13205765Y-15026097D01*
X13205765Y-15026097D02*
X13205765Y-15130859D01*
X13596241Y-14921335D02*
X13424813Y-15178478D01*
X13853384Y-14930859D02*
X13872432Y-14930859D01*
X13872432Y-14930859D02*
X13891479Y-14940383D01*
X13891479Y-14940383D02*
X13901003Y-14949906D01*
X13901003Y-14949906D02*
X13910527Y-14968954D01*
X13910527Y-14968954D02*
X13920051Y-15007049D01*
X13920051Y-15007049D02*
X13920051Y-15054668D01*
X13920051Y-15054668D02*
X13910527Y-15092763D01*
X13910527Y-15092763D02*
X13901003Y-15111811D01*
X13901003Y-15111811D02*
X13891479Y-15121335D01*
X13891479Y-15121335D02*
X13872432Y-15130859D01*
X13872432Y-15130859D02*
X13853384Y-15130859D01*
X13853384Y-15130859D02*
X13834336Y-15121335D01*
X13834336Y-15121335D02*
X13824813Y-15111811D01*
X13824813Y-15111811D02*
X13815289Y-15092763D01*
X13815289Y-15092763D02*
X13805765Y-15054668D01*
X13805765Y-15054668D02*
X13805765Y-15007049D01*
X13805765Y-15007049D02*
X13815289Y-14968954D01*
X13815289Y-14968954D02*
X13824813Y-14949906D01*
X13824813Y-14949906D02*
X13834336Y-14940383D01*
X13834336Y-14940383D02*
X13853384Y-14930859D01*
X14005765Y-15111811D02*
X14015289Y-15121335D01*
X14015289Y-15121335D02*
X14005765Y-15130859D01*
X14005765Y-15130859D02*
X13996241Y-15121335D01*
X13996241Y-15121335D02*
X14005765Y-15111811D01*
X14005765Y-15111811D02*
X14005765Y-15130859D01*
X14139098Y-14930859D02*
X14158146Y-14930859D01*
X14158146Y-14930859D02*
X14177194Y-14940383D01*
X14177194Y-14940383D02*
X14186717Y-14949906D01*
X14186717Y-14949906D02*
X14196241Y-14968954D01*
X14196241Y-14968954D02*
X14205765Y-15007049D01*
X14205765Y-15007049D02*
X14205765Y-15054668D01*
X14205765Y-15054668D02*
X14196241Y-15092763D01*
X14196241Y-15092763D02*
X14186717Y-15111811D01*
X14186717Y-15111811D02*
X14177194Y-15121335D01*
X14177194Y-15121335D02*
X14158146Y-15130859D01*
X14158146Y-15130859D02*
X14139098Y-15130859D01*
X14139098Y-15130859D02*
X14120051Y-15121335D01*
X14120051Y-15121335D02*
X14110527Y-15111811D01*
X14110527Y-15111811D02*
X14101003Y-15092763D01*
X14101003Y-15092763D02*
X14091479Y-15054668D01*
X14091479Y-15054668D02*
X14091479Y-15007049D01*
X14091479Y-15007049D02*
X14101003Y-14968954D01*
X14101003Y-14968954D02*
X14110527Y-14949906D01*
X14110527Y-14949906D02*
X14120051Y-14940383D01*
X14120051Y-14940383D02*
X14139098Y-14930859D01*
X14272432Y-14930859D02*
X14396241Y-14930859D01*
X14396241Y-14930859D02*
X14329575Y-15007049D01*
X14329575Y-15007049D02*
X14358146Y-15007049D01*
X14358146Y-15007049D02*
X14377194Y-15016573D01*
X14377194Y-15016573D02*
X14386717Y-15026097D01*
X14386717Y-15026097D02*
X14396241Y-15045144D01*
X14396241Y-15045144D02*
X14396241Y-15092763D01*
X14396241Y-15092763D02*
X14386717Y-15111811D01*
X14386717Y-15111811D02*
X14377194Y-15121335D01*
X14377194Y-15121335D02*
X14358146Y-15130859D01*
X14358146Y-15130859D02*
X14301003Y-15130859D01*
X14301003Y-15130859D02*
X14281956Y-15121335D01*
X14281956Y-15121335D02*
X14272432Y-15111811D01*
X14491479Y-15130859D02*
X14529575Y-15130859D01*
X14529575Y-15130859D02*
X14548622Y-15121335D01*
X14548622Y-15121335D02*
X14558146Y-15111811D01*
X14558146Y-15111811D02*
X14577194Y-15083240D01*
X14577194Y-15083240D02*
X14586717Y-15045144D01*
X14586717Y-15045144D02*
X14586717Y-14968954D01*
X14586717Y-14968954D02*
X14577194Y-14949906D01*
X14577194Y-14949906D02*
X14567670Y-14940383D01*
X14567670Y-14940383D02*
X14548622Y-14930859D01*
X14548622Y-14930859D02*
X14510527Y-14930859D01*
X14510527Y-14930859D02*
X14491479Y-14940383D01*
X14491479Y-14940383D02*
X14481956Y-14949906D01*
X14481956Y-14949906D02*
X14472432Y-14968954D01*
X14472432Y-14968954D02*
X14472432Y-15016573D01*
X14472432Y-15016573D02*
X14481956Y-15035621D01*
X14481956Y-15035621D02*
X14491479Y-15045144D01*
X14491479Y-15045144D02*
X14510527Y-15054668D01*
X14510527Y-15054668D02*
X14548622Y-15054668D01*
X14548622Y-15054668D02*
X14567670Y-15045144D01*
X14567670Y-15045144D02*
X14577194Y-15035621D01*
X14577194Y-15035621D02*
X14586717Y-15016573D01*
X14758146Y-14997525D02*
X14758146Y-15130859D01*
X14710527Y-14921335D02*
X14662908Y-15064192D01*
X14662908Y-15064192D02*
X14786717Y-15064192D01*
X14853384Y-14930859D02*
X14853384Y-14968954D01*
X14929575Y-14930859D02*
X14929575Y-14968954D01*
X15224813Y-15207049D02*
X15215289Y-15197525D01*
X15215289Y-15197525D02*
X15196241Y-15168954D01*
X15196241Y-15168954D02*
X15186718Y-15149906D01*
X15186718Y-15149906D02*
X15177194Y-15121335D01*
X15177194Y-15121335D02*
X15167670Y-15073716D01*
X15167670Y-15073716D02*
X15167670Y-15035621D01*
X15167670Y-15035621D02*
X15177194Y-14988002D01*
X15177194Y-14988002D02*
X15186718Y-14959430D01*
X15186718Y-14959430D02*
X15196241Y-14940383D01*
X15196241Y-14940383D02*
X15215289Y-14911811D01*
X15215289Y-14911811D02*
X15224813Y-14902287D01*
X15386718Y-14997525D02*
X15386718Y-15130859D01*
X15339098Y-14921335D02*
X15291479Y-15064192D01*
X15291479Y-15064192D02*
X15415289Y-15064192D01*
X15520051Y-15016573D02*
X15501003Y-15007049D01*
X15501003Y-15007049D02*
X15491479Y-14997525D01*
X15491479Y-14997525D02*
X15481956Y-14978478D01*
X15481956Y-14978478D02*
X15481956Y-14968954D01*
X15481956Y-14968954D02*
X15491479Y-14949906D01*
X15491479Y-14949906D02*
X15501003Y-14940383D01*
X15501003Y-14940383D02*
X15520051Y-14930859D01*
X15520051Y-14930859D02*
X15558146Y-14930859D01*
X15558146Y-14930859D02*
X15577194Y-14940383D01*
X15577194Y-14940383D02*
X15586718Y-14949906D01*
X15586718Y-14949906D02*
X15596241Y-14968954D01*
X15596241Y-14968954D02*
X15596241Y-14978478D01*
X15596241Y-14978478D02*
X15586718Y-14997525D01*
X15586718Y-14997525D02*
X15577194Y-15007049D01*
X15577194Y-15007049D02*
X15558146Y-15016573D01*
X15558146Y-15016573D02*
X15520051Y-15016573D01*
X15520051Y-15016573D02*
X15501003Y-15026097D01*
X15501003Y-15026097D02*
X15491479Y-15035621D01*
X15491479Y-15035621D02*
X15481956Y-15054668D01*
X15481956Y-15054668D02*
X15481956Y-15092763D01*
X15481956Y-15092763D02*
X15491479Y-15111811D01*
X15491479Y-15111811D02*
X15501003Y-15121335D01*
X15501003Y-15121335D02*
X15520051Y-15130859D01*
X15520051Y-15130859D02*
X15558146Y-15130859D01*
X15558146Y-15130859D02*
X15577194Y-15121335D01*
X15577194Y-15121335D02*
X15586718Y-15111811D01*
X15586718Y-15111811D02*
X15596241Y-15092763D01*
X15596241Y-15092763D02*
X15596241Y-15054668D01*
X15596241Y-15054668D02*
X15586718Y-15035621D01*
X15586718Y-15035621D02*
X15577194Y-15026097D01*
X15577194Y-15026097D02*
X15558146Y-15016573D01*
X15834337Y-15130859D02*
X15834337Y-14930859D01*
X15920051Y-15130859D02*
X15920051Y-15026097D01*
X15920051Y-15026097D02*
X15910527Y-15007049D01*
X15910527Y-15007049D02*
X15891480Y-14997525D01*
X15891480Y-14997525D02*
X15862908Y-14997525D01*
X15862908Y-14997525D02*
X15843860Y-15007049D01*
X15843860Y-15007049D02*
X15834337Y-15016573D01*
X16043860Y-15130859D02*
X16024813Y-15121335D01*
X16024813Y-15121335D02*
X16015289Y-15111811D01*
X16015289Y-15111811D02*
X16005765Y-15092763D01*
X16005765Y-15092763D02*
X16005765Y-15035621D01*
X16005765Y-15035621D02*
X16015289Y-15016573D01*
X16015289Y-15016573D02*
X16024813Y-15007049D01*
X16024813Y-15007049D02*
X16043860Y-14997525D01*
X16043860Y-14997525D02*
X16072432Y-14997525D01*
X16072432Y-14997525D02*
X16091480Y-15007049D01*
X16091480Y-15007049D02*
X16101003Y-15016573D01*
X16101003Y-15016573D02*
X16110527Y-15035621D01*
X16110527Y-15035621D02*
X16110527Y-15092763D01*
X16110527Y-15092763D02*
X16101003Y-15111811D01*
X16101003Y-15111811D02*
X16091480Y-15121335D01*
X16091480Y-15121335D02*
X16072432Y-15130859D01*
X16072432Y-15130859D02*
X16043860Y-15130859D01*
X16224813Y-15130859D02*
X16205765Y-15121335D01*
X16205765Y-15121335D02*
X16196241Y-15102287D01*
X16196241Y-15102287D02*
X16196241Y-14930859D01*
X16377194Y-15121335D02*
X16358146Y-15130859D01*
X16358146Y-15130859D02*
X16320051Y-15130859D01*
X16320051Y-15130859D02*
X16301003Y-15121335D01*
X16301003Y-15121335D02*
X16291480Y-15102287D01*
X16291480Y-15102287D02*
X16291480Y-15026097D01*
X16291480Y-15026097D02*
X16301003Y-15007049D01*
X16301003Y-15007049D02*
X16320051Y-14997525D01*
X16320051Y-14997525D02*
X16358146Y-14997525D01*
X16358146Y-14997525D02*
X16377194Y-15007049D01*
X16377194Y-15007049D02*
X16386718Y-15026097D01*
X16386718Y-15026097D02*
X16386718Y-15045144D01*
X16386718Y-15045144D02*
X16291480Y-15064192D01*
X16462908Y-15121335D02*
X16481956Y-15130859D01*
X16481956Y-15130859D02*
X16520051Y-15130859D01*
X16520051Y-15130859D02*
X16539099Y-15121335D01*
X16539099Y-15121335D02*
X16548622Y-15102287D01*
X16548622Y-15102287D02*
X16548622Y-15092763D01*
X16548622Y-15092763D02*
X16539099Y-15073716D01*
X16539099Y-15073716D02*
X16520051Y-15064192D01*
X16520051Y-15064192D02*
X16491480Y-15064192D01*
X16491480Y-15064192D02*
X16472432Y-15054668D01*
X16472432Y-15054668D02*
X16462908Y-15035621D01*
X16462908Y-15035621D02*
X16462908Y-15026097D01*
X16462908Y-15026097D02*
X16472432Y-15007049D01*
X16472432Y-15007049D02*
X16491480Y-14997525D01*
X16491480Y-14997525D02*
X16520051Y-14997525D01*
X16520051Y-14997525D02*
X16539099Y-15007049D01*
X16786718Y-15054668D02*
X16939099Y-15054668D01*
X16862908Y-15130859D02*
X16862908Y-14978478D01*
X17291480Y-15130859D02*
X17177194Y-15130859D01*
X17234337Y-15130859D02*
X17234337Y-14930859D01*
X17234337Y-14930859D02*
X17215289Y-14959430D01*
X17215289Y-14959430D02*
X17196242Y-14978478D01*
X17196242Y-14978478D02*
X17177194Y-14988002D01*
X17415289Y-14930859D02*
X17434337Y-14930859D01*
X17434337Y-14930859D02*
X17453385Y-14940383D01*
X17453385Y-14940383D02*
X17462908Y-14949906D01*
X17462908Y-14949906D02*
X17472432Y-14968954D01*
X17472432Y-14968954D02*
X17481956Y-15007049D01*
X17481956Y-15007049D02*
X17481956Y-15054668D01*
X17481956Y-15054668D02*
X17472432Y-15092763D01*
X17472432Y-15092763D02*
X17462908Y-15111811D01*
X17462908Y-15111811D02*
X17453385Y-15121335D01*
X17453385Y-15121335D02*
X17434337Y-15130859D01*
X17434337Y-15130859D02*
X17415289Y-15130859D01*
X17415289Y-15130859D02*
X17396242Y-15121335D01*
X17396242Y-15121335D02*
X17386718Y-15111811D01*
X17386718Y-15111811D02*
X17377194Y-15092763D01*
X17377194Y-15092763D02*
X17367670Y-15054668D01*
X17367670Y-15054668D02*
X17367670Y-15007049D01*
X17367670Y-15007049D02*
X17377194Y-14968954D01*
X17377194Y-14968954D02*
X17386718Y-14949906D01*
X17386718Y-14949906D02*
X17396242Y-14940383D01*
X17396242Y-14940383D02*
X17415289Y-14930859D01*
X17710527Y-15121335D02*
X17729575Y-15130859D01*
X17729575Y-15130859D02*
X17767670Y-15130859D01*
X17767670Y-15130859D02*
X17786718Y-15121335D01*
X17786718Y-15121335D02*
X17796242Y-15102287D01*
X17796242Y-15102287D02*
X17796242Y-15092763D01*
X17796242Y-15092763D02*
X17786718Y-15073716D01*
X17786718Y-15073716D02*
X17767670Y-15064192D01*
X17767670Y-15064192D02*
X17739099Y-15064192D01*
X17739099Y-15064192D02*
X17720051Y-15054668D01*
X17720051Y-15054668D02*
X17710527Y-15035621D01*
X17710527Y-15035621D02*
X17710527Y-15026097D01*
X17710527Y-15026097D02*
X17720051Y-15007049D01*
X17720051Y-15007049D02*
X17739099Y-14997525D01*
X17739099Y-14997525D02*
X17767670Y-14997525D01*
X17767670Y-14997525D02*
X17786718Y-15007049D01*
X17910527Y-15130859D02*
X17891480Y-15121335D01*
X17891480Y-15121335D02*
X17881956Y-15102287D01*
X17881956Y-15102287D02*
X17881956Y-14930859D01*
X18015289Y-15130859D02*
X17996242Y-15121335D01*
X17996242Y-15121335D02*
X17986718Y-15111811D01*
X17986718Y-15111811D02*
X17977194Y-15092763D01*
X17977194Y-15092763D02*
X17977194Y-15035621D01*
X17977194Y-15035621D02*
X17986718Y-15016573D01*
X17986718Y-15016573D02*
X17996242Y-15007049D01*
X17996242Y-15007049D02*
X18015289Y-14997525D01*
X18015289Y-14997525D02*
X18043861Y-14997525D01*
X18043861Y-14997525D02*
X18062908Y-15007049D01*
X18062908Y-15007049D02*
X18072432Y-15016573D01*
X18072432Y-15016573D02*
X18081956Y-15035621D01*
X18081956Y-15035621D02*
X18081956Y-15092763D01*
X18081956Y-15092763D02*
X18072432Y-15111811D01*
X18072432Y-15111811D02*
X18062908Y-15121335D01*
X18062908Y-15121335D02*
X18043861Y-15130859D01*
X18043861Y-15130859D02*
X18015289Y-15130859D01*
X18139099Y-14997525D02*
X18215289Y-14997525D01*
X18167670Y-14930859D02*
X18167670Y-15102287D01*
X18167670Y-15102287D02*
X18177194Y-15121335D01*
X18177194Y-15121335D02*
X18196242Y-15130859D01*
X18196242Y-15130859D02*
X18215289Y-15130859D01*
X18272432Y-15121335D02*
X18291480Y-15130859D01*
X18291480Y-15130859D02*
X18329575Y-15130859D01*
X18329575Y-15130859D02*
X18348623Y-15121335D01*
X18348623Y-15121335D02*
X18358147Y-15102287D01*
X18358147Y-15102287D02*
X18358147Y-15092763D01*
X18358147Y-15092763D02*
X18348623Y-15073716D01*
X18348623Y-15073716D02*
X18329575Y-15064192D01*
X18329575Y-15064192D02*
X18301004Y-15064192D01*
X18301004Y-15064192D02*
X18281956Y-15054668D01*
X18281956Y-15054668D02*
X18272432Y-15035621D01*
X18272432Y-15035621D02*
X18272432Y-15026097D01*
X18272432Y-15026097D02*
X18281956Y-15007049D01*
X18281956Y-15007049D02*
X18301004Y-14997525D01*
X18301004Y-14997525D02*
X18329575Y-14997525D01*
X18329575Y-14997525D02*
X18348623Y-15007049D01*
X18424813Y-15207049D02*
X18434337Y-15197525D01*
X18434337Y-15197525D02*
X18453385Y-15168954D01*
X18453385Y-15168954D02*
X18462908Y-15149906D01*
X18462908Y-15149906D02*
X18472432Y-15121335D01*
X18472432Y-15121335D02*
X18481956Y-15073716D01*
X18481956Y-15073716D02*
X18481956Y-15035621D01*
X18481956Y-15035621D02*
X18472432Y-14988002D01*
X18472432Y-14988002D02*
X18462908Y-14959430D01*
X18462908Y-14959430D02*
X18453385Y-14940383D01*
X18453385Y-14940383D02*
X18434337Y-14911811D01*
X18434337Y-14911811D02*
X18424813Y-14902287D01*
X11549750Y-15403375D02*
X11649750Y-15303375D01*
X11549750Y-15203375D01*
X11449750Y-15303375D01*
X11549750Y-15403375D01*
X11901003Y-15213906D02*
X11910527Y-15204383D01*
X11910527Y-15204383D02*
X11929574Y-15194859D01*
X11929574Y-15194859D02*
X11977193Y-15194859D01*
X11977193Y-15194859D02*
X11996241Y-15204383D01*
X11996241Y-15204383D02*
X12005765Y-15213906D01*
X12005765Y-15213906D02*
X12015289Y-15232954D01*
X12015289Y-15232954D02*
X12015289Y-15252002D01*
X12015289Y-15252002D02*
X12005765Y-15280573D01*
X12005765Y-15280573D02*
X11891479Y-15394859D01*
X11891479Y-15394859D02*
X12015289Y-15394859D01*
X12101003Y-15375811D02*
X12110527Y-15385335D01*
X12110527Y-15385335D02*
X12101003Y-15394859D01*
X12101003Y-15394859D02*
X12091479Y-15385335D01*
X12091479Y-15385335D02*
X12101003Y-15375811D01*
X12101003Y-15375811D02*
X12101003Y-15394859D01*
X12301003Y-15394859D02*
X12186717Y-15394859D01*
X12243860Y-15394859D02*
X12243860Y-15194859D01*
X12243860Y-15194859D02*
X12224812Y-15223430D01*
X12224812Y-15223430D02*
X12205765Y-15242478D01*
X12205765Y-15242478D02*
X12186717Y-15252002D01*
X12424812Y-15194859D02*
X12443860Y-15194859D01*
X12443860Y-15194859D02*
X12462908Y-15204383D01*
X12462908Y-15204383D02*
X12472432Y-15213906D01*
X12472432Y-15213906D02*
X12481955Y-15232954D01*
X12481955Y-15232954D02*
X12491479Y-15271049D01*
X12491479Y-15271049D02*
X12491479Y-15318668D01*
X12491479Y-15318668D02*
X12481955Y-15356763D01*
X12481955Y-15356763D02*
X12472432Y-15375811D01*
X12472432Y-15375811D02*
X12462908Y-15385335D01*
X12462908Y-15385335D02*
X12443860Y-15394859D01*
X12443860Y-15394859D02*
X12424812Y-15394859D01*
X12424812Y-15394859D02*
X12405765Y-15385335D01*
X12405765Y-15385335D02*
X12396241Y-15375811D01*
X12396241Y-15375811D02*
X12386717Y-15356763D01*
X12386717Y-15356763D02*
X12377193Y-15318668D01*
X12377193Y-15318668D02*
X12377193Y-15271049D01*
X12377193Y-15271049D02*
X12386717Y-15232954D01*
X12386717Y-15232954D02*
X12396241Y-15213906D01*
X12396241Y-15213906D02*
X12405765Y-15204383D01*
X12405765Y-15204383D02*
X12424812Y-15194859D01*
X12615289Y-15194859D02*
X12634336Y-15194859D01*
X12634336Y-15194859D02*
X12653384Y-15204383D01*
X12653384Y-15204383D02*
X12662908Y-15213906D01*
X12662908Y-15213906D02*
X12672432Y-15232954D01*
X12672432Y-15232954D02*
X12681955Y-15271049D01*
X12681955Y-15271049D02*
X12681955Y-15318668D01*
X12681955Y-15318668D02*
X12672432Y-15356763D01*
X12672432Y-15356763D02*
X12662908Y-15375811D01*
X12662908Y-15375811D02*
X12653384Y-15385335D01*
X12653384Y-15385335D02*
X12634336Y-15394859D01*
X12634336Y-15394859D02*
X12615289Y-15394859D01*
X12615289Y-15394859D02*
X12596241Y-15385335D01*
X12596241Y-15385335D02*
X12586717Y-15375811D01*
X12586717Y-15375811D02*
X12577193Y-15356763D01*
X12577193Y-15356763D02*
X12567670Y-15318668D01*
X12567670Y-15318668D02*
X12567670Y-15271049D01*
X12567670Y-15271049D02*
X12577193Y-15232954D01*
X12577193Y-15232954D02*
X12586717Y-15213906D01*
X12586717Y-15213906D02*
X12596241Y-15204383D01*
X12596241Y-15204383D02*
X12615289Y-15194859D01*
X12767670Y-15394859D02*
X12767670Y-15261525D01*
X12767670Y-15280573D02*
X12777193Y-15271049D01*
X12777193Y-15271049D02*
X12796241Y-15261525D01*
X12796241Y-15261525D02*
X12824813Y-15261525D01*
X12824813Y-15261525D02*
X12843860Y-15271049D01*
X12843860Y-15271049D02*
X12853384Y-15290097D01*
X12853384Y-15290097D02*
X12853384Y-15394859D01*
X12853384Y-15290097D02*
X12862908Y-15271049D01*
X12862908Y-15271049D02*
X12881955Y-15261525D01*
X12881955Y-15261525D02*
X12910527Y-15261525D01*
X12910527Y-15261525D02*
X12929574Y-15271049D01*
X12929574Y-15271049D02*
X12939098Y-15290097D01*
X12939098Y-15290097D02*
X12939098Y-15394859D01*
X13034336Y-15394859D02*
X13034336Y-15261525D01*
X13034336Y-15280573D02*
X13043860Y-15271049D01*
X13043860Y-15271049D02*
X13062908Y-15261525D01*
X13062908Y-15261525D02*
X13091479Y-15261525D01*
X13091479Y-15261525D02*
X13110527Y-15271049D01*
X13110527Y-15271049D02*
X13120051Y-15290097D01*
X13120051Y-15290097D02*
X13120051Y-15394859D01*
X13120051Y-15290097D02*
X13129574Y-15271049D01*
X13129574Y-15271049D02*
X13148622Y-15261525D01*
X13148622Y-15261525D02*
X13177193Y-15261525D01*
X13177193Y-15261525D02*
X13196241Y-15271049D01*
X13196241Y-15271049D02*
X13205765Y-15290097D01*
X13205765Y-15290097D02*
X13205765Y-15394859D01*
X13596241Y-15185335D02*
X13424813Y-15442478D01*
X13853384Y-15194859D02*
X13872432Y-15194859D01*
X13872432Y-15194859D02*
X13891479Y-15204383D01*
X13891479Y-15204383D02*
X13901003Y-15213906D01*
X13901003Y-15213906D02*
X13910527Y-15232954D01*
X13910527Y-15232954D02*
X13920051Y-15271049D01*
X13920051Y-15271049D02*
X13920051Y-15318668D01*
X13920051Y-15318668D02*
X13910527Y-15356763D01*
X13910527Y-15356763D02*
X13901003Y-15375811D01*
X13901003Y-15375811D02*
X13891479Y-15385335D01*
X13891479Y-15385335D02*
X13872432Y-15394859D01*
X13872432Y-15394859D02*
X13853384Y-15394859D01*
X13853384Y-15394859D02*
X13834336Y-15385335D01*
X13834336Y-15385335D02*
X13824813Y-15375811D01*
X13824813Y-15375811D02*
X13815289Y-15356763D01*
X13815289Y-15356763D02*
X13805765Y-15318668D01*
X13805765Y-15318668D02*
X13805765Y-15271049D01*
X13805765Y-15271049D02*
X13815289Y-15232954D01*
X13815289Y-15232954D02*
X13824813Y-15213906D01*
X13824813Y-15213906D02*
X13834336Y-15204383D01*
X13834336Y-15204383D02*
X13853384Y-15194859D01*
X14005765Y-15375811D02*
X14015289Y-15385335D01*
X14015289Y-15385335D02*
X14005765Y-15394859D01*
X14005765Y-15394859D02*
X13996241Y-15385335D01*
X13996241Y-15385335D02*
X14005765Y-15375811D01*
X14005765Y-15375811D02*
X14005765Y-15394859D01*
X14139098Y-15194859D02*
X14158146Y-15194859D01*
X14158146Y-15194859D02*
X14177194Y-15204383D01*
X14177194Y-15204383D02*
X14186717Y-15213906D01*
X14186717Y-15213906D02*
X14196241Y-15232954D01*
X14196241Y-15232954D02*
X14205765Y-15271049D01*
X14205765Y-15271049D02*
X14205765Y-15318668D01*
X14205765Y-15318668D02*
X14196241Y-15356763D01*
X14196241Y-15356763D02*
X14186717Y-15375811D01*
X14186717Y-15375811D02*
X14177194Y-15385335D01*
X14177194Y-15385335D02*
X14158146Y-15394859D01*
X14158146Y-15394859D02*
X14139098Y-15394859D01*
X14139098Y-15394859D02*
X14120051Y-15385335D01*
X14120051Y-15385335D02*
X14110527Y-15375811D01*
X14110527Y-15375811D02*
X14101003Y-15356763D01*
X14101003Y-15356763D02*
X14091479Y-15318668D01*
X14091479Y-15318668D02*
X14091479Y-15271049D01*
X14091479Y-15271049D02*
X14101003Y-15232954D01*
X14101003Y-15232954D02*
X14110527Y-15213906D01*
X14110527Y-15213906D02*
X14120051Y-15204383D01*
X14120051Y-15204383D02*
X14139098Y-15194859D01*
X14320051Y-15280573D02*
X14301003Y-15271049D01*
X14301003Y-15271049D02*
X14291479Y-15261525D01*
X14291479Y-15261525D02*
X14281956Y-15242478D01*
X14281956Y-15242478D02*
X14281956Y-15232954D01*
X14281956Y-15232954D02*
X14291479Y-15213906D01*
X14291479Y-15213906D02*
X14301003Y-15204383D01*
X14301003Y-15204383D02*
X14320051Y-15194859D01*
X14320051Y-15194859D02*
X14358146Y-15194859D01*
X14358146Y-15194859D02*
X14377194Y-15204383D01*
X14377194Y-15204383D02*
X14386717Y-15213906D01*
X14386717Y-15213906D02*
X14396241Y-15232954D01*
X14396241Y-15232954D02*
X14396241Y-15242478D01*
X14396241Y-15242478D02*
X14386717Y-15261525D01*
X14386717Y-15261525D02*
X14377194Y-15271049D01*
X14377194Y-15271049D02*
X14358146Y-15280573D01*
X14358146Y-15280573D02*
X14320051Y-15280573D01*
X14320051Y-15280573D02*
X14301003Y-15290097D01*
X14301003Y-15290097D02*
X14291479Y-15299621D01*
X14291479Y-15299621D02*
X14281956Y-15318668D01*
X14281956Y-15318668D02*
X14281956Y-15356763D01*
X14281956Y-15356763D02*
X14291479Y-15375811D01*
X14291479Y-15375811D02*
X14301003Y-15385335D01*
X14301003Y-15385335D02*
X14320051Y-15394859D01*
X14320051Y-15394859D02*
X14358146Y-15394859D01*
X14358146Y-15394859D02*
X14377194Y-15385335D01*
X14377194Y-15385335D02*
X14386717Y-15375811D01*
X14386717Y-15375811D02*
X14396241Y-15356763D01*
X14396241Y-15356763D02*
X14396241Y-15318668D01*
X14396241Y-15318668D02*
X14386717Y-15299621D01*
X14386717Y-15299621D02*
X14377194Y-15290097D01*
X14377194Y-15290097D02*
X14358146Y-15280573D01*
X14472432Y-15213906D02*
X14481956Y-15204383D01*
X14481956Y-15204383D02*
X14501003Y-15194859D01*
X14501003Y-15194859D02*
X14548622Y-15194859D01*
X14548622Y-15194859D02*
X14567670Y-15204383D01*
X14567670Y-15204383D02*
X14577194Y-15213906D01*
X14577194Y-15213906D02*
X14586717Y-15232954D01*
X14586717Y-15232954D02*
X14586717Y-15252002D01*
X14586717Y-15252002D02*
X14577194Y-15280573D01*
X14577194Y-15280573D02*
X14462908Y-15394859D01*
X14462908Y-15394859D02*
X14586717Y-15394859D01*
X14653384Y-15194859D02*
X14786717Y-15194859D01*
X14786717Y-15194859D02*
X14701003Y-15394859D01*
X14853384Y-15194859D02*
X14853384Y-15232954D01*
X14929575Y-15194859D02*
X14929575Y-15232954D01*
X15224813Y-15471049D02*
X15215289Y-15461525D01*
X15215289Y-15461525D02*
X15196241Y-15432954D01*
X15196241Y-15432954D02*
X15186718Y-15413906D01*
X15186718Y-15413906D02*
X15177194Y-15385335D01*
X15177194Y-15385335D02*
X15167670Y-15337716D01*
X15167670Y-15337716D02*
X15167670Y-15299621D01*
X15167670Y-15299621D02*
X15177194Y-15252002D01*
X15177194Y-15252002D02*
X15186718Y-15223430D01*
X15186718Y-15223430D02*
X15196241Y-15204383D01*
X15196241Y-15204383D02*
X15215289Y-15175811D01*
X15215289Y-15175811D02*
X15224813Y-15166287D01*
X15291479Y-15213906D02*
X15301003Y-15204383D01*
X15301003Y-15204383D02*
X15320051Y-15194859D01*
X15320051Y-15194859D02*
X15367670Y-15194859D01*
X15367670Y-15194859D02*
X15386718Y-15204383D01*
X15386718Y-15204383D02*
X15396241Y-15213906D01*
X15396241Y-15213906D02*
X15405765Y-15232954D01*
X15405765Y-15232954D02*
X15405765Y-15252002D01*
X15405765Y-15252002D02*
X15396241Y-15280573D01*
X15396241Y-15280573D02*
X15281956Y-15394859D01*
X15281956Y-15394859D02*
X15405765Y-15394859D01*
X15643860Y-15394859D02*
X15643860Y-15194859D01*
X15729575Y-15394859D02*
X15729575Y-15290097D01*
X15729575Y-15290097D02*
X15720051Y-15271049D01*
X15720051Y-15271049D02*
X15701003Y-15261525D01*
X15701003Y-15261525D02*
X15672432Y-15261525D01*
X15672432Y-15261525D02*
X15653384Y-15271049D01*
X15653384Y-15271049D02*
X15643860Y-15280573D01*
X15853384Y-15394859D02*
X15834337Y-15385335D01*
X15834337Y-15385335D02*
X15824813Y-15375811D01*
X15824813Y-15375811D02*
X15815289Y-15356763D01*
X15815289Y-15356763D02*
X15815289Y-15299621D01*
X15815289Y-15299621D02*
X15824813Y-15280573D01*
X15824813Y-15280573D02*
X15834337Y-15271049D01*
X15834337Y-15271049D02*
X15853384Y-15261525D01*
X15853384Y-15261525D02*
X15881956Y-15261525D01*
X15881956Y-15261525D02*
X15901003Y-15271049D01*
X15901003Y-15271049D02*
X15910527Y-15280573D01*
X15910527Y-15280573D02*
X15920051Y-15299621D01*
X15920051Y-15299621D02*
X15920051Y-15356763D01*
X15920051Y-15356763D02*
X15910527Y-15375811D01*
X15910527Y-15375811D02*
X15901003Y-15385335D01*
X15901003Y-15385335D02*
X15881956Y-15394859D01*
X15881956Y-15394859D02*
X15853384Y-15394859D01*
X16034337Y-15394859D02*
X16015289Y-15385335D01*
X16015289Y-15385335D02*
X16005765Y-15366287D01*
X16005765Y-15366287D02*
X16005765Y-15194859D01*
X16186718Y-15385335D02*
X16167670Y-15394859D01*
X16167670Y-15394859D02*
X16129575Y-15394859D01*
X16129575Y-15394859D02*
X16110527Y-15385335D01*
X16110527Y-15385335D02*
X16101003Y-15366287D01*
X16101003Y-15366287D02*
X16101003Y-15290097D01*
X16101003Y-15290097D02*
X16110527Y-15271049D01*
X16110527Y-15271049D02*
X16129575Y-15261525D01*
X16129575Y-15261525D02*
X16167670Y-15261525D01*
X16167670Y-15261525D02*
X16186718Y-15271049D01*
X16186718Y-15271049D02*
X16196241Y-15290097D01*
X16196241Y-15290097D02*
X16196241Y-15309144D01*
X16196241Y-15309144D02*
X16101003Y-15328192D01*
X16272432Y-15385335D02*
X16291480Y-15394859D01*
X16291480Y-15394859D02*
X16329575Y-15394859D01*
X16329575Y-15394859D02*
X16348622Y-15385335D01*
X16348622Y-15385335D02*
X16358146Y-15366287D01*
X16358146Y-15366287D02*
X16358146Y-15356763D01*
X16358146Y-15356763D02*
X16348622Y-15337716D01*
X16348622Y-15337716D02*
X16329575Y-15328192D01*
X16329575Y-15328192D02*
X16301003Y-15328192D01*
X16301003Y-15328192D02*
X16281956Y-15318668D01*
X16281956Y-15318668D02*
X16272432Y-15299621D01*
X16272432Y-15299621D02*
X16272432Y-15290097D01*
X16272432Y-15290097D02*
X16281956Y-15271049D01*
X16281956Y-15271049D02*
X16301003Y-15261525D01*
X16301003Y-15261525D02*
X16329575Y-15261525D01*
X16329575Y-15261525D02*
X16348622Y-15271049D01*
X16424813Y-15471049D02*
X16434337Y-15461525D01*
X16434337Y-15461525D02*
X16453384Y-15432954D01*
X16453384Y-15432954D02*
X16462908Y-15413906D01*
X16462908Y-15413906D02*
X16472432Y-15385335D01*
X16472432Y-15385335D02*
X16481956Y-15337716D01*
X16481956Y-15337716D02*
X16481956Y-15299621D01*
X16481956Y-15299621D02*
X16472432Y-15252002D01*
X16472432Y-15252002D02*
X16462908Y-15223430D01*
X16462908Y-15223430D02*
X16453384Y-15204383D01*
X16453384Y-15204383D02*
X16434337Y-15175811D01*
X16434337Y-15175811D02*
X16424813Y-15166287D01*
X11449750Y-15523375D02*
X11649750Y-15723375D01*
X11649750Y-15523375D02*
X11449750Y-15723375D01*
X11649750Y-15623375D02*
G75*
G02*
X11449750Y-15623375I-100000J0D01*
G01*
X11449750Y-15623375D02*
G75*
G02*
X11649750Y-15623375I100000J0D01*
G01*
X11891479Y-15514859D02*
X12015289Y-15514859D01*
X12015289Y-15514859D02*
X11948622Y-15591049D01*
X11948622Y-15591049D02*
X11977193Y-15591049D01*
X11977193Y-15591049D02*
X11996241Y-15600573D01*
X11996241Y-15600573D02*
X12005765Y-15610097D01*
X12005765Y-15610097D02*
X12015289Y-15629144D01*
X12015289Y-15629144D02*
X12015289Y-15676763D01*
X12015289Y-15676763D02*
X12005765Y-15695811D01*
X12005765Y-15695811D02*
X11996241Y-15705335D01*
X11996241Y-15705335D02*
X11977193Y-15714859D01*
X11977193Y-15714859D02*
X11920051Y-15714859D01*
X11920051Y-15714859D02*
X11901003Y-15705335D01*
X11901003Y-15705335D02*
X11891479Y-15695811D01*
X12101003Y-15695811D02*
X12110527Y-15705335D01*
X12110527Y-15705335D02*
X12101003Y-15714859D01*
X12101003Y-15714859D02*
X12091479Y-15705335D01*
X12091479Y-15705335D02*
X12101003Y-15695811D01*
X12101003Y-15695811D02*
X12101003Y-15714859D01*
X12186717Y-15533906D02*
X12196241Y-15524383D01*
X12196241Y-15524383D02*
X12215289Y-15514859D01*
X12215289Y-15514859D02*
X12262908Y-15514859D01*
X12262908Y-15514859D02*
X12281955Y-15524383D01*
X12281955Y-15524383D02*
X12291479Y-15533906D01*
X12291479Y-15533906D02*
X12301003Y-15552954D01*
X12301003Y-15552954D02*
X12301003Y-15572002D01*
X12301003Y-15572002D02*
X12291479Y-15600573D01*
X12291479Y-15600573D02*
X12177193Y-15714859D01*
X12177193Y-15714859D02*
X12301003Y-15714859D01*
X12424812Y-15514859D02*
X12443860Y-15514859D01*
X12443860Y-15514859D02*
X12462908Y-15524383D01*
X12462908Y-15524383D02*
X12472432Y-15533906D01*
X12472432Y-15533906D02*
X12481955Y-15552954D01*
X12481955Y-15552954D02*
X12491479Y-15591049D01*
X12491479Y-15591049D02*
X12491479Y-15638668D01*
X12491479Y-15638668D02*
X12481955Y-15676763D01*
X12481955Y-15676763D02*
X12472432Y-15695811D01*
X12472432Y-15695811D02*
X12462908Y-15705335D01*
X12462908Y-15705335D02*
X12443860Y-15714859D01*
X12443860Y-15714859D02*
X12424812Y-15714859D01*
X12424812Y-15714859D02*
X12405765Y-15705335D01*
X12405765Y-15705335D02*
X12396241Y-15695811D01*
X12396241Y-15695811D02*
X12386717Y-15676763D01*
X12386717Y-15676763D02*
X12377193Y-15638668D01*
X12377193Y-15638668D02*
X12377193Y-15591049D01*
X12377193Y-15591049D02*
X12386717Y-15552954D01*
X12386717Y-15552954D02*
X12396241Y-15533906D01*
X12396241Y-15533906D02*
X12405765Y-15524383D01*
X12405765Y-15524383D02*
X12424812Y-15514859D01*
X12615289Y-15514859D02*
X12634336Y-15514859D01*
X12634336Y-15514859D02*
X12653384Y-15524383D01*
X12653384Y-15524383D02*
X12662908Y-15533906D01*
X12662908Y-15533906D02*
X12672432Y-15552954D01*
X12672432Y-15552954D02*
X12681955Y-15591049D01*
X12681955Y-15591049D02*
X12681955Y-15638668D01*
X12681955Y-15638668D02*
X12672432Y-15676763D01*
X12672432Y-15676763D02*
X12662908Y-15695811D01*
X12662908Y-15695811D02*
X12653384Y-15705335D01*
X12653384Y-15705335D02*
X12634336Y-15714859D01*
X12634336Y-15714859D02*
X12615289Y-15714859D01*
X12615289Y-15714859D02*
X12596241Y-15705335D01*
X12596241Y-15705335D02*
X12586717Y-15695811D01*
X12586717Y-15695811D02*
X12577193Y-15676763D01*
X12577193Y-15676763D02*
X12567670Y-15638668D01*
X12567670Y-15638668D02*
X12567670Y-15591049D01*
X12567670Y-15591049D02*
X12577193Y-15552954D01*
X12577193Y-15552954D02*
X12586717Y-15533906D01*
X12586717Y-15533906D02*
X12596241Y-15524383D01*
X12596241Y-15524383D02*
X12615289Y-15514859D01*
X12767670Y-15714859D02*
X12767670Y-15581525D01*
X12767670Y-15600573D02*
X12777193Y-15591049D01*
X12777193Y-15591049D02*
X12796241Y-15581525D01*
X12796241Y-15581525D02*
X12824813Y-15581525D01*
X12824813Y-15581525D02*
X12843860Y-15591049D01*
X12843860Y-15591049D02*
X12853384Y-15610097D01*
X12853384Y-15610097D02*
X12853384Y-15714859D01*
X12853384Y-15610097D02*
X12862908Y-15591049D01*
X12862908Y-15591049D02*
X12881955Y-15581525D01*
X12881955Y-15581525D02*
X12910527Y-15581525D01*
X12910527Y-15581525D02*
X12929574Y-15591049D01*
X12929574Y-15591049D02*
X12939098Y-15610097D01*
X12939098Y-15610097D02*
X12939098Y-15714859D01*
X13034336Y-15714859D02*
X13034336Y-15581525D01*
X13034336Y-15600573D02*
X13043860Y-15591049D01*
X13043860Y-15591049D02*
X13062908Y-15581525D01*
X13062908Y-15581525D02*
X13091479Y-15581525D01*
X13091479Y-15581525D02*
X13110527Y-15591049D01*
X13110527Y-15591049D02*
X13120051Y-15610097D01*
X13120051Y-15610097D02*
X13120051Y-15714859D01*
X13120051Y-15610097D02*
X13129574Y-15591049D01*
X13129574Y-15591049D02*
X13148622Y-15581525D01*
X13148622Y-15581525D02*
X13177193Y-15581525D01*
X13177193Y-15581525D02*
X13196241Y-15591049D01*
X13196241Y-15591049D02*
X13205765Y-15610097D01*
X13205765Y-15610097D02*
X13205765Y-15714859D01*
X13596241Y-15505335D02*
X13424813Y-15762478D01*
X13853384Y-15514859D02*
X13872432Y-15514859D01*
X13872432Y-15514859D02*
X13891479Y-15524383D01*
X13891479Y-15524383D02*
X13901003Y-15533906D01*
X13901003Y-15533906D02*
X13910527Y-15552954D01*
X13910527Y-15552954D02*
X13920051Y-15591049D01*
X13920051Y-15591049D02*
X13920051Y-15638668D01*
X13920051Y-15638668D02*
X13910527Y-15676763D01*
X13910527Y-15676763D02*
X13901003Y-15695811D01*
X13901003Y-15695811D02*
X13891479Y-15705335D01*
X13891479Y-15705335D02*
X13872432Y-15714859D01*
X13872432Y-15714859D02*
X13853384Y-15714859D01*
X13853384Y-15714859D02*
X13834336Y-15705335D01*
X13834336Y-15705335D02*
X13824813Y-15695811D01*
X13824813Y-15695811D02*
X13815289Y-15676763D01*
X13815289Y-15676763D02*
X13805765Y-15638668D01*
X13805765Y-15638668D02*
X13805765Y-15591049D01*
X13805765Y-15591049D02*
X13815289Y-15552954D01*
X13815289Y-15552954D02*
X13824813Y-15533906D01*
X13824813Y-15533906D02*
X13834336Y-15524383D01*
X13834336Y-15524383D02*
X13853384Y-15514859D01*
X14005765Y-15695811D02*
X14015289Y-15705335D01*
X14015289Y-15705335D02*
X14005765Y-15714859D01*
X14005765Y-15714859D02*
X13996241Y-15705335D01*
X13996241Y-15705335D02*
X14005765Y-15695811D01*
X14005765Y-15695811D02*
X14005765Y-15714859D01*
X14205765Y-15714859D02*
X14091479Y-15714859D01*
X14148622Y-15714859D02*
X14148622Y-15514859D01*
X14148622Y-15514859D02*
X14129575Y-15543430D01*
X14129575Y-15543430D02*
X14110527Y-15562478D01*
X14110527Y-15562478D02*
X14091479Y-15572002D01*
X14281956Y-15533906D02*
X14291479Y-15524383D01*
X14291479Y-15524383D02*
X14310527Y-15514859D01*
X14310527Y-15514859D02*
X14358146Y-15514859D01*
X14358146Y-15514859D02*
X14377194Y-15524383D01*
X14377194Y-15524383D02*
X14386717Y-15533906D01*
X14386717Y-15533906D02*
X14396241Y-15552954D01*
X14396241Y-15552954D02*
X14396241Y-15572002D01*
X14396241Y-15572002D02*
X14386717Y-15600573D01*
X14386717Y-15600573D02*
X14272432Y-15714859D01*
X14272432Y-15714859D02*
X14396241Y-15714859D01*
X14567670Y-15514859D02*
X14529575Y-15514859D01*
X14529575Y-15514859D02*
X14510527Y-15524383D01*
X14510527Y-15524383D02*
X14501003Y-15533906D01*
X14501003Y-15533906D02*
X14481956Y-15562478D01*
X14481956Y-15562478D02*
X14472432Y-15600573D01*
X14472432Y-15600573D02*
X14472432Y-15676763D01*
X14472432Y-15676763D02*
X14481956Y-15695811D01*
X14481956Y-15695811D02*
X14491479Y-15705335D01*
X14491479Y-15705335D02*
X14510527Y-15714859D01*
X14510527Y-15714859D02*
X14548622Y-15714859D01*
X14548622Y-15714859D02*
X14567670Y-15705335D01*
X14567670Y-15705335D02*
X14577194Y-15695811D01*
X14577194Y-15695811D02*
X14586717Y-15676763D01*
X14586717Y-15676763D02*
X14586717Y-15629144D01*
X14586717Y-15629144D02*
X14577194Y-15610097D01*
X14577194Y-15610097D02*
X14567670Y-15600573D01*
X14567670Y-15600573D02*
X14548622Y-15591049D01*
X14548622Y-15591049D02*
X14510527Y-15591049D01*
X14510527Y-15591049D02*
X14491479Y-15600573D01*
X14491479Y-15600573D02*
X14481956Y-15610097D01*
X14481956Y-15610097D02*
X14472432Y-15629144D01*
X14710527Y-15514859D02*
X14729575Y-15514859D01*
X14729575Y-15514859D02*
X14748622Y-15524383D01*
X14748622Y-15524383D02*
X14758146Y-15533906D01*
X14758146Y-15533906D02*
X14767670Y-15552954D01*
X14767670Y-15552954D02*
X14777194Y-15591049D01*
X14777194Y-15591049D02*
X14777194Y-15638668D01*
X14777194Y-15638668D02*
X14767670Y-15676763D01*
X14767670Y-15676763D02*
X14758146Y-15695811D01*
X14758146Y-15695811D02*
X14748622Y-15705335D01*
X14748622Y-15705335D02*
X14729575Y-15714859D01*
X14729575Y-15714859D02*
X14710527Y-15714859D01*
X14710527Y-15714859D02*
X14691479Y-15705335D01*
X14691479Y-15705335D02*
X14681956Y-15695811D01*
X14681956Y-15695811D02*
X14672432Y-15676763D01*
X14672432Y-15676763D02*
X14662908Y-15638668D01*
X14662908Y-15638668D02*
X14662908Y-15591049D01*
X14662908Y-15591049D02*
X14672432Y-15552954D01*
X14672432Y-15552954D02*
X14681956Y-15533906D01*
X14681956Y-15533906D02*
X14691479Y-15524383D01*
X14691479Y-15524383D02*
X14710527Y-15514859D01*
X14853384Y-15514859D02*
X14853384Y-15552954D01*
X14929575Y-15514859D02*
X14929575Y-15552954D01*
X15224813Y-15791049D02*
X15215289Y-15781525D01*
X15215289Y-15781525D02*
X15196241Y-15752954D01*
X15196241Y-15752954D02*
X15186718Y-15733906D01*
X15186718Y-15733906D02*
X15177194Y-15705335D01*
X15177194Y-15705335D02*
X15167670Y-15657716D01*
X15167670Y-15657716D02*
X15167670Y-15619621D01*
X15167670Y-15619621D02*
X15177194Y-15572002D01*
X15177194Y-15572002D02*
X15186718Y-15543430D01*
X15186718Y-15543430D02*
X15196241Y-15524383D01*
X15196241Y-15524383D02*
X15215289Y-15495811D01*
X15215289Y-15495811D02*
X15224813Y-15486287D01*
X15291479Y-15533906D02*
X15301003Y-15524383D01*
X15301003Y-15524383D02*
X15320051Y-15514859D01*
X15320051Y-15514859D02*
X15367670Y-15514859D01*
X15367670Y-15514859D02*
X15386718Y-15524383D01*
X15386718Y-15524383D02*
X15396241Y-15533906D01*
X15396241Y-15533906D02*
X15405765Y-15552954D01*
X15405765Y-15552954D02*
X15405765Y-15572002D01*
X15405765Y-15572002D02*
X15396241Y-15600573D01*
X15396241Y-15600573D02*
X15281956Y-15714859D01*
X15281956Y-15714859D02*
X15405765Y-15714859D01*
X15643860Y-15714859D02*
X15643860Y-15514859D01*
X15729575Y-15714859D02*
X15729575Y-15610097D01*
X15729575Y-15610097D02*
X15720051Y-15591049D01*
X15720051Y-15591049D02*
X15701003Y-15581525D01*
X15701003Y-15581525D02*
X15672432Y-15581525D01*
X15672432Y-15581525D02*
X15653384Y-15591049D01*
X15653384Y-15591049D02*
X15643860Y-15600573D01*
X15853384Y-15714859D02*
X15834337Y-15705335D01*
X15834337Y-15705335D02*
X15824813Y-15695811D01*
X15824813Y-15695811D02*
X15815289Y-15676763D01*
X15815289Y-15676763D02*
X15815289Y-15619621D01*
X15815289Y-15619621D02*
X15824813Y-15600573D01*
X15824813Y-15600573D02*
X15834337Y-15591049D01*
X15834337Y-15591049D02*
X15853384Y-15581525D01*
X15853384Y-15581525D02*
X15881956Y-15581525D01*
X15881956Y-15581525D02*
X15901003Y-15591049D01*
X15901003Y-15591049D02*
X15910527Y-15600573D01*
X15910527Y-15600573D02*
X15920051Y-15619621D01*
X15920051Y-15619621D02*
X15920051Y-15676763D01*
X15920051Y-15676763D02*
X15910527Y-15695811D01*
X15910527Y-15695811D02*
X15901003Y-15705335D01*
X15901003Y-15705335D02*
X15881956Y-15714859D01*
X15881956Y-15714859D02*
X15853384Y-15714859D01*
X16034337Y-15714859D02*
X16015289Y-15705335D01*
X16015289Y-15705335D02*
X16005765Y-15686287D01*
X16005765Y-15686287D02*
X16005765Y-15514859D01*
X16186718Y-15705335D02*
X16167670Y-15714859D01*
X16167670Y-15714859D02*
X16129575Y-15714859D01*
X16129575Y-15714859D02*
X16110527Y-15705335D01*
X16110527Y-15705335D02*
X16101003Y-15686287D01*
X16101003Y-15686287D02*
X16101003Y-15610097D01*
X16101003Y-15610097D02*
X16110527Y-15591049D01*
X16110527Y-15591049D02*
X16129575Y-15581525D01*
X16129575Y-15581525D02*
X16167670Y-15581525D01*
X16167670Y-15581525D02*
X16186718Y-15591049D01*
X16186718Y-15591049D02*
X16196241Y-15610097D01*
X16196241Y-15610097D02*
X16196241Y-15629144D01*
X16196241Y-15629144D02*
X16101003Y-15648192D01*
X16272432Y-15705335D02*
X16291480Y-15714859D01*
X16291480Y-15714859D02*
X16329575Y-15714859D01*
X16329575Y-15714859D02*
X16348622Y-15705335D01*
X16348622Y-15705335D02*
X16358146Y-15686287D01*
X16358146Y-15686287D02*
X16358146Y-15676763D01*
X16358146Y-15676763D02*
X16348622Y-15657716D01*
X16348622Y-15657716D02*
X16329575Y-15648192D01*
X16329575Y-15648192D02*
X16301003Y-15648192D01*
X16301003Y-15648192D02*
X16281956Y-15638668D01*
X16281956Y-15638668D02*
X16272432Y-15619621D01*
X16272432Y-15619621D02*
X16272432Y-15610097D01*
X16272432Y-15610097D02*
X16281956Y-15591049D01*
X16281956Y-15591049D02*
X16301003Y-15581525D01*
X16301003Y-15581525D02*
X16329575Y-15581525D01*
X16329575Y-15581525D02*
X16348622Y-15591049D01*
X16424813Y-15791049D02*
X16434337Y-15781525D01*
X16434337Y-15781525D02*
X16453384Y-15752954D01*
X16453384Y-15752954D02*
X16462908Y-15733906D01*
X16462908Y-15733906D02*
X16472432Y-15705335D01*
X16472432Y-15705335D02*
X16481956Y-15657716D01*
X16481956Y-15657716D02*
X16481956Y-15619621D01*
X16481956Y-15619621D02*
X16472432Y-15572002D01*
X16472432Y-15572002D02*
X16462908Y-15543430D01*
X16462908Y-15543430D02*
X16453384Y-15524383D01*
X16453384Y-15524383D02*
X16434337Y-15495811D01*
X16434337Y-15495811D02*
X16424813Y-15486287D01*
M02*
