M48
; DRILL file {KiCad 8.0.8-8.0.8-0~ubuntu24.04.1} date 2025-01-15T11:24:37+0100
; FORMAT={-:-/ absolute / inch / decimal}
; #@! TF.CreationDate,2025-01-15T11:24:37+01:00
; #@! TF.GenerationSoftware,Kicad,Pcbnew,8.0.8-8.0.8-0~ubuntu24.04.1
; #@! TF.FileFunction,Plated,1,4,PTH
FMAT,2
INCH
; #@! TA.AperFunction,Plated,PTH,ViaDrill
T1C0.0118
; #@! TA.AperFunction,Plated,PTH,ComponentDrill
T2C0.0118
; #@! TA.AperFunction,Plated,PTH,ComponentDrill
T3C0.0354
; #@! TA.AperFunction,Plated,PTH,ComponentDrill
T4C0.0394
; #@! TA.AperFunction,Plated,PTH,ComponentDrill
T5C0.0827
; #@! TA.AperFunction,Plated,PTH,ComponentDrill
T6C0.1260
%
G90
G05
T1
X4.65Y-4.985
X4.65Y-5.01
X4.65Y-5.035
X4.72Y-4.985
X4.72Y-5.01
X4.72Y-5.0347
X4.85Y-4.985
X4.85Y-5.01
X4.85Y-5.0354
X4.92Y-4.985
X4.92Y-5.01
X4.92Y-5.0347
X5.1417Y-5.0472
X5.143Y-4.251
X5.3848Y-2.0994
X5.4016Y-2.1181
X5.587Y-3.382
X5.587Y-3.602
X5.587Y-3.709
X5.587Y-3.839
X5.587Y-3.972
X5.587Y-4.118
X5.588Y-3.476
X5.588Y-3.748
X5.589Y-4.07
X5.589Y-4.205
X5.732Y-4.307
X6.012Y-4.52
X6.013Y-3.506
X6.035Y-4.1776
X6.1378Y-3.7283
X6.206Y-3.9156
X6.206Y-3.9944
X6.244Y-3.881
X6.252Y-4.9646
X6.265Y-3.854
X6.299Y-3.913
X6.338Y-4.423
X6.359Y-4.324
X6.379Y-3.622
X6.396Y-3.707
X6.398Y-4.459
X6.3998Y-3.2838
X6.415Y-4.324
X6.4285Y-3.2828
X6.437Y-5.0236
X6.447Y-3.708
X6.458Y-4.485
X6.46Y-3.823
X6.4642Y-4.074
X6.47Y-3.932
X6.471Y-3.385
X6.472Y-3.518
X6.4724Y-4.347
X6.476Y-3.652
X6.497Y-3.822
X6.498Y-3.368
X6.502Y-3.689
X6.508Y-3.504
X6.525Y-4.214
X6.526Y-3.821
X6.527Y-3.931
X6.5394Y-5.0236
X6.5408Y-4.485
X6.5458Y-3.653
X6.5458Y-4.074
X6.602Y-4.508
X6.6181Y-1.9882
X6.7008Y-2.3976
X6.728Y-3.49
X6.7283Y-2.3622
X6.7283Y-2.4331
X6.7338Y-4.9721
X6.7338Y-4.9957
X6.7338Y-5.0193
X6.7402Y-4.3228
X6.7402Y-4.3543
X6.742Y-4.049
X6.754Y-3.358
X6.7574Y-4.9721
X6.7574Y-4.9957
X6.7574Y-5.0193
X6.7642Y-3.8095
X6.7661Y-3.4157
X6.767Y-3.781
X6.768Y-4.283
X6.769Y-3.639
X6.7874Y-4.9016
X6.789Y-4.216
X6.7923Y-4.1132
X6.8006Y-2.7517
X6.8006Y-2.8383
X6.8041Y-3.8846
X6.811Y-2.3622
X6.811Y-2.4331
X6.827Y-4.216
X6.836Y-2.7241
X6.836Y-2.8659
X6.837Y-4.1262
X6.838Y-3.708
X6.838Y-4.074
X6.8386Y-2.3976
X6.8424Y-3.4883
X6.8445Y-5.002
X6.848Y-4.477
X6.856Y-4.585
X6.8642Y-5.0217
X6.869Y-4.107
X6.87Y-3.843
X6.871Y-4.307
X6.8714Y-2.7517
X6.8714Y-2.8383
X6.876Y-3.709
X6.8896Y-2.2008
X6.8898Y-2.0
X6.89Y-3.332
X6.8957Y-4.4508
X6.8958Y-4.0749
X6.9Y-3.476
X6.906Y-3.844
X6.9125Y-2.8183
X6.917Y-3.602
X6.92Y-3.972
X6.921Y-4.129
X6.925Y-4.435
X6.928Y-4.26
X6.931Y-4.491
X6.945Y-3.478
X6.945Y-3.748
X6.9529Y-2.7607
X6.9529Y-2.679
X6.968Y-2.563
X6.9715Y-3.9124
X6.9814Y-4.4068
X6.9838Y-4.3338
X6.9867Y-3.7968
X7.002Y-4.602
X7.004Y-4.147
X7.0049Y-2.6606
X7.0138Y-4.491
X7.0277Y-2.6677
X7.0307Y-2.7711
X7.0316Y-2.9079
X7.048Y-3.9812
X7.048Y-3.7218
X7.048Y-3.6402
X7.048Y-4.0628
X7.051Y-4.574
X7.0569Y-3.5585
X7.062Y-4.677
X7.0669Y-5.0118
X7.07Y-2.7595
X7.085Y-5.0315
X7.105Y-3.589
X7.1192Y-3.796
X7.128Y-2.402
X7.1409Y-3.0112
X7.1458Y-2.9079
X7.153Y-2.0642
X7.1533Y-2.3016
X7.155Y-2.1607
X7.1659Y-2.3213
X7.176Y-3.426
X7.176Y-3.454
X7.191Y-4.146
X7.192Y-4.307
X7.194Y-4.225
X7.198Y-2.7661
X7.201Y-4.042
X7.2015Y-2.6864
X7.2021Y-3.127
X7.206Y-1.966
X7.206Y-2.0618
X7.206Y-2.1621
X7.211Y-2.487
X7.2246Y-2.9079
X7.2314Y-2.9915
X7.244Y-2.2808
X7.2574Y-2.0623
X7.264Y-3.64
X7.2679Y-2.9669
X7.271Y-3.828
X7.2718Y-2.7071
X7.2758Y-4.224
X7.292Y-2.487
X7.292Y-3.927
X7.321Y-3.721
X7.3311Y-3.036
X7.3311Y-3.0851
X7.3311Y-2.9543
X7.337Y-4.492
X7.341Y-2.758
X7.341Y-2.6722
X7.352Y-3.821
X7.359Y-2.38
X7.369Y-3.705
X7.3714Y-3.8906
X7.377Y-3.9178
X7.377Y-4.175
X7.377Y-4.203
X7.378Y-4.12
X7.378Y-4.145
X7.3811Y-3.821
X7.3895Y-4.3465
X7.392Y-4.225
X7.3924Y-1.9913
X7.3924Y-2.0307
X7.394Y-4.371
X7.394Y-4.583
X7.406Y-4.533
X7.437Y-4.43
X7.438Y-3.455
X7.44Y-4.512
X7.4488Y-4.9961
X7.4488Y-5.0197
X7.4488Y-5.0433
X7.4494Y-4.7888
X7.4494Y-4.8124
X7.4494Y-4.84
X7.4514Y-1.9913
X7.4514Y-2.0307
X7.478Y-4.361
X7.482Y-4.437
X7.483Y-4.58
X7.4848Y-3.429
X7.491Y-3.678
X7.492Y-3.641
X7.4932Y-4.51
X7.495Y-3.8122
X7.495Y-3.8938
X7.4952Y-3.853
X7.5066Y-1.9913
X7.5066Y-2.0307
X7.5144Y-4.7888
X7.5144Y-4.8124
X7.5144Y-4.84
X7.5197Y-4.9961
X7.5197Y-5.0197
X7.5197Y-5.0433
X7.532Y-3.326
X7.544Y-4.717
X7.555Y-4.443
X7.557Y-4.346
X7.5644Y-4.7888
X7.5644Y-4.8124
X7.5644Y-4.84
X7.5656Y-1.9913
X7.5656Y-2.0307
X7.582Y-3.326
X7.582Y-4.528
X7.5847Y-4.3464
X7.585Y-4.9134
X7.613Y-4.491
X7.615Y-4.365
X7.626Y-4.717
X7.627Y-4.656
X7.632Y-3.523
X7.6339Y-4.9488
X7.6339Y-4.9724
X7.6339Y-4.9961
X7.6339Y-5.0197
X7.6344Y-4.7888
X7.6344Y-4.8124
X7.6344Y-4.84
X7.6575Y-4.9488
X7.6575Y-4.9724
X7.6575Y-4.9961
X7.6575Y-5.0197
X7.689Y-4.5602
X7.691Y-4.642
X7.693Y-3.8922
X7.693Y-3.9738
X7.749Y-4.975
X7.751Y-4.812
X7.759Y-3.37
X7.76Y-3.4528
X7.7652Y-4.472
X7.7662Y-4.393
X7.77Y-4.642
X7.771Y-4.5592
X7.792Y-3.607
X7.8181Y-4.2559
X7.831Y-4.559
X7.833Y-4.53
X7.834Y-4.587
X7.8343Y-4.8123
X7.847Y-4.471
X7.849Y-4.393
X7.8572Y-4.174
X7.859Y-4.53
X7.86Y-4.588
X7.861Y-4.558
X7.894Y-4.252
X7.906Y-3.9312
X7.906Y-4.013
X7.912Y-4.097
X7.939Y-4.174
X7.956Y-4.441
X7.968Y-4.465
X7.984Y-4.44
X7.99Y-4.011
X7.993Y-4.096
X8.022Y-4.31
X8.022Y-4.388
X8.0669Y-3.3228
X8.1287Y-3.1823
X8.1289Y-3.8868
X8.1378Y-3.8346
X8.1654Y-3.739
X8.1654Y-3.7638
X8.1654Y-3.7874
X8.1654Y-3.8346
X8.17Y-3.9252
X8.17Y-3.9488
X8.17Y-3.9724
X8.2126Y-4.75
X8.2126Y-4.7776
X8.2677Y-3.8346
X8.2677Y-3.874
X8.2689Y-3.9252
X8.2689Y-3.9488
X8.2689Y-3.9724
X8.2717Y-3.739
X8.2717Y-3.7638
X8.2717Y-3.7874
X8.2835Y-4.75
X8.2835Y-4.7776
X8.3307Y-3.6327
X8.3307Y-3.6575
X8.3307Y-3.6811
X8.405Y-3.6327
X8.405Y-3.6575
X8.405Y-3.6811
X8.4449Y-3.7638
X8.4449Y-3.9449
X8.4685Y-3.7638
X8.4685Y-3.9449
X8.4921Y-3.7638
X8.4921Y-3.9449
T2
X7.5084Y-4.2106
X7.5084Y-4.3169
X7.5085Y-4.2638
X7.5615Y-4.2108
X7.5615Y-4.2638
X7.5615Y-4.3168
X7.6145Y-4.2638
X7.6147Y-4.2106
X7.6147Y-4.3169
T3
X8.2131Y-4.2435
X8.2131Y-4.3419
X8.2131Y-4.4207
X8.2131Y-4.5191
T4
X4.928Y-1.7425
X4.928Y-1.8425
X5.028Y-1.7425
X5.028Y-1.8425
X5.128Y-1.7425
X5.128Y-1.8425
X5.228Y-1.7425
X5.228Y-1.8425
X5.328Y-1.7425
X5.328Y-1.8425
X5.335Y-4.785
X5.335Y-4.885
X5.428Y-1.7425
X5.428Y-1.8425
X5.435Y-4.785
X5.435Y-4.885
X5.528Y-1.7425
X5.528Y-1.8425
X5.535Y-4.785
X5.535Y-4.885
X5.628Y-1.7425
X5.628Y-1.8425
X5.635Y-4.785
X5.635Y-4.885
X5.728Y-1.7425
X5.728Y-1.8425
X5.735Y-4.785
X5.735Y-4.885
X5.828Y-1.7425
X5.828Y-1.8425
X5.835Y-4.785
X5.835Y-4.885
X5.928Y-1.7425
X5.928Y-1.8425
X5.935Y-4.785
X5.935Y-4.885
X6.028Y-1.7425
X6.028Y-1.8425
X6.035Y-4.785
X6.035Y-4.885
X6.128Y-1.7425
X6.128Y-1.8425
X6.135Y-4.785
X6.135Y-4.885
X7.1339Y-4.6309
X7.1339Y-4.7309
X7.2795Y-4.6309
X7.2795Y-4.7309
T5
X8.3198Y-4.1057
X8.3198Y-4.6569
T6
X8.4905Y-2.6572
X8.4905Y-4.8822
T3
G00X7.9785Y-4.9633
M15
G01X7.9785Y-4.983
M16
G05
G00X8.2014Y-4.9633
M15
G01X8.2014Y-4.983
M16
G05
T4
G00X8.1299Y-2.3008
M15
G01X8.1299Y-2.3402
M16
G05
G00X8.1299Y-2.9642
M15
G01X8.1299Y-3.0035
M16
G05
G00X8.2756Y-2.3795
M15
G01X8.2756Y-2.4189
M16
G05
G00X8.2756Y-3.0429
M15
G01X8.2756Y-3.0823
M16
G05
G00X8.3465Y-2.3008
M15
G01X8.3465Y-2.3402
M16
G05
G00X8.3465Y-2.9642
M15
G01X8.3465Y-3.0035
M16
G05
G00X8.4921Y-2.3795
M15
G01X8.4921Y-2.4189
M16
G05
G00X8.4921Y-3.0429
M15
G01X8.4921Y-3.0823
M16
G05
G00X8.5866Y-2.3008
M15
G01X8.5866Y-2.3402
M16
G05
G00X8.5866Y-2.9642
M15
G01X8.5866Y-3.0035
M16
G05
M30
